<svg xmlns="http://www.w3.org/2000/svg" width="100" height="80" viewBox="0 0 100 80">
    <g fill="none" fill-rule="evenodd">
        <path fill="#E8ECF0" d="M59.788 32.382c5.448 3.839 11.697 6.462 17.39 9.92 1.425.865 5.865 2.662 5.822 4.267-.025.938-1.36 2.115-1.944 2.766a66 66 0 0 0-2.866 3.42C73.963 58.151 69.981 63.6 65.4 68.727c-.69.772-2.768 4.454-3.44 2.625-.303-.83-.053-1.761-.845-2.534-.408-.398-1.985-.618-1.525-1.472l.918.41c-.238-.683-.22-1.43-.577-2.076-.221-.4-.654-.59-.804-1.042-.208-.624.144-1.348.085-1.991-.058-.641-.393-1.247-.593-1.852-1.185-3.586-1.61-7.2-2.218-10.9-.6-3.66-1.536-7.206-1.903-10.907-.388-3.91-.864-7.811-1.498-11.69 1.132.158 2.003 1.38 2.804 2.07 1.259 1.084 2.625 2.056 3.984 3.013m-4.382 38.453A1.84 1.84 0 0 1 55 70.19c1.777-1.135.705.8.406.645m-.868-3.301c-1.14.344-1.959.414-2.838-.1-.083-.049.013-.425-.138-.502-.131-.067-.332.016-.444-.047-.383-.213-1.053.255-1.118-.563 1.455-.488 2.885-1.389 4.421-1.54 2.135-.211 2.036 2.171.117 2.752m-5.126-3.895c-1.519.4-2.77 1.333-4.385 1.09-1.515-.23-2.832-1.113-4.027-2.132 2.99-.953 6.126-1.124 9.113-2.046.973-.3 2.251-1.09 3.3-.772 1.164.355 1.238 1.582 1.587 2.699-1.864.377-3.742.675-5.588 1.16M38.728 59.12c-1.527.379-3.087 1.208-4.364-.223-.206-.23-.386 0-.362-.712.026-.75.68-1.233 1.244-1.497 1.324-.62 3.18-.22 4.587-.31 2.243-.146 4.527-.63 6.746-1.003 1.536-.259 3.123-.832 4.694-.719 1.212.088 2.675 1.162.908 1.945-1.61.714-4.022.605-5.765.914-2.577.457-5.145.973-7.688 1.605m-1.086-6.838l.293.306c-.016-.004.577-.496.735-.51.763-.068 1.531-.015 2.296-.059 1.761-.102 3.537-.416 5.268-.762 1.41-.282 2.845-.769 4.296-.647 1.256.105 1.388.37 1.47 1.611-3.206 0-6.509-.07-9.66.626-2.052.453-4.312 1.8-5.34-.63l.642.065m2.289-5.984c.826.625 3.08-.415 4.072-.518 1.076-.113 2.088-.23 3.131-.497.925-.236 3.985-1.415 4.694-.287 1.088 1.728-3.316 2.045-4.014 2.13-2.927.36-5.965.678-8.814 1.44l.93-2.268m3.784-5.056c.193.777 6.176-2.084 6.285-.005.084 1.595-5.92 2.39-6.999 2.25.253-.735.925-1.392.714-2.245m2.29-4.774c.149-1.73.378-1.72 1.75-1.883 1.046-.124 2.485-.744 2.212 1.141-.233 1.614-4.111 2.487-3.962.742m1.791-5.813c.365-.88 1.186.304 1.204.752.045 1.19-.996.933-1.999.933.28-.557.545-1.119.795-1.685m10.736-6.353c-.17-.205-1.12-.283-1.39-.382-.664-.244-.57-.765-1.42-.251-.043-.043.038-.43-.008-.447-.023-.01-.62-.235-.813-.36-.467-.3-.888-.593-1.317-.97-.457-.4-.914-.981-1.435-1.3-.22-.134-.4-.324-.665-.366-.687-.106-.49.375-1.092.47-.37.059-.64-.375-1.124-.188-.418.162-.66.75-.847 1.1-.678 1.276-1.2 2.648-1.864 3.937-3.393 6.59-7.25 12.929-10.537 19.58-1.583 3.204-3.234 6.43-4.349 9.836-.803 2.456-2.617 6.043-1.056 8.497 1.135 1.785 3.407 2.555 5.22 3.417 2.728 1.298 5.243 2.993 8.001 4.25 3.289 1.5 6.483 3.07 9.689 4.744 1.367.715 2.6 1.744 3.963 2.42.834.414 2.12-.292 2.392.656 1.045-1.27 2.736-.423 3.944-1.317.711-.525 1.23-1.56 1.824-2.208.89-.971 1.854-1.872 2.762-2.826 3.602-3.788 6.927-7.733 10.204-11.802 3.13-3.886 6.787-7.557 9.43-11.81 1.05-1.689 1.24-3.46.548-5.325-.506-1.36-1.725-3.415-3.466-2.514.66-1.1-1.886-2.274-2.659-2.49-.011-.002-.163.843-.379.822.077.007-.647-1.872-.965-2.113-.945-.717-2.093-1.554-3.124-2.144-.945-.54-1.942-.81-2.857-1.415-1.11-.734-2.129-1.604-3.243-2.333-1.075-.704-2.274-1.536-3.463-2.02-1.03-.42-1.956-.502-2.883-1.19a16.984 16.984 0 0 0-3.472-2.014c-1.144-.508-2.73-.95-3.55-1.944"/>
        <path fill="#C5CFD6" d="M8.954 70.571c-.28.463-2.895.307-2.952-.238-.086-.815 3.438-.566 2.952.238m2.502-.686c1.314.107 3.474 1.004 4.74.462 1.934-.827-.097-2.096-1.134-2.476-1.055-.386-2.627-.18-3.17-1.289-.408-.833.601-3.16-.65-2.786-1.313.392-.932 3.725-2.992 2.602-.983-.536-.582-3.802-2.228-2.133-.451.456-.49 1.294-1.087 1.634-.609.348-1.373-.014-2.016.016-1.702.08-2.244 1.68-.52 2.313.639.235 3.045.522 1.587 1.57-.918.66-2.958-.725-3.747.423-1.084 1.579 1.82 1.614 2.6 2.086 1.321.8.23 2.667.335 3.997.162 2.032 1.337 1.607 1.764-.112.362-1.46-.087-3.56 2.103-2.98 3.565.945-1.983 5.491.629 6.655 1.665.742 1.901-3.269 2.03-3.96.48-2.548 1.905-1.953 4.064-1.875 2.523.091 3.132-1.783.46-2.32-.852-.171-2.025.045-2.765-.5-.438-.322-1.04-1.412-.003-1.327M99.22 2.828c-1.048-.39-2.343-1.153-3.507-.893-1.238.276-1.736 1.539-2.635 2.298-2.446 2.065-3.87-1.013-5.214-2.699-1.27-1.592-2.818-1.979-4.608-1-.714.39-3.72 2.177-3.195 3.322.377.824 1.862.084 2.368-.096 1.1-.39 2.12-.731 3.245-.162 2.11 1.066 2.657 3.99 5.21 4.446 2.638.471 2.725-2.088 4.608-3.052 1.263-.646 2.142.497 3.36.27 1.161-.217 1.698-1.939.368-2.434M77.613 12.788c.922.2 1.525-1.585 2.102-2.038.958-.75 2.62-.902 3.595-.147 1.905 1.475 1.248 4.659 3.96 5.488 2.425.742 3.567-2.443 5.608-3.236 1.187-.461 2.49-.763 2.026-2.418-.32-1.144-1.262-1.438-2.286-.999-1.76.755-2.358 3.83-4.445 3.885-2.159.057-2.393-3.048-3.32-4.401-1.413-2.061-4.318-2.56-5.969-.588-.498.594-3.028 4.074-1.271 4.454"/>
    </g>
</svg>
