<svg xmlns="http://www.w3.org/2000/svg" width="443" height="186" viewBox="0 0 443 186">
    <g fill="none" fill-rule="nonzero">
        <path fill="#2B44FF" d="M162.328 111.51c1.224-.833 3.726-3.818 5.038-4.508 2.915-1.534 15.903-4.55 16.325-4.728.644-.272 4.822-1.22 7.256-1.819 5.717-1.407 26.202-10.493 31.602-12.823.69 1.814 6.38 9.82 5.403 10.64-3.214 2.702-8.975 6.066-12.698 8.002-3.01 1.566-6.2 2.862-9.42 3.92-3.655 1.2-6.164 2.489-9.808 3.718-3.584 1.209.7 4.99 2.54 5.771 2.065.877 5.263 1.321 7.373 2.081-3.715 5.773-6.834 12.779-7.458 19.694-.15 1.664-1.419 3.19-3.482 2.692-1.065-.258-10.89-1.566-12.492-1.931-10.695-2.44-29.894-15.211-24.95-28.307 1.132.523 3.718-1.684 4.771-2.401z"/>
        <path fill="#1A1A1A" d="M168.312 42.027c.798-.068 2.864-1.664 1.78-2.47-1.093-.815-1.88 1.914-1.78 2.47m-41.62 6.12c.209-.036.118-1.18-.211-1.325-1.038-.46-1.126 1.27-1.15 1.734-.032.585-.106 2.232 1.156 1.78.717-.256.272-1.75.205-2.189m61.27 5.34c-.028 1.02 2.032 2.981 2.8 1.804.647-.988-2.747-3.835-2.8-1.805M115.095 30.48c.597 1.523 3.55-.553 3.66-1.67.225-2.288-3.69.147-3.66 1.67m24.638 6.567c1.375-.113 3.185-1.862 4.511-2.515.898-.442 3.34-.969 3.605-1.972.231-.872-3.912.994-4.266 1.16-1.625.762-3.09 1.63-3.85 3.327M242.978 24.99c1.096-.847 2.428-1.394 3.834-1.358.701.018 2.165.457 2.22-.757.09-1.973-6.107.434-7.076.82l1.022 1.295m-68.384 76.897c-.804-1.336-2.25-2.108-3.338-3.247.398 1.87-.5 3.534-1.118 5.242l4.456-1.995m139.654 28.467c.443-1.483.887-2.958 1.405-4.418.58-1.636.868-1.777-.52-2.92l-3.455 6.53c.82.349 1.675.688 2.57.808M195.038 22.99c-1.525-1.719-8.672-1.827-7.787 1.967.308 1.325 2.065-.083 3.166-.391 1.093-.307 4.186-.348 4.621-1.576m-.262 24.336c-.185-.439-.554-2.022-1.101-2.147-.534-.121-2.64 1.54-3.036 1.793-1.974 1.265-3.899 2.626-5.823 3.967.737 0 1.406-.262 2.138-.268.87-.007 1.494.35 2.343.146 1.823-.437 3.939-2.457 5.48-3.49m1.975-39.223c.171-.786 9.107 1.574 10.18 2.006.586.235 3.605 1.805 2.956-.56-.37-1.347-3.858-2.374-4.976-2.743-2.842-.938-5.838-1.606-8.864-1.45-.588.03-5.038.286-3.18 2.075.64.616 2.936.421 3.884.672m1.956 108.023c1.665.819 3.365 1.445 5.105 2.086.773.284 1.977 1.03 2.83.842.698-.154.922-1.217 1.289-1.93 1.342-2.604 2.944-4.705 4.93-6.853-.922-.672-5.604 2.295-6.763 2.733a50.72 50.72 0 0 0-3.389 1.404c-1.068.493-3.177.934-4.002 1.718m29.478-22.204c2.426-1.097 4.726-3.044 6.716-4.788 2.285-2.001 4.333-4.099 6.006-6.689-1.007.052-3.23 3.29-3.254-.235-.013-1.799 2.451-3.57 3.216-5.237-1.902-1.074-3.646 5.343-5.829 3.788-2.103-1.5 1.215-6.653 1.855-8.279-1.234-.82-8.262 8.365-9.279 9.54-.636.736-2.14 1.716-2.5 2.574-.213.51-.244 2.132-.14 2.602.215.982 1.305 2.16 1.79 3.074.614 1.158 1.15 2.362 1.419 3.65m100.307 33.117c-2.098-2.961.07-4.253 1.776-6.711 1.364-1.966 2.62-4.134 3.484-6.33 2.164-5.491 4.116-10.597 5.184-16.406-1.47.67-2.39 3.225-3.125 4.571-.989 1.81-1.859 3.709-2.958 5.462-2.057 3.28-4.077 6.78-6.694 9.624-1.185 1.288-2.189 2.738-3.557 3.899-.625.53-1.82.966-2.28 1.629-.435.626.051 1.027-.114 1.775-.17.767-.946 1.585-1.279 2.324-.437.97-.845 1.944-1.333 2.893-.533 1.035-.678 1.576-.822 2.587-.157 1.106.324 1.221-.642 2.24l5.251 2.315 1.772.782.374-.7c.48-.467.923-1.62 1.198-2.237 1.15-2.575 2.45-5.16 3.765-7.717m-169.018-12.432c-4.97 13.084 12.495 24.1 23.245 26.537 1.49.337 2.942.779 4.425 1.141 1.616.395 3.05.317 4.664.482 1.284.131 1.895 1.123 3.105 1.396 2.02.457 1.897-1.062 2.042-2.69.613-6.9 4.135-13.556 7.862-19.313-1.703-.61-3.39-1.274-5.07-1.941-1.438-.57-3.64-2.175-5.187-2.26-1.143-.063-2.885.914-3.996 1.342a48.62 48.62 0 0 1-5.632 1.808c-3.37.851-7.122 2.011-10.61 2.1-1.005.025-3.764.493-4.487-.128-1.38-1.185.535-2.173 1.69-2.596 6.885-2.52 14.194-3.592 21.098-6.177 3.552-1.33 7.068-2.816 10.643-4.126 3.082-1.13 6.31-2.13 9.288-3.519 3.933-1.834 7.882-4.119 11.288-6.81.682-.54 2.11-1.34 2.577-2.12.411-.687.36-.002.275-.835-.062-.599-.794-1.41-1.095-1.975a57.723 57.723 0 0 1-2.99-6.505c-5.432 2.33-10.6 5.502-15.953 7.992-5.387 2.506-11.464 4.274-17.228 5.684-2.453.6-5.273.79-7.523 1.976-.956.504-1.9 1.087-2.924 1.378-.303.58-.6.694-.894.341a.786.786 0 0 0-.712-.261c-.626.106-1.265.402-1.85.63-2.965 1.148-5.803 2.587-8.617 4.055-1.334.696-2.702 1.38-3.979 2.175-.684.426-1.297.856-1.857 1.44-.671.701-.511 1.278-1.598.78m111.832-77.684c1.256.02 2.4-.66 3.71-.622 2.06.06 3.69 1.656 4.886 3.196 2.365 3.047 1.762 6.722.574 10.132a19.697 19.697 0 0 1-2.325 4.62c-.863 1.262-2.406 2.457-3.009 3.863-.994 2.318 1.011 1.332 2.239.837 1.543-.623 2.99-1.398 4.3-2.441 5.84-4.65 10.281-11.114 11.77-18.537.725-3.622.669-7.856-1.854-10.812-2.306-2.702-6.288-3.586-9.692-3.084-3.68.542-7.014 2.1-10.01 4.106-.87.583-1.667 1.22-2.484 1.87-1.072.856-1.714.879-1.446 2.219.2.997.742 2.029 1.092 2.985.654 1.791.416 2.255 2.25 1.668m4.003 30.875l-.254.434c1.752.084 3.384-1.461 4.877-2.216 1.939-.98 3.66-2.318 5.36-3.668 2.996-2.383 6.032-5.067 8.262-8.195 5-7.01 9.542-15.898 8.178-24.786-1.47-9.58-9.85-13.267-18.778-12-4.024.572-7.616 2.369-11.217 4.192-1.815.92-3.347 2.112-5.01 3.267-.862.599-1.65.677-1.706 1.725-.043.79 1.323 2.575 1.692 3.29 4.521-4.611 9.393-8.426 16.22-8.662 8.124-.28 12.927 7.42 12.891 14.796-.034 7.232-3.154 14.19-8.127 19.387-2.26 2.363-4.415 4.258-7.19 5.982-1.383.86-2.404 1.631-3.95 2.202-1.095.404-.98.191-1.26 1.204-.237.86.005 2.156.012 3.048m-44.137 98.264c-.105 1.303-.37 2.586-.665 3.858-.106.456-.702 1.897-.598 2.41.173.849-.057.304.687.746.775.462 1.678.434 2.527.575.524.086 2.444.99 2.766.847.565-.25.547-1.129 1.167-1.477.843-.476 2.087-.069 2.883.303 2.129.993 3.591 3.048 5.65 4.173 3.658 1.997 7.998 3.103 12.079 3.56 2.21.247 4.472.68 6.655.163 1.72-.409 3.956-.371 4.89-2.217-8.309-2.285-20.991-5.08-24.276-14.616-1.786 1.62-4.771.747-6.93.524-2.374-.246-4.496-.189-6.667-1.271a9.906 9.906 0 0 0-.168 2.422m-73.569-59.056c3.912.236 7.62-1.615 10.027-4.738.592-.769 1.2-1.554 1.556-2.465l.23-.693c.374-.638.21-.939-.49-.903-.394-.54-1.394-.723-1.11-1.703.215-.74 1.006-.752 1.693-.985-.342-.575-.547-.863-1.037-1.375-1.273 1.146-3.584 3.393-4.478.762-.43-1.263.326-2.47.139-3.688-.077-.504-.716-1.791-1.086-2.093-1.972-1.605-4.812-.94-6.904.004-1.442.652-1.752.957-1.987 2.45-.24 1.518-.461 3.036-.726 4.55.865-.451 1.023-1.425 1.587-2.127l.635 1.155c.298-.167.576-.158.834.027.417.642.155 1.594.026 2.267 1.393-.13 1.981 1.423.577 2.052-1.454.652-2.11-1.125-2.159-2.276-.542.648-1.1.302-1.478.635-.377.332-.526 1.026-.66 1.786-.222 1.248-.787 3.05-.264 4.302.777 1.86 3.253 2.828 5.075 3.056M270.95 47.262c-1.295 1.8-3.501 4.156-3.963 6.33 1.426-.836 4.44-4.861 5.216-1.655.446 1.84-1.84 4.034-2.402 5.816 2.248-.74 3.85-3.056 5.252-4.844 1.789-2.28 3.615-5.284 4.072-8.183.369-2.345-1.258-4.531-3.676-4.761-1.235-.118-2.524.078-3.718.365-.544.13-1.355.292-1.841.583-.61.366-.693 1.224-1.267.51l-2.29 4.315c.76-.276 2.31-1.445 3.14-1.324 1.211.176 1.46 1.937 1.477 2.848M149.767 12.054c-3.393.1-6.94.823-10.152 1.897-.798.267-4.163 1.216-3.454 2.592.468.91 2.994-.375 3.757-.59 3.272-.919 6.642-1.525 9.993-2.078.812-.133 3.565-.12 3.707-1.184.174-1.298-2.893-.638-3.851-.637m92.345 148.04c-1.84.224-3.605.14-5.446-.085-1.55-.19-3.127-.824-4.669-.824 0 1.65-.111 1.66 1.63 2.014 1.215.246 2.447.385 3.675.556 2.162.303 4.562 1.151 6.751.715-.053-.286-.22-2.22-.447-2.411-.128-.107-1.309.036-1.494.035M212.388 38.01c.514.327 1.696 1.634 2.309 1.657-.22-1.513-1.907-4.146-3.845-3.212-.475.23-1.472 1.37-1.021 1.874.241.27 1.927-.318 2.557-.32m-17.931 13.457l.057-.791c-.71.418-1.592.616-2.097 1.29.607.268 1.213.538 1.82.807l.22-1.306m56.007 40.158c3.36 1.177 6.44 2.748 8.913 5.416 2.138 2.306 3.143 6.37 3.664 9.394 1.292 7.482-1.2 14.417-2.843 21.574-.833 3.631-2.078 7.125-3.243 10.662-1.017 3.089-1.89 6.323-3.293 9.26-1.19 2.49-2.712 4.945-3.76 7.529-.563 1.39-1.476 6.16-3.616 4.662-.583 1.527-.725 1.397-.101 2.457.452.767 1.984 1.833 2.707 2.458 1.926 1.666 4.367 3.038 6.627 4.205 4.14 2.136 8.577 3.735 12.84 5.682 1.885.862 3.929 1.88 3.506 4.346-.354 2.066-1.55 3.634-3.416 4.553-1.75.864-4.256 1.53-6.183 1.801-1.143.161-1.405-.314-2.337-.479-1.037-.183-2.248.17-3.318.162-4.803-.042-9.009-1.25-12.89-4.036-1.388-.996-3.43-3.696-5.245-3.695-.928 0-.732.563-1.548.894-1.008.408-2.743-.362-3.733-.543-2.11-.385-4.256-.776-5.66-2.593-1.52-1.964-.98-4.396-.327-6.577.736-2.458 1.974-4.952 2.5-7.448.128-.607.246-1.738.116-2.356-.202-.958-1.17-1.53-1.199-2.567-.009-.316.443-.732.522-1.058.174-.715.147-1.458.22-2.186.127-1.299.424-2.543.628-3.827.464-2.92 1.38-5.527 2.267-8.341.86-2.732 1.68-4.765 3.343-7.13.86-1.225 3.741-5.589 2.335-6.845-1.926 3.782-4.177 6.731-7.123 9.741-2.254 2.303-4.457 5.399-7.278 7.039-3.1 1.803-6.89 2.864-10.315 3.817-1.629.453-2.98 1.459-4.736 1.645-1.903.2-3.84-.036-5.703-.46-.525-.12-2.038-.926-2.513-.875-.7.076-1.705 1.323-2.473 1.552-1.868.557-3.143-.508-4.56-1.491-1.538-1.068-2.003-1.333-3.778-1.462-2.173-.157-4.287-.923-6.425-1.392-3.758-.825-6.953-2.496-10.37-4.245-3.916-2.005-7.266-4.77-10.217-8.036-4.34-4.802-10.383-18.108-3.294-22.767-4.173-.567-7.995-2.39-8.504-7.112-.266-2.471.235-5.209.856-7.591.284-1.088.622-2.169.946-3.245.244-.364.373-.761.386-1.194.15-.56-.066-.839-.647-.836-1.1-1.285-1.926-2.42-2.148-4.244-.07-.579-.132-1.465.279-1.957.19-.198.42-.33.688-.396.645.037.827-.28.547-.952.312-.95-.151-1.691 1.027-2.088.378.08.754.168 1.129.263.478.218.789.06.933-.472 1.11-.435.598-1.077 2.107-.518a6.536 6.536 0 0 1 2.446 1.63c.835-.535-1.062-3.844-1.126-4.9-.15-2.488.88-4.546 2.218-6.59 2.602-3.972 6.234-7.388 9.815-10.461 6.86-5.886 14.067-11.49 21.813-16.178-3.196-2.22-6.929-2.82-10.731-1.79-3.505.951-6.346 2.678-9.573 4.189-2.99 1.399-6.162 1.973-7.115-1.844-1.068-4.276 2.339-5.864 5.395-7.781-.763-.57-3.275-.162-4.225-.095-2.117.15-4.14.627-6.197 1.05-.986.202-1.893.157-2.87.355-1.452.295-2.969.625-4.439 1.045-3.496 1-6.967 2.518-9.988 4.563-2.612 1.766-4.423 4.26-6.527 6.558-2.4 2.62-4.699 5.197-8.256 6.156-1.666.449-3.62.856-4.8-.632-1.1-1.383-1.16-3.05-1.125-4.741.08-3.736 1.885-7.774 3.984-10.827 2.28-3.314 5.332-5.211 8.216-7.879-4.169.298-8.197 2.495-12.031 4.014-.807.32-1.621.68-2.432.975-.865.316-1.438.122-2.267.267-1.891.33-3.516 1.127-5.355-.144-3.48-2.404.006-7.294 2.402-8.794a66.467 66.467 0 0 1 10.41-5.34c-1.99-2.159-.29-5.24 1.545-6.772 2.322-1.938 5.278-3.049 8.076-4.087 2.212-.82 4.385-1.608 6.683-2.102 2.416-.519 5.241-1.312 7.693-1.236 2.299.072 4.338-.333 6.666-.398 1.938-.054 3.88-.008 5.817-.058 5.212-.134 10.444.217 15.538.592-4.036-11.802 22.549-8.157 28.22-6.616 5.155 1.401 11.061 3.027 15.39 6.351 1.835 1.408 3.577 3.009 5.204 4.652 2.401 2.423 3.73 5.598 5 8.73 3.221-1.577 6.301-3.297 9.826-4.08 3.354-.744 6.79-1.752 10.163-2.315 2.564-.427 6.287-.717 8.446 1.094 2.344 1.967 3.565 5.027 4.965 7.649 6.72-6.377 14.216-11.029 23.798-10.72 9.376.303 15.542 8.4 16.679 17.174 1.252 9.667-3.055 19.77-8.892 27.256-2.618 3.357-5.327 6.6-8.85 9.105-1.747 1.241-3.59 2.602-5.506 3.571-.956.483-2 .92-3.003 1.292-.453.168-.919.336-1.39.45-1.344.326-1.082-.109-1.582 1.068-.406.955-.356 2.598-.53 3.647-.198 1.198-.316 2.413-.606 3.595-.502 2.049-1.025 4.047-1.653 6.048-1.191 3.787-2.793 7.603-4.755 11.057 1.664.723 3.994.796 5.773 1.015 1.925.237 3.852.735 5.851 1.294 4.007 1.12 7.586 2.065 11.396 3.742 3.955 1.741 7.48 4.34 11.288 6.41 3.502 1.902 7.042 4.285 10.294 6.57.774.542 1.253 1.015 1.869 1.703.63.703.83.84 1.583 1.45.34.274 1.327 1.66 1.715 1.71.694.092.588-.426 1.133-1.15 1.138-1.51 2.725-2.68 3.855-4.228.943-1.291 1.926-2.599 2.933-3.71 2.438-2.686 4.458-5.665 6.192-8.886a92.029 92.029 0 0 1 2.831-4.856c.976-1.576 2.71-3.656 4.652-3.562-.156-.803-.652-.936.204-1.427.552-.316 1.625.193 2.05.514 1.125.85 1.175 2.5 1.104 3.738-.182 3.193-.85 6.345-1.782 9.363-1.119 3.63-2.522 6.831-4.053 10.295-1.219 2.759-2.732 6.408-5.765 7.667 2.037 2.908 1.059 5.278-.303 8.365-.994 2.257-2.309 4.59-4.31 6.083-2.257 1.684-4.704.256-7.064-.857-1.425-.673-5.784-2.26-4.897-4.328-1.09-.145-1.774-.936-2.765-1.18-1.05-.257-.87.169-1.98.329-.85.122-2.124-.64-2.925-.913-1.339-.455-2.673-.922-4.01-1.383-3.763-1.295-7.462-2.571-11.262-3.61-7.07-1.931-14.227-3.027-21.272-4.752-1.412-.346-2.816-.68-4.287-.956-.303-.058-1.879-.145-2.07-.47-.335-.57.695-3.757.784-4.407.58-4.263.39-8.93-.427-13.146-.34-1.752-1.857-4.022-1.844-5.732.009-1.147 1.026-2.4 1.623-3.44 1.476-2.57 3.024-5.346 4.118-8.02 1.674-4.092 2.7-8.71 3.44-13.092.385-2.285.834-4.761.939-7.072.08-1.761-.065-3.609.19-5.413-.974.093-2.354.598-3.232.057-1.109-.682-1.406-2.63-1.265-3.794-3.797.663-3.67-2.938-3.435-5.754-6.863 0 1.925-10.196 3.023-12.386.505-1.007.49.124.267-1.433-.098-.684-.565-1.443-.83-2.072a67.756 67.756 0 0 0-1.866-4.059 77.317 77.317 0 0 0-4.74-8.157c-1.567 1.09-2.978 2.382-4.286 3.768.839-2.194 3.402-4.911 2.306-7.402-1.016-2.31-4.41-2.15-6.414-1.727-5.446 1.148-10.669 2.82-15.857 4.756 1.607.922 4.068.21 5.665-.495 1.977-.872 4.103-1.788 6.234-2.25 1.858-.403 4.3-.266 3.762 2.237-.435 2.028-2.42 3.982-3.728 5.498-2.884 3.341-6.5 5.928-10.053 8.512-3.818 2.778-7.497 5.796-11.364 8.494-6.99 4.876-14.505 9.114-21.727 13.666-3.752 2.365-8.005 4.269-12.074 6.022-4.477 1.928-8.77 3.993-13.414 5.516-2.58.846-5.136 1.542-7.67 2.504-1.59.604-4.356 1.812-5.406.021-2.132-3.637 5.583-8.42 7.697-10.645 1.459 1.417-5.733 6.695-5.17 8.757.442 1.62 2.153-.472 2.979-.914 1.335-.714 2.916-1.073 4.258-1.887 2.752-1.671 6.014-3.598 6.643-7.051-.438-.462-.432-.887.016-1.278.2-.237.358-.498.474-.782.196-.543.275-1.222.38-1.798.31-1.7-.468-3.293.259-4.958-4.241 3.214-8.318 6.843-12.344 10.322-3.611 3.12-7.38 7.206-8.706 11.862-.17.597-.453 1.273-.422 1.903.06 1.236.184.97 1.18 1.367s2.446.363 3.517.405c.61.024 3.337-.622 2.795.717-.312.772-2.203.743-2.88.815-1.698.18-2.619-.005-1.814 1.836.36.825 1.091 1.384 1.664 2.023 1.596 1.776 2.462 4.501 3.717 6.589 1.43 2.378 3.002 4.64 4.672 6.854.69.914 1.61 2.631 2.565 3.283.892.609-.157.559 1.325.311.645-.107 1.23-.527 1.849-.678 3.694-.9 7.49-1.914 11.31-3.025 4.887-1.42 10.014-2.632 14.676-4.678 4.177-1.833 8.322-4.016 12.542-5.872 1.232-.542 2.463-.901 3.42-1.899 1.157-1.203 2.114-2.78 3.18-4.073 1.814-2.2 3.485-4.439 5.438-6.525 1.453-1.551 4.028-4.436 6.078-5.056 3.895-1.176 1.81 4.756 1.306 6.256.916.208 1.397-.967 2.472-.629 1.286.405 1.42 2.116 1.58 3.188.043.286-.343.82-.226 1.074.04.087.88.584 1.042.814.588.836.472 1.852.25 2.753-1.153 4.67-5.25 8.079-8.264 11.523 1.348-.255 2.347-1.023 3.62-1.404 1.194-.357 2.395-.339 3.6-.44 1.26-.108 2.47-.58 3.76-.604 1.353-.025 2.649.36 3.99.513"/>
        <path fill="#1A1A1A" d="M107.949 49.628c-.743.485-.953.962-.978 2.082-.01.46.021 2.174.663 2.11.603-.061.315-3.603.315-4.192m-3.839 2.792c.347-3.591 1.66-7.243 4.751-9.48.765-.553 1.63-.534 2.467-.883.503-.21 1.299-1.185 1.87-1.07 2.105.426-.326 3.222-.682 3.957-1.103 2.279-1.029 4.28-.996 6.739.025 1.868.413 5.017-.529 6.708-1.003 1.8-3.18.63-4.396-.435-1.534-1.345-2.693-3.487-2.485-5.536M141.046 63.032c0 2.004 1.627.647 1.569-.778-.085-2.099-1.644-.807-1.569.778m8.647-11.078c-1.78 1.601-3.153 2.5-3.496 4.96-.26 1.865-.002 3.712.01 5.59.018 3.149-2.524 6.459-5.26 2.85-1.996-2.633-1.28-6.772.347-9.417.854-1.388 2.073-2.761 3.482-3.626 1.059-.651 4.038-1.932 4.917-.357M124.833 100.475c-.207.488-.691 2.482.297 2.03.873-.398.308-1.719-.297-2.03m-5.224-6.155c-.152-.75-.09-5.449 1.205-5.097 1.016.277 1.184 2.682 1.598 3.52 1.543 3.117 5.083 5.059 6.304 8.276 1.363 3.594-2.757 3.705-4.943 2.25-2.589-1.723-4.087-5.942-4.164-8.949M116.436 75.051c.562-.758.619-1.163.298-1.834-.409.445-.336 1.081-.298 1.834m.407 3.393c-2.93.328-3.076-5.069-2.574-6.922.4-1.476 1.258-3.062 2.142-4.264.178-.243 1.872-2.423 2.204-2.428 1.273-.02.923 1.419.786 1.954-.433 1.688-.604 3.099-.488 4.97.125 2.003 1.073 6.757-2.07 6.69M249.82 31.705c-4.188 3.512-8.164 7.314-12.717 10.385-2.229 1.504-4.558 2.834-6.781 4.362-1.133.778-2.288 1.474-3.544 2.046-1.11.506-1.836.571-.915-.628.615-.801 1.995-1.36 2.833-1.93 1.29-.876 2.51-1.85 3.866-2.627 2.393-1.373 4.771-2.481 6.977-4.164 1.957-1.494 3.977-2.952 5.845-4.54.801-.68 3.458-3.806 4.436-2.904M249.904 44.386c1.884 1.61-2.828 6.024-3.903 7.024-1.133 1.055-2.381 1.996-3.613 2.93-.434.33-2.801 2.532-3.402 2.354-1.185-.35.371-1.78.776-2.152 1.308-1.207 2.645-2.378 3.925-3.617 1.154-1.117 2.404-2.15 3.52-3.303.904-.934 1.663-2.517 2.697-3.236M110.377 109.322c-.492-1.14-1.373.126-.926.695.422.539.863-.476.926-.695m-2.883-2.25c.263-1.675.872-2.606 2.444-1.176 1.08.983 3.252 3.777 3.046 5.3-.27 1.998-2.471 1.431-3.612.387-1.17-1.071-1.686-3.025-1.878-4.51M110.938 140.045c-1.926-.146-3.568-1.624-4.386-3.357-.688-1.457-1.339-3.805 1.078-3.039 1.575.5 7.648 6.631 3.308 6.396M134.272 130.548c-1.488.339-2.96-.641-3.875-1.746-.57-.688-1.894-3.1-1.227-4.094.93-1.385 2.336 1.4 2.82 1.95.76.863 3.246 2.514 2.282 3.89M135.612 92.874c-1.166-.541-2.25-1.193-2.718-2.486-.298-.823-.549-3.292.776-3.28 1.532.013 5.04 5.519 1.942 5.766M127.435 67.189c1.562-.028 1.931.833 2.148 2.07.148.84.863 3.691.12 4.275-1.061.835-2.75-1.078-3.091-1.828-.704-1.545.269-3.065.823-4.517M154.27 152.669c.76.346 2.49 1.113 1.829 2.303-.691 1.245-2.676.035-3.417-.509-.31-.227-2.282-1.718-2.2-2.218.174-1.063 2.892.324 3.787.424M104.172 74.922c.52 1.301 1.104 5.771-1.632 3.358-.835-.737-.96-1.657-.673-2.669.416-1.465 1.021-1.175 2.305-.689M249.174 58.277c-.606-1.238.89-2.036 1.69-2.834.522-.521 2.716-3.348 3.436-3.188 1.48.329-4.398 5.47-5.126 6.022M127.415 147.937c1.428-.229 1.76 1.357 2.68 2.048.395.297 1.75.557 1.477 1.187-.716 1.653-4.227-2.123-4.157-3.235M139.471 110.485c.981-.41 3.814 1.796 3 2.749-1.215 1.426-2.93-1.969-3-2.749M160.156 142.407c-.715.071-3.734-.878-2.615-2.148.785-.892 2.872 1.34 2.615 2.148M124.007 136.311c-.71.284-3.272-.3-2.466-1.412.767-1.06 2.467.533 2.466 1.412M144.976 141.11c.83-.086 1.43.414 1.572 1.262-1.038.148-1.359-.099-1.572-1.262"/>
        <path fill="#000" d="M252.965 18.042l1.048.005-1.048-.005M247.46 91.038l-1.572.002 1.573-.002M338.362 94.709c.167.583-.077.68-.735.29l.735-.29M323.473 140.442l.786.005-.786-.005M273.672 98.254c-.44.335-.877.382-1.31-.018l1.31.018M263.86 53.56l-.034 1.31c.01-.438.022-.875.034-1.31M286.515 13.117l-1.31-.001c.437-.164.874-.11 1.31.001M158.343 7.784l-1.31.077 1.31-.077M169.09 7.867l-1.049-.089 1.049.09M174.856 8.283c-.35.13-.699.207-1.048.002l1.048-.002M143.665 9c-.437.09-.874.178-1.31.266l1.31-.266M264.123 115.677l-.036.786.036-.786M119.674 94.447l.015.524-.015-.524M339.986 93.506l-1.31.007c.435-.326.872-.284 1.31-.007M250.344 91.65l-1.049-.173 1.049.173M154.411 152.63l-1.31-.256 1.31.255zM202.64 1.39l-.787-.239c.263.08.525.16.787.238M233.831 178.171l.524.032-.524-.032M113.522 37.43l.787.02-.787-.02M151.266 12.146c-.613 0-1.225.002-1.835.003l1.835-.003M243.005 159.98l-1.049-.017 1.049.017M280.225 21.11l1.572-.175c-.503.445-1.047.149-1.572.175M240.122 160.117l-.787-.03.787.03M231.059 164.69l.04 1.31-.04-1.31M271.05 37.203l1.05-.097c-.32.246-.695.102-1.05.097M156.508 106.931l1.049.193-1.049-.193M211.027 37.965c.436-.371.873-.331 1.31-.004l-1.31.004M194.626 51.2c.013-.175.025-.35.039-.524-.012.175-.026.35-.039.524M270.914 46.22l.011 1.049-.01-1.049M155.272 101.007c.575.195 1.732.784 2.402.706.537-.063.979-.715 1.496-.714 1.393.002 1.135 1.612.462 2.477-1.82 2.338-5.888-.198-4.36-2.469M160.958 92.612c1.9.49.954 4.669-.643 4.956-1.88.339-2.208-3.059-1.837-4.287.968.575.369 2.626 1.588 2.06.776-.362.658-2.03.892-2.73"/>
        <g fill="#1A1A1A">
            <path d="M439.834 121.574c-.118.5-.41.747-.906.866-.82.196-1.718.227-2.555.328-1.527.186-3.107.263-4.606.624-1.402.338-2.805.843-4.072 1.537.414-1.976.884-3.894.71-5.929-.128-1.494-.163-3.744-1.677-4.608-.35-.2-.905-.124-1.294-.145-.507-.027-1.014-.051-1.52-.079-1.003-.055-2-.16-2.999-.258-1.97-.192-3.926-.43-5.884-.717-.324-.048-.905-.012-1.122-.292-.16-.206-.083-.531-.071-.763.04-.8.009-1.597-.091-2.392-.218-1.739-.7-3.45-1.238-5.114-.272-.842-.564-1.676-.838-2.517-.133-.406-.44-.96 0-1.251.274-.182.754-.18 1.074-.26.38-.095.75-.218 1.122-.34.878-.288 1.755-.58 2.632-.871 3.333-1.108 6.695-2.142 10.019-3.27.465-.159.927-.324 1.391-.482.202-.068.552-.244.769-.15.253.112.204.39.386.556.16.145.52.156.724.273.52.3.846.821 1.254 1.242.525.542 1.111 1.018 1.63 1.57 2.09 2.226 3.638 4.907 4.948 7.65.353.737.582 1.502.803 2.287.208.744.475 1.47.593 2.236.276 1.788.286 3.627.508 5.426.185 1.507.667 3.333.31 4.843m-13.252-3.827c-.004 1.197-.066 2.401-.324 3.573-.266 1.207-.746 2.364-1.175 3.518-.404 1.09-.731 2.214-1.2 3.277-.463 1.05-1.056 2.005-1.427 3.095-.761 2.233-2.065 4.192-2.988 6.348a66.42 66.42 0 0 1-3.165 6.398c-.557.994-1.074 2.094-1.779 2.989-.35.445-.75.888-1.154 1.281-.353.343-.522.081-.948.159-.622.113-.943.933-1.345 1.354-.763.798-1.541 1.587-2.377 2.306-.855.737-1.8 1.353-2.678 2.062-.837.677-1.673 1.289-2.63 1.782-1.891.975-4.065 2.172-6.246 2.07-1.003-.048-1.54-.711-1.961-1.597-.445-.938-.295-2.061-.22-3.067.09-1.207.376-2.27 1.01-3.294.624-1.01.009-1.635-.614-2.476-1.388-1.877-3.239-3.34-4.926-4.925-.872-.82-1.735-1.648-2.598-2.476l-1.43-1.374c-.35-.336-.686-.563-.812-1.035.95-.52 1.94-.963 2.815-1.613 1.786-1.326 3.425-2.946 5.11-4.406.808-.701 1.447-1.57 2.097-2.418.627-.819 1.346-1.591 1.887-2.474 1.164-1.9 2.492-3.78 3.415-5.817.46-1.015.698-2.05.938-3.135.145-.653.312-1.3.475-1.949.105-.418.135-1.138.399-1.483.485-.636 2.01.391 2.569.572 1.051.34 2.147.5 3.234.672 2.307.362 4.63.671 6.922 1.12 1.2.236 2.404.497 3.623.62 1.181.12 2.369.057 3.552.048.254-.002.563.044.734-.192.097-.136.032-.304.187-.43.204-.165.47-.076.703-.051.473.051.949.08 1.422.14.204.026.611-.01.786.1.184.116.12.463.12.728m-33.494 31.678c-.56 1.112-.885 2.668-.902 3.9-.009.66.08 1.32.218 1.966.12.564.448 1.213.345 1.78-1.422-.647-2.82-1.342-4.27-1.926-1.253-.505-2.194-1.383-3.225-2.217-1.108-.896-2.11-1.894-3.174-2.837-1.142-1.013-2.333-1.97-3.494-2.96-2.067-1.763-3.803-3.743-5.5-5.85-1.492-1.85-3.631-4.212-3.531-6.716.047-1.163.134-2.485.713-3.525.481-.864 1.352-1.833 2.166-2.411.783-.556 1.551.84 1.991 1.33.948 1.057 1.914 2.096 2.876 3.14 1.828 1.985 3.563 4.07 5.54 5.915 1.994 1.86 4.032 3.68 6.179 5.365 1.074.844 2.258 1.63 3.233 2.587.358.35 1.054.737 1.293 1.176.256.472-.258.886-.458 1.283m48.806-27.392c-.3-.039-.286.001-.311-.292-.04-.454.114-.99.16-1.445.222-2.166.116-4.434-.073-6.6-.372-4.254-1.251-8.436-3.482-12.126-1.03-1.704-2.194-3.31-3.654-4.675-.673-.63-1.33-1.307-2.074-1.853-.373-.274-.917-.413-1.257-.694-.183-.152-.265-.461-.42-.655-.619-.773-1.318-.973-2.305-.89-1.025.087-2.098.407-3.087.68-2.102.582-4.119 1.57-6.156 2.35a193.37 193.37 0 0 0-6.086 2.472c-.877.37-1.936.66-2.715 1.22-.47.338-.608.757-.558 1.319.179 1.985.918 3.956 1.48 5.855.603 2.039 1.095 4.116 1.25 6.241-2.085-.152-4.157-.31-6.232-.571-1.038-.131-2.08-.238-3.117-.38-.535-.074-.785-.273-1.216-.55-.378-.244-.573-.038-.734.332-.839 1.923-1.17 4.02-2.078 5.928-.408.857-.918 1.657-1.342 2.506a23.96 23.96 0 0 1-1.596 2.684c-.269.396-.613.717-.911 1.088-.276.344-.474.74-.727 1.1-.53.753-1.172 1.416-1.821 2.064a63.075 63.075 0 0 0-1.907 1.99c-.612.668-1.343 1.21-1.99 1.84-.61.592-1.14 1.237-1.764 1.818-.602.56-.884 1.336-1.532 1.84-.349.271-.736.49-1.083.763-.287.225-.587.62-.995.545-.452-.085-.816-.69-1.099-1.003-.364-.403-.731-.804-1.1-1.202-1.452-1.566-2.94-3.102-4.403-4.657-.715-.761-1.502-1.451-2.199-2.23-.508-.566-1.34-.97-2.05-.582-.718.391-1.58.737-2.161 1.324-.63.636-1.132 1.464-1.645 2.194-.534.76-.746 1.659-.886 2.563-.149.964-.304 1.918-.23 2.896.14 1.851.485 3.917 1.559 5.476.511.744 1.212 1.302 1.839 1.94.679.694 1.164 1.528 1.724 2.314 1.123 1.578 2.503 2.99 3.91 4.318.67.633 1.43 1.167 2.105 1.802.72.679 1.45 1.29 2.262 1.855.831.577 1.518 1.328 2.269 1.998.773.69 1.565 1.335 2.417 1.927 1.633 1.136 3.294 1.875 5.193 2.447 2.091.629 4.116 1.452 6.196 2.11.997.315 1.984-.121 2.933-.44.968-.325 1.918-.71 2.81-1.211 1.807-1.016 3.544-2.196 5.322-3.266 1.85-1.113 3.394-2.389 4.808-4.018 1.346-1.553 2.771-3.095 3.998-4.744 2.49-3.35 3.995-7.312 5.843-11.02.982-1.972 1.978-3.913 2.795-5.962.401-1.008.76-2.033 1.171-3.038.174-.425.317-.59.783-.663.538-.084 1.088-.12 1.628-.185 2.137-.254 4.223-.631 6.34-.996 1.966-.338 3.944-.687 5.7-1.683.37-.21.814-.456 1.015-.847.091-.179.317-1.085.19-1.23-.075-.085-.576-.075-.704-.091M424.976 158.477c.68-.821 1.125-2.005 1.619-2.952.528-1.014 1.018-1.952 1.242-3.081.108-.544.173-1.1.296-1.64.116-.51.282-.96.235-1.492-.05-.557-.307-2.233-1.148-2.048-.489.108-.39.633-.393 1.018-.004.44-.055.878-.184 1.3-.304.997-1.029 1.875-1.488 2.81a11.217 11.217 0 0 1-1.637 2.492c-.64.73-1.355 1.423-2.106 2.037-.66.54-1.455.948-1.935 1.681-.287.439-.335.57-.863.69a3.259 3.259 0 0 0-1.184.51c-.406.29-.695.637-1.17.827-.413.166-.851.265-1.268.42-.965.358-1.808.963-2.794 1.302-.51.175-1.028.325-1.545.48-.412.125-.9.21-1.243.49-.573.473-.895 1.676-.393 2.303.54.675 1.807.253 2.51.166l.027.139c1.184-.24 2.418-.381 3.568-.755.608-.197 1.154-.48 1.71-.792.47-.264.953-.357 1.456-.526.45-.15.81-.38 1.091-.77.36-.5.512-.351 1.067-.474.89-.196 1.659-1.214 2.272-1.829.747-.75 1.584-1.49 2.258-2.306M429.724 164.225c-.281-.074-.749.256-.958.403-.834.582-1.697 1.121-2.54 1.689-.776.523-1.542 1.062-2.307 1.605-.636.452-1.053 1.007-.83 1.86.103.39.272.847.698.623.313-.163.583-.323.926-.452.865-.325 1.738-.646 2.546-1.114 1.4-.812 2.712-2.07 2.9-3.84-.104-.25-.134-.696-.435-.774"/>
        </g>
        <g fill="#1A1A1A">
            <path d="M319.156 10.469c.676-.355 1.365-.681 2.052-1.014 1.454-.704 2.887-1.456 4.358-2.127.666-.303 1.361-.497 2.045-.751.727-.27 1.421-.627 2.118-.963 1.466-.707 2.964-1.315 4.486-1.89.466-.175.933-.348 1.4-.52.359-.132.795-.386 1.169-.429.592-.07 1.036.532 1.44.894 2.176 1.951 3.713 4.845 4.648 7.58.51 1.494.742 3.035 1.014 4.583.279 1.587.575 3.14.586 4.753.01 1.64.18 3.257.107 4.901-.027.613.084 1.716-.255 2.25-.343.542-1.204.693-1.758.893-3.028 1.094-6.054 2.272-9.126 3.234a1115.821 1115.821 0 0 0-9.575 3.05c.13-.904.282-1.807.383-2.714.096-.854.025-1.737.017-2.595-.016-1.886-.078-3.761-.458-5.614-.69-3.365-1.806-6.678-3.677-9.583-.438-.68-.961-1.3-1.482-1.919-.186-.22-.81-.744-.788-1.084.03-.446.973-.766 1.296-.935m36.524-.33c.705.032 1.162.193 1.21.941.063.954.05 1.92.084 2.877.066 1.83.133 3.659.084 5.49-.085 3.206-.43 6.408-1.42 9.472a48.745 48.745 0 0 1-1.67 4.367c-.6 1.386-1.449 2.633-2.2 3.939-.37.642-.785 1.164-1.295 1.704-.241.255-.352.392-.694.436-.346.044-.782-.045-1.13-.07-1.636-.117-3.271-.278-4.91-.356-1.625-.077-3.256-.01-4.879-.084-.762-.036-1.48-.281-2.23-.4-.755-.122-1.518-.174-2.277-.26-.391-.043-.382.048-.441-.304-.032-.188.022-.431.033-.624.02-.37.039-.741.061-1.112.02-.331-.047-.912.088-1.226.12-.279.38-.327.648-.4 1.511-.411 2.971-.92 4.425-1.501 1.483-.593 2.984-1.152 4.45-1.786.632-.273 1.345-.523 1.823-1.037.393-.423.618-.965.792-1.506.955-2.97.655-6.395.376-9.455-.288-3.146-.742-6.374-1.904-9.332 3.657 0 7.323.06 10.976.227m-40.525 2.769c1.02.376 1.662 1.252 2.257 2.097.74 1.053 1.437 2.118 2.017 3.267 1.216 2.415 2.02 5.076 2.478 7.73.438 2.533.655 5.357.151 7.899-.135.68-.487 1.224-.684 1.868-.132.433-.04 1.062.08 1.492.17.617.761.406 1.254.306.719-.145 1.438-.29 2.156-.438 2.707-.563 5.387-1.54 8.143-1.738-.234.721-.366 1.375-.84 1.993-.443.579-1.033 1.08-1.288 1.776-.212.58-.253 1.393-.037 1.982.227.618.782.627 1.365.697 1.639.195 3.25.46 4.903.55.355.018.709.057 1.06-.009.282-.053.48-.136.765-.084.378.068.711.247 1.107.287.374.038.75.026 1.124.012 1.383-.05 2.736.091 4.12-.042.404-.038 1.162-.263 1.54-.036.397.24.085.723.284 1.056.261.437 1.159.213 1.593.19.62-.034 1.17-.142 1.725-.423a9.788 9.788 0 0 0 2.964-2.27c.865-.988 1.492-2.142 2.11-3.288.645-1.195 1.291-2.362 1.779-3.63.498-1.297.986-2.635 1.269-3.995.282-1.358.46-2.738.726-4.1.278-1.42.327-2.869.4-4.31.076-1.495.11-2.963.014-4.458-.093-1.469-.258-2.909-.432-4.368-.045-.373-.022-.759-.082-1.129-.041-.248-.173-.483-.187-.735-.03-.501.438-.823.426-1.347-.029-1.217-1.344-1.67-2.321-1.961-1.271-.378-2.689-.606-4.017-.513-2.86.203-5.782.229-8.493 1.256-1.405-2.37-2.714-4.94-5.014-6.602-.26-.188-.54-.316-.708-.593-.144-.237-.207-.476-.399-.69-.472-.526-1.054-.592-1.714-.454-1.437.3-2.81.628-4.173 1.163-.605.238-1.247.35-1.855.582-.584.223-1.143.503-1.704.775-1.229.597-2.5 1.103-3.727 1.704-2.466 1.208-4.903 2.474-7.173 4.016-1.096.745-2.353 1.516-3.283 2.461a1.804 1.804 0 0 0-.526 1.517c.07.598.382.365.847.537M368.874 20.463c-.235.568-.349 1.174.054 1.707.73.968 1.893-1.236 2.07-1.852.383-1.334.864-2.678 1.079-4.056.22-1.405.115-2.916.15-4.34-.117-1.69-.34-3.377-.739-5.021-.353-1.459-.729-2.962-1.905-3.945-.489-.409-.825-.1-.893.484-.075.64.09 1.284.379 1.844.676 1.315.677 2.853.829 4.323.3 2.924.47 5.84-.288 8.708a17.037 17.037 0 0 1-.736 2.148"/>
        </g>
        <g fill="#1A1A1A">
            <path d="M14.348 44.777c.12-1.565.071-3.134.184-4.698.106-1.485.403-2.999.692-4.46.293-1.484.827-2.803 1.427-4.182.33-.76.65-1.526.972-2.291.196-.47.339-.956.882-1.081.704-.162 1.554-.03 2.278-.057.732-.026 1.463-.07 2.192-.136 1.585-.143 3.16-.377 4.743-.543 1.516-.159 3.015-.252 4.512-.568.77-.162 1.533-.352 2.297-.542.573-.142 1.366-.505 1.942-.367-.712 1.64-.934 3.39-.952 5.165-.006.699-.088.985-.808.942a48.31 48.31 0 0 1-2.695-.25c-1.687-.196-3.36-.508-5.033-.8-.792-.14-1.553-.337-2.331-.511-.552-.123-.784.098-.969.608-.133.369-.176.535-.518.743-.28.17-.555.331-.813.536a6.141 6.141 0 0 0-1.19 1.286c-.75 1.066-1.23 2.319-1.67 3.54-1.106 3.075-1.662 6.418-1.765 9.683-.052 1.66-.323 3.288-.34 4.954-.009.734.176 1.679-.43 2.212-.593.523-1.355.898-2.017 1.326-.58-1.68-.73-3.462-.747-5.23a61.335 61.335 0 0 1 .157-5.28m24.402-9.535c.722.196 1.447.37 2.175.542-1.238 3.03-1.194 6.381-1.288 9.61a34.672 34.672 0 0 0 .136 4.331c.143 1.471.466 2.875.757 4.318.064.314.216.83.013 1.12-.225.32-.962.492-1.282.64-1.269.584-2.518 1.218-3.812 1.742-1.313.532-2.676.851-3.96 1.469a42.438 42.438 0 0 1-3.835 1.636c-1.285.47-2.619.814-3.86 1.405-1.175.56-2.146 1.33-3.146 2.16-.607-1.927-.844-3.889-.954-5.909-.105-1.934-.26-3.947-.067-5.876.088-.88.088-1.7.07-2.581-.015-.789.164-1.562.225-2.347.136-1.73.13-3.458.36-5.18.434-3.26 1.295-6.708 3.033-9.502.11-.178.22-.465.372-.597.257-.22.166-.18.505-.001.316.165.627.342.954.487.685.304 1.418.438 2.132.645.792.23 1.51.582 2.331.712.796.126 1.605.142 2.4.27.44.07.844.219 1.272.33.348.091.69.067 1.057.107.708.076 1.398.279 2.109.344.799.074 1.51-.09 2.303.125M12.655 49.416a21.929 21.929 0 0 0 1.541 5.738c.247.59.525 1.415 1.23 1.578.65.15 1.439-.33 2.052-.497.48 2.862.69 5.837 1.965 8.49.161.335.373.959.704 1.178.338.224.75.006 1.087-.123 1.416-.538 2.88-.882 4.345-1.254.715-.182 1.443-.343 2.14-.586.58-.202 1.128-.444 1.735-.554 1.268-.23 2.447-.646 3.66-1.075 2.545-.9 5.103-1.716 7.452-3.069 1.12-.645 2.297-1.278 3.332-2.058.849-.639 1.798-1.597 1.382-2.758-.125-.35-.47-.932-.866-1.039-.373-.1-.707.237-1.047.315-.515.117-.4-.299-.448-.705-.037-.32-.077-.64-.115-.96a63.999 63.999 0 0 1-.222-2.02c-.247-2.794-.131-5.587-.133-8.386-.002-1.4.322-2.63.648-3.979.173-.716.335-1.435.487-2.156.084-.4.182-.84.067-1.246-.26-.909-1.552-1.16-2.317-1.419a16.169 16.169 0 0 0-2.006-.552c-.373-.075-1.37-.016-1.611-.33-.24-.311.025-1.32.05-1.69.044-.68.091-1.361.18-2.039.145-1.092.13-2.105-.74-2.904.542-.433.927-1.352.138-1.751-.907-.46-2.121-.526-3.08-.285-1.048.263-2.198.267-3.271.382-1.142.122-2.281.27-3.421.415-1.96.249-3.958.303-5.895.702-.97.2-1.94.351-2.918.506-1.013.16-1.623.296-2.23 1.152-1.148 1.624-2.208 3.288-2.853 5.183-.61 1.796-.896 3.683-1.066 5.567-.182 2.03-.223 4.055-.2 6.092.022 2.05-.011 4.1.244 6.137M76.638 61.958c.2-.357.898-.68 1.218-.913.438-.317.87-.641 1.292-.984.765-.623 1.3-.214 1.98.383 1.254 1.101 1.758 2.58 1.664 4.331.003.511.125 1.367-.225 1.788-.334.403-1.027.364-1.468.464-.578.132-1.45.956-2.048.715-.525-.212-.34-1.266-.381-1.731-.08-.87-.336-1.71-.81-2.412a4.704 4.704 0 0 0-.856-.942c-.245-.21-.565-.345-.366-.7m-2.571 2.398c.498.095 1.012.347 1.478.553.31.137.714.265.964.508.415.402.247 1.037.343 1.564.056.309.201.574.097.894-.122.374-.481.438-.663.741-.267.445.077 1.073.307 1.452.4.658.945.322 1.56.224.742-.12 1.504-.152 2.219-.418.582-.217 1.064-.72 1.508-.051.166.25.2.47.526.376.271-.078.547-.48.733-.685 1.16-1.28 1.436-3.029 1.455-4.754.055-1.916-.583-3.717-1.489-5.336-.19-.34-.38-.733-.665-.998-.277-.257-.637-.359-.887-.66-.373-.448-.287-1.355-.882-1.553-.627-.209-1.53.62-2.004.975-.669.5-1.323 1.02-1.967 1.556-1.378 1.148-2.918 2.246-4.165 3.558-.422.445-.595 1.232-.171 1.763.424.532 1.15.186 1.703.291M2.346 40.619c.365.542 1.149.545 1.096-.25-.047-.729-.25-1.447-.463-2.134-.216-.701-.172-1.463-.184-2.195-.03-1.749.022-3.442.318-5.163.284-1.656.468-3.333.8-4.98.327-1.615.918-3.143 1.282-4.745.113-.495.203-1.46-.45-1.573-.543-.094-.862.75-1.073 1.149-.7 1.327-1.454 2.553-1.869 4.031a23.776 23.776 0 0 0-.788 4.137C.878 30.35.898 31.82.818 33.277c.131 1.694.062 3.57.552 5.194.222.731.557 1.525.976 2.148"/>
        </g>
        <path fill="#1A1A1A" d="M70.303 142.591c-.85 1.082-1.7 2.153-2.46 3.3-.765 1.156-1.494 2.334-2.242 3.5-.722 1.125-1.528 2.216-2.109 3.423-.335.695-.367 1.61-1.287 1.578-1.215-.043-2.366-.386-3.436-.948-2.146-1.126-3.932-2.708-5.272-4.714-1.39-2.082-2.47-4.437-3.252-6.805-.432-1.31-.779-2.645-1.092-3.987-.16-.68-.33-1.347-.33-2.05-.002-.309.018-.617.034-.926.015-.292.18-.8-.16-.821.101-.839.198-1.678.303-2.516.075-.606.07-1.285.607-1.686.514-.384 1.32-.397 1.926-.532a30.305 30.305 0 0 0 2.176-.574c1.473-.446 2.883-1.038 4.305-1.62.71-.29 1.42-.587 2.09-.962.553-.31.95-.76 1.325-.053 2.555 4.814 4.421 10.21 8.604 13.946.339.301.892.665.942 1.16.048.481-.402.944-.672 1.287m2.938-3.287c-.578-.397-1.295-.463-1.881-.83-.672-.42-1.117-1.368-1.576-1.999-1.096-1.506-2.194-3.021-3.183-4.6-.898-1.435-1.71-2.92-2.574-4.376a23.674 23.674 0 0 0-1.419-2.165c-.221-.294-.784-1.336-1.258-1.297-.244.02-.234.258-.41.335-.09.039-.162-.004-.25.008-.317.042-.662-.119-.989-.087-.807.079-1.682.419-2.459.653-1.622.49-3.17 1.18-4.765 1.747-1.582.561-3.348.936-4.793 1.81-.57.346-1.215.898-.655 1.574.213.256.504.25.726.448.186.167.103.26.06.539l-.075.479c-.258 1.678-.47 3.358-.237 5.052a36.18 36.18 0 0 0 1.073 5.076c1.512 5.24 4.217 11.46 9.531 13.782 1.243.542 2.478.67 3.789.915.412.077.761.264 1.127.454.176.09.392.237.603.211.481-.06.877-.808 1.101-1.162.849-1.337 1.812-2.592 2.692-3.907.456-.68.888-1.378 1.261-2.108.216-.422.371-1.122.966-1.106l.48.643c.065.086.162.181.209.277.118.242.108.063.06.35-.064.365-.402.779-.616 1.067-1.25 1.693-2.556 3.345-3.867 4.99-1.288 1.618-2.603 3.224-4.112 4.642-.306.286-.64.636-1.087.656-.412.017-.864-.2-1.273-.27-.89-.156-1.804-.192-2.671-.461-.452-.14-.829-.402-1.296-.433-.393-.028-.66-.093-1.005-.302-.78-.471-1.646-.73-2.434-1.175-1.626-.919-3.305-2.282-4.497-3.723-.617-.746-1.124-1.577-1.73-2.332-.588-.735-1.17-1.465-1.685-2.256a23.165 23.165 0 0 1-2.438-5.003c-.319-.912-.478-1.508.316-2.176.749-.629 1.45-1.287 2.074-2.043.303-.37 1.687-1.722.65-1.947-.56-.122-1.457.826-1.879 1.17-.687.56-1.36 1.103-2.155 1.504-.9.454-.916 1.03-.904 1.973.028 1.944.75 3.837 1.5 5.612a26.09 26.09 0 0 0 2.9 5.157c2.22 3.065 4.703 6.174 8.154 7.889 1.706.848 3.55 1.295 5.434 1.506a24.67 24.67 0 0 0 3.355.141c.473-.011 1.09.053 1.544-.091.367-.117.427-.39.56-.724.315-.791 1.14-1.22 1.697-1.854.595-.678 1.219-1.316 1.83-1.977 1.327-1.432 2.204-3.117 3.27-4.734.589-.894 1.226-1.77 1.74-2.711.417-.763.934-1.766 1.079-2.627.115-.686-.436-1.684-1.195-1.722-.396-.02-.713.292-1.102.332-.117.013-.517-.068-.656-.01.637-1.55 1.582-3.01 2.298-4.52.404-.85.787-1.712 1.142-2.584.27-.664.592-1.209-.095-1.68M54.332 174.358c-.82.257-1.43.455-2.323.374-.626-.057-1.245-.18-1.869-.255a16.627 16.627 0 0 1-4.617-1.256c-1.342-.579-2.598-1.275-3.706-2.203-.584-.49-1.112-1.027-1.631-1.578-.372-.394-.716-.691-1.293-.761.15.797.325 1.426.722 2.151.318.582.682 1.14 1.092 1.668a12.446 12.446 0 0 0 3.024 2.771c1.14.745 2.424 1.379 3.769 1.705.75.182 1.519.291 2.279.431.718.132 1.416.266 2.149.17.685-.091 1.408-.114 2.076-.3.527-.147 1.03-.469 1.48-.763.877-.573-.079-2.49-1.152-2.154"/>
    </g>
</svg>
