<?xml version="1.0" encoding="UTF-8"?>
<svg width="280px" height="124px" viewBox="0 0 280 124" version="1.1" xmlns="http://www.w3.org/2000/svg" xmlns:xlink="http://www.w3.org/1999/xlink">
    <!-- Generator: sketchtool 59.1 (101010) - https://sketch.com -->
    <title>8CBD30F1-1735-4B7B-81E7-CF161B873F3F</title>
    <desc>Created with sketchtool.</desc>
    <g id="To-Do" stroke="none" stroke-width="1" fill="none" fill-rule="evenodd">
        <g id="320px-–-#2-Done" transform="translate(-47.000000, -164.000000)">
            <g id="Illustration-#2" transform="translate(47.000000, 164.000000)">
                <rect id="Rectangle" fill="#FFFFFF" x="0" y="0" width="280" height="123.2"></rect>
                <g id="Group-7" transform="translate(7.280000, 5.040000)" fill-rule="nonzero">
                    <g id="coffee-2" transform="translate(61.951373, 0.520000)">
                        <g id="coffee" transform="translate(0.208627, 0.040000)">
                            <path d="M37.3301982,68.6346377 C38.0839998,68.1209256 39.6255624,66.2819659 40.4332231,65.8569716 C42.2291172,64.9119921 50.2297405,63.054294 50.4898725,62.9445169 C50.8861045,62.7773869 53.4599364,62.1933277 54.9594944,61.824342 C58.4808861,60.9577747 71.0999699,55.360485 74.426039,53.925317 C74.8506531,55.0425793 78.3559542,59.9747093 77.7545665,60.4801322 C75.7747475,62.1442639 72.2260912,64.2163634 69.9327281,65.4089017 C68.077835,66.3733723 66.1132127,67.1715281 64.1298179,67.8232459 C61.8780224,68.5632334 60.332427,69.3566219 58.0882299,70.1136361 C55.8802366,70.8583283 58.518878,73.1876199 59.6528211,73.668847 C60.924652,74.2087713 62.8946379,74.482766 64.1941804,74.9507751 C61.906181,78.5066582 59.9846905,82.8224679 59.600303,87.0820449 C59.5077818,88.1072289 58.7262685,89.0470556 57.4551079,88.7401277 C56.7991909,88.581735 50.7470994,87.7756571 49.7602067,87.5507261 C43.1722074,86.0483475 31.3453933,78.1809113 34.3909937,70.1136361 C35.0887017,70.4357984 36.681656,69.0766587 37.3301982,68.6346377 Z" id="Accent" fill="#2B44FF"></path>
                            <g id="Ink">
                                <path d="M41.0159094,25.8324807 C41.5080527,25.79096 42.7805597,24.8078685 42.1128905,24.3107002 C41.439184,23.8089905 40.9550903,25.4901504 41.0159094,25.8324807 M15.3783234,29.6028394 C15.5069518,29.5801905 15.4507968,28.8761512 15.2482551,28.7861967 C14.6089529,28.5024443 14.5549578,29.5690798 14.5393592,29.8545415 C14.519921,30.2147873 14.474805,31.2295013 15.2520948,30.9513043 C15.6934149,30.7934029 15.4195997,29.872917 15.3783234,29.6028394 M53.1204365,32.8916759 C53.1030428,33.5200812 54.3725711,34.7284335 54.8459472,34.0035549 C55.2440234,33.3946213 53.1530224,31.6408397 53.1204365,32.8916759 M8.23447329,18.7195822 C8.6023201,19.6578056 10.4214323,18.3790878 10.4890329,17.6908585 C10.6278515,16.2813941 8.21548181,17.7817848 8.23447329,18.7195822 M23.4116078,22.7648729 C24.258771,22.695253 25.373529,21.6182571 26.1904443,21.2158849 C26.7432971,20.9436333 28.2475251,20.6191109 28.411129,20.0009839 C28.5535371,19.4638204 26.0012291,20.6135503 25.7833114,20.7156446 C24.7820383,21.1847452 23.8792365,21.7194618 23.4116078,22.7648729 M87.0102908,15.3380329 C87.6855262,14.8159574 88.5063562,14.4791559 89.3720368,14.5012124 C89.8043135,14.5122406 90.7060547,14.7826523 90.7398615,14.0351603 C90.7950794,12.8196311 86.9776108,14.3020429 86.3810328,14.5404728 C86.5908607,14.8064732 86.8006884,15.072253 87.0102908,15.3380329 M44.8857963,62.7062366 C44.3904121,61.8836379 43.4994133,61.4080729 42.8294322,60.7063384 C43.0749303,61.8586081 42.5213472,62.8834741 42.1409752,63.9353993 C43.0559926,63.5256785 43.970779,63.1159575 44.8857963,62.7062366 M130.912548,80.2421568 C131.185641,79.3285737 131.45897,78.4200102 131.778286,77.5203452 C132.135336,76.5129851 132.312917,76.4258252 131.458027,75.7214716 C130.748645,77.0624127 130.039028,78.4033539 129.32941,79.7445234 C129.834561,79.9592291 130.361645,80.1682306 130.912548,80.2421568 M57.4796813,14.1053025 C56.5402521,13.0464605 52.1375239,12.9799801 52.6823973,15.3169171 C52.8724591,16.1329519 53.9548788,15.2660663 54.6329731,15.075871 C55.3059606,14.8869964 57.2114632,14.8619012 57.4796813,14.1053025 M57.3182213,29.0962405 C57.2043241,28.82601 56.9769765,27.8506987 56.6395284,27.7738322 C56.3107899,27.6989254 55.0137026,28.7219247 54.7698286,28.8780528 C53.5535859,29.6573875 52.367939,30.4957329 51.1827388,31.3218842 C51.6365407,31.3218842 52.0485804,31.1603122 52.4997024,31.1568282 C53.0356889,31.1522554 53.4202592,31.3724027 53.9428461,31.2467598 C55.0657379,30.9771828 56.3690784,29.7329475 57.3182213,29.0962405 M58.5350413,4.93565434 C58.6405729,4.45133623 64.1450177,5.90519838 64.8065768,6.17141448 C65.1669734,6.31621061 67.0266015,7.28280425 66.6269426,5.82599171 C66.3995387,4.99625083 64.2505495,4.3637323 63.5619832,4.1363252 C61.8112911,3.55850236 59.9655069,3.14749014 58.1013399,3.24281048 C57.7393546,3.26119369 54.9980259,3.41938007 56.1427615,4.52123781 C56.5372007,4.90070355 57.951099,4.78109922 58.5350413,4.93565434 M59.7401222,71.4773438 C60.7656465,71.9818723 61.8127069,72.3678442 62.8846341,72.7624425 C63.3608734,72.9376228 64.1026522,73.3965866 64.6279587,73.2813481 C65.0582392,73.1866798 65.1961156,72.5315228 65.422135,72.0929082 C66.2485046,70.4884151 67.2353969,69.1940265 68.4589657,67.8711048 C67.8908089,67.4568208 65.0067299,69.2844922 64.293148,69.5543408 C63.578678,69.8244106 62.9046161,70.0964711 62.2054656,70.4191834 C61.5471674,70.7230949 60.2481109,70.994713 59.7401222,71.4773438 M77.8985386,57.8001836 C79.3930935,57.1239065 80.8098023,55.9245852 82.0355974,54.8508391 C83.4431082,53.6178379 84.7047977,52.3257292 85.7351926,50.7302771 C85.1151162,50.7619499 83.7461919,52.756209 83.7309366,50.5850739 C83.7230848,49.4774248 85.2409711,48.3865041 85.7120855,47.3591516 C84.540132,46.6975957 83.4659908,50.6508726 82.1212954,49.6926646 C80.8259547,48.769252 82.8699189,45.5946305 83.263636,44.5929283 C82.5037954,44.0875049 78.1747015,49.7457497 77.5481193,50.4697588 C77.1561968,50.9229894 76.2294471,51.5263303 76.0082477,52.0549506 C75.8765599,52.3696693 75.8577154,53.3682488 75.921428,53.6577631 C76.054013,54.2631115 76.7254634,54.9880127 77.024509,55.5516514 C77.402971,56.2651773 77.7325268,57.0068071 77.8985386,57.8001836 M139.687978,78.2001086 C138.395483,76.375798 139.730525,75.5802473 140.78154,74.0660628 C141.62208,72.8548494 142.395405,71.5197643 142.928154,70.1672387 C144.260707,66.7842481 145.463128,63.6391625 146.121257,60.0605262 C145.215537,60.4739532 144.649293,62.0473905 144.196207,62.8764803 C143.586962,63.9911008 143.051044,65.1609493 142.373904,66.2409126 C141.106757,68.2617631 139.862694,70.4174415 138.250867,72.1690838 C137.520543,72.9628456 136.902245,73.8558836 136.059668,74.5711637 C135.674704,74.8978358 134.938269,75.1661496 134.654694,75.5746575 C134.386962,75.9603586 134.686378,76.2069838 134.584762,76.6678129 C134.48043,77.1404924 134.002223,77.6444753 133.796954,78.0997145 C133.527411,78.6976072 133.276425,79.2968415 132.97565,79.8815423 C132.647491,80.5190112 132.55787,80.8523912 132.46938,81.4755501 C132.372743,82.1568438 132.669218,82.2274997 132.074231,82.8553541 C133.152404,83.3307169 134.230577,83.8060796 135.308749,84.2814424 C135.67244,84.4419836 136.036358,84.6023011 136.400275,84.7628421 C136.476996,84.6190706 136.553718,84.4752991 136.630439,84.3315275 C136.926688,84.0437611 137.199173,83.3340708 137.368684,82.9539595 C138.077055,81.3677774 138.877085,79.7753346 139.687978,78.2001086 M35.5728583,70.5419809 C32.511491,78.6015328 43.2694135,85.3875932 49.8915918,86.888518 C50.8089236,87.0962522 51.7040129,87.3684558 52.6170759,87.5916357 C53.6125931,87.8349624 54.4966737,87.7866104 55.4903935,87.8884629 C56.2810108,87.9692734 56.6577842,88.5801643 57.4027934,88.7485007 C58.6476954,89.0296583 58.5715319,88.0941825 58.6607263,87.0917751 C59.038623,82.8415053 61.2078216,78.7407685 63.5037348,75.194288 C62.4549705,74.8191128 61.4158671,74.4096884 60.3805829,73.9989206 C59.4947052,73.6472499 58.1381416,72.6589451 57.185761,72.606564 C56.4814175,72.5680614 55.408164,73.1695506 54.7240408,73.4334716 C53.584734,73.8731161 52.4420572,74.2476197 51.2546709,74.5473569 C49.1782612,75.0716174 46.8677444,75.7861516 44.7192155,75.8403236 C44.0997976,75.8559933 42.4006106,76.144538 41.9548633,75.7617519 C41.1049328,75.0317718 42.2846803,74.4233432 42.9962135,74.16278 C47.2368789,72.6099217 51.7395109,71.9497833 55.9923086,70.357751 C58.1806043,69.5382304 60.346433,68.6233491 62.5486584,67.8161402 C64.4469038,67.1204097 66.4352424,66.5043701 68.2696812,65.6485855 C70.6923089,64.5188067 73.1254959,63.111228 75.2232493,61.4529356 C75.6431595,61.1211875 76.5229712,60.6282663 76.8107747,60.1474332 C77.0642036,59.7241299 77.032525,60.146314 76.979952,59.6330223 C76.9422073,59.2643388 76.4910678,58.764702 76.3054895,58.416389 C75.6141769,57.117826 74.9893667,55.7838945 74.4640859,54.4096697 C71.117611,55.845006 67.9340227,57.7985586 64.6367508,59.3323896 C61.3181352,60.8762939 57.5746667,61.9655556 54.0244151,62.8340997 C52.5132779,63.2039025 50.7761215,63.3207531 49.3903508,64.0514046 C48.801488,64.3616628 48.2193654,64.7207208 47.5887138,64.9002498 C47.4024616,65.2575168 47.21913,65.3275824 47.0384944,65.1102226 C46.9252602,64.9832987 46.7789995,64.9295744 46.5994872,64.9492732 C46.2137272,65.0146378 45.8203283,65.1968531 45.4595065,65.3367602 C43.6336052,66.0445789 41.8852154,66.9310312 40.1516537,67.8353916 C39.3300317,68.2638434 38.4872907,68.6858037 37.7009423,69.1751431 C37.2794593,69.4374972 36.9017875,69.7020897 36.5569173,70.0622669 C36.1435227,70.4940766 36.2419286,70.8491053 35.5728583,70.5419809 M104.461336,22.6889999 C105.234966,22.7015271 105.940078,22.2825379 106.746848,22.3058026 C108.015556,22.3424894 109.01982,23.3260961 109.756056,24.274582 C111.213078,26.1514209 110.841601,28.4154837 110.109619,30.5157984 C109.759415,31.5195381 109.278667,32.4830119 108.6779,33.3617035 C108.146099,34.1395068 107.195352,34.8752544 106.824099,35.741419 C106.211912,37.1697403 107.447033,36.5623961 108.203198,36.25727 C109.153946,35.8734017 110.045355,35.3962506 110.852349,34.7535619 C114.449113,31.8890896 117.185368,27.907462 118.101856,23.3348204 C118.549017,21.1038653 118.514534,18.4957526 116.960332,16.6748385 C115.539585,15.0098431 113.086808,14.4658059 110.990057,14.7745112 C108.723579,15.1084946 106.669597,16.0683892 104.82408,17.3041053 C104.288025,17.663143 103.797201,18.0550646 103.293838,18.4566052 C102.633509,18.9834175 102.237849,18.997287 102.403099,19.8229619 C102.525805,20.4367933 102.860112,21.072771 103.075519,21.6617717 C103.478792,22.7650577 103.331679,23.0504983 104.461336,22.6889999 M106.927857,41.7083753 L106.771331,41.9757795 C107.850467,42.0272463 108.855588,41.0753326 109.775067,40.6105642 C110.969585,40.0066114 112.030161,39.1826936 113.076873,38.3507201 C114.922763,36.8832422 116.792803,35.2295886 118.166654,33.3031605 C121.246864,28.9846406 124.044657,23.5096821 123.204111,18.0344998 C122.298273,12.1334848 117.136713,9.86200469 111.636833,10.6431826 C109.158354,10.9951714 106.945522,12.1017096 104.727324,13.2250305 C103.60928,13.7913901 102.665652,14.526024 101.6413,15.2371622 C101.109782,15.6063812 100.624775,15.6542678 100.590116,16.2998417 C100.563953,16.7863157 101.404946,17.8863646 101.632356,18.3271897 C104.417402,15.4862172 107.418678,13.1359704 111.624534,12.9907442 C116.628227,12.8179945 119.587017,17.5621232 119.565103,22.1050834 C119.543637,26.5603262 117.621944,30.845952 114.558504,34.0478641 C113.166317,35.5030346 111.838975,36.6706617 110.129487,37.7326698 C109.277314,38.2621074 108.64875,38.737393 107.695953,39.0889343 C107.021997,39.3377656 107.09221,39.2066368 106.920255,39.8305051 C106.774238,40.3599427 106.923385,41.1585747 106.927857,41.7083753 M79.7394217,102.238726 C79.6743263,103.041604 79.5111388,103.831997 79.329545,104.615127 C79.264225,104.896372 78.896997,105.784146 78.9614191,106.100349 C79.0678164,106.622889 78.9261777,106.286938 79.3840904,106.559558 C79.8617562,106.844208 80.4177609,106.826957 80.9407692,106.913442 C81.2635527,106.966785 82.4462693,107.523375 82.6451471,107.435528 C82.9928465,107.281853 82.9818477,106.740018 83.3634416,106.525282 C83.8833071,106.232459 84.649413,106.483288 85.1398735,106.712325 C86.4509852,107.323847 87.3517714,108.589793 88.6204589,109.282806 C90.8734342,110.513114 93.5468363,111.194323 96.0604179,111.475341 C97.4220348,111.627654 98.8155259,111.894826 100.160308,111.5759 C101.219792,111.32439 102.596897,111.347544 103.172879,110.210757 C98.0543583,108.803167 90.2420086,107.080736 88.2182141,101.207037 C87.1181012,102.20445 85.2794919,101.667382 83.9499738,101.529596 C82.4873468,101.378191 81.1802755,101.413375 79.8426765,100.746694 C79.7448089,101.270823 79.7149548,101.705744 79.7394217,102.238726 M34.4207616,65.8603823 C36.8302292,66.0059545 39.1144912,64.8657504 40.597258,62.942005 C40.9622328,62.4681684 41.3364904,61.9844929 41.5556565,61.4232235 C41.6032028,61.2810053 41.6505227,61.1385637 41.6980691,60.9963457 C41.9281027,60.6034571 41.8273499,60.4180816 41.3960366,60.4402194 C41.1530973,60.1070355 40.5370325,59.9950054 40.7122748,59.3910258 C40.8442726,58.9353018 41.331283,58.9279226 41.7546718,58.7845865 C41.543883,58.4303829 41.417772,58.2526104 41.115966,57.9375393 C40.3316776,58.6430392 38.9084572,60.0276528 38.3573724,58.4069036 C38.0926977,57.628953 38.5586519,56.885215 38.4431823,56.1347688 C38.3956358,55.8243936 38.0021333,55.0314607 37.7741373,54.8458617 C36.5594414,53.8570437 34.8099624,54.2662561 33.5212301,54.8483214 C32.6330191,55.2494838 32.441928,55.4377662 32.2970249,56.3574876 C32.1498576,57.2926385 32.0133316,58.2273422 31.8500892,59.1598096 C32.3830611,58.8820819 32.4801915,58.2821274 32.8277327,57.8501065 C32.957919,58.0871365 33.0881054,58.3243903 33.2187447,58.5614203 C33.4021378,58.4585583 33.5735311,58.463925 33.7324717,58.5779678 C33.9896747,58.9733161 33.8277908,59.5596303 33.7487732,59.9742092 C34.6064187,59.8941556 34.968903,60.8509969 34.1042388,61.2385188 C33.2085562,61.6399048 32.8046387,60.5455412 32.7742996,59.8366871 C32.4401168,60.2358368 32.0968774,60.0222861 31.8639004,60.2273395 C31.6311497,60.432393 31.5394531,60.859718 31.4565867,61.3277407 C31.3205136,62.0967467 30.9722932,63.2063159 31.2944762,63.9777819 C31.7728831,65.1235765 33.298215,65.7197294 34.4207616,65.8603823 M104.240304,29.0575355 C103.443065,30.1662043 102.083705,31.6175159 101.799492,32.9569991 C102.677581,32.4416929 104.534202,29.9622289 105.012545,31.9373458 C105.287075,33.0710643 103.878844,34.4219538 103.532924,35.5196634 C104.917732,35.0640738 105.904147,33.6371406 106.768273,32.5358526 C107.869994,31.1317324 108.994911,29.2807454 109.276197,27.4952898 C109.503658,26.0504641 108.501254,24.703824 107.011948,24.5622491 C106.251193,24.4897841 105.456882,24.610559 104.721801,24.7870246 C104.38669,24.8673175 103.886727,24.9670687 103.587649,25.1466653 C103.212001,25.3721119 103.160654,25.9001665 102.806851,25.4609038 C102.33684,26.3468101 101.86683,27.2327162 101.396819,28.1183988 C101.864577,27.948643 102.819012,27.2282431 103.330236,27.3027209 C104.076803,27.411642 104.23017,28.4959322 104.240304,29.0575355 M29.5924768,7.36942261 C27.5023002,7.43102996 25.3176101,7.87609776 23.3389459,8.53769727 C22.8475662,8.70213453 20.7746152,9.28695135 21.2111452,10.1347319 C21.4996721,10.695087 23.0554054,9.90325133 23.5257064,9.77120323 C25.5413148,9.20518571 27.6167591,8.83191765 29.6813241,8.49126526 C30.1813163,8.40882013 31.8771201,8.41697405 31.9646074,7.76171648 C32.0718133,6.96217991 30.1826763,7.36851662 29.5924768,7.36942261 M86.4768502,98.561634 C85.3439871,98.6999941 84.2561565,98.6482428 83.1221561,98.5094548 C82.1678311,98.3926934 81.1959933,98.0019918 80.2464442,98.0019918 C80.2464442,99.0184149 80.1775308,99.0248304 81.2498958,99.2423146 C81.9983905,99.3941471 82.7575748,99.4794728 83.5140299,99.5853279 C84.8459004,99.7715901 86.3244675,100.294237 87.6727133,100.025642 C87.6399624,99.8492172 87.5367062,98.6580798 87.3970598,98.5402491 C87.3183666,98.4741699 86.5912509,98.5627032 86.4768502,98.561634 M68.1668565,23.3585837 C68.483616,23.5604155 69.2117658,24.3651988 69.5891861,24.3794033 C69.454409,23.4476271 68.4147936,21.82534 67.2209895,22.4011545 C66.9284943,22.542352 66.3139455,23.2453713 66.5918822,23.5555393 C66.7403357,23.7213297 67.7786275,23.3596438 68.1668565,23.3585837 M57.1215078,31.6474692 C57.133024,31.4851231 57.144775,31.3227772 57.1567612,31.1604312 C56.7186803,31.4180202 56.1762497,31.5398878 55.8650807,31.9548441 C56.2387656,32.120437 56.6122153,32.2862463 56.9861352,32.4520556 C57.0312594,32.1838601 57.0763836,31.9156646 57.1215078,31.6474692 M91.6216652,56.3851279 C93.6914031,57.1098851 95.5889059,58.077872 97.1123354,59.7210733 C98.429217,61.1418934 99.0481874,63.6454776 99.3695585,65.5079219 C100.165025,70.1167318 98.6301581,74.3886069 97.618052,78.7976771 C97.1047104,81.0342692 96.3381739,83.1865717 95.6205272,85.3653266 C94.993932,87.2678983 94.456594,89.260364 93.5916055,91.0694546 C92.8582602,92.6034829 91.9212827,94.1157661 91.2760734,95.7071831 C90.9289119,96.5635309 90.3662319,99.5022385 89.0484532,98.5793107 C88.688957,99.5194999 88.6014938,99.4394696 88.9858834,100.092491 C89.2641958,100.565275 90.2079011,101.221659 90.6532907,101.606567 C91.840099,102.63284 93.3433445,103.478427 94.7355791,104.196907 C97.285692,105.513038 100.019253,106.497613 102.645392,107.697397 C103.806409,108.228243 105.065431,108.85526 104.804835,110.374044 C104.586626,111.647133 103.849917,112.612654 102.700785,113.179144 C101.622072,113.711111 100.078907,114.121799 98.8920991,114.288585 C98.1879084,114.38767 98.0264378,114.094674 97.4523205,113.993347 C96.8133906,113.880811 96.0677109,114.098485 95.4085971,114.09288 C92.4496501,114.0671 89.8589454,113.322616 87.4678363,111.606782 C86.6133882,110.993663 85.3554881,109.330286 84.2373048,109.33051 C83.6656543,109.33051 83.7863087,109.677757 83.2835074,109.881532 C82.6629673,110.132832 81.5938979,109.658478 80.9838982,109.547063 C79.6842848,109.309886 78.3626937,109.068899 77.4972566,107.949594 C76.5616246,106.739946 76.8942091,105.241562 77.2963155,103.898307 C77.7495543,102.384006 78.5120538,100.847736 78.8361162,99.310569 C78.9150573,98.9366454 78.987719,98.239686 78.9076566,97.8592613 C78.7829655,97.269009 78.1870944,96.9168303 78.1691533,96.277708 C78.1635466,96.0833485 78.441859,95.8268925 78.4905244,95.6262561 C78.5979471,95.1855283 78.5813516,94.7282118 78.6255318,94.2796379 C78.7044728,93.479558 78.8870243,92.7128801 79.0128367,91.9222157 C79.2989983,90.1227645 79.863248,88.5176727 80.4095567,86.7839049 C80.9394938,85.1012486 81.443865,83.8490082 82.46853,82.3920961 C82.9989156,81.6375237 84.7732971,78.9492194 83.9067387,78.1755921 C82.7208276,80.5049925 81.3339753,82.3217052 79.5190019,84.1760793 C78.1308041,85.5946574 76.7735546,87.5014884 75.0361769,88.51162 C73.125891,89.6224063 70.7915208,90.2758759 68.682088,90.8632138 C67.6787282,91.1423114 66.846258,91.7617065 65.7646298,91.8762598 C64.5923987,92.0002285 63.399311,91.8540665 62.2513006,91.5926787 C61.9281354,91.5191493 60.9960916,91.0226022 60.7036506,91.0542108 C60.2728384,91.1010634 59.6531952,91.868862 59.1804454,92.009868 C58.0297438,92.3530796 57.2439207,91.6973682 56.3710828,91.0914238 C55.4237892,90.4336949 55.137179,90.2702715 54.0441134,90.1911377 C52.7052538,90.0942942 51.4031735,89.6224063 50.0862918,89.3334449 C47.770984,88.8254647 45.8030622,87.796054 43.6985632,86.7184458 C41.286149,85.4834668 39.2226903,83.7801866 37.4043529,81.7682176 C34.7313433,78.8102309 31.0087751,70.6137274 35.3752069,67.7438414 C32.804686,67.3948012 30.4503562,66.272358 30.1370587,63.3630173 C29.9733454,61.8406461 30.281485,60.1544033 30.6643047,58.6869549 C30.8390068,58.0168964 31.0473487,57.3510973 31.2469442,56.6879881 C31.3972015,56.4640376 31.4768154,56.2190145 31.4851131,55.9526948 C31.5772858,55.6076897 31.444297,55.4357477 31.0861464,55.4373168 C30.4090916,54.6457557 29.9000109,53.9470027 29.7632095,52.8229902 C29.7201507,52.4667765 29.6815772,51.9206866 29.9349962,51.6178265 C30.0522866,51.4960995 30.1937977,51.4147241 30.3590806,51.3739242 C30.7558046,51.3965659 30.867937,51.2010855 30.6954775,50.7877071 C30.8881208,50.2019384 30.6024077,49.7455185 31.3283522,49.5009438 C31.5611388,49.5504863 31.7928042,49.6047366 32.0235724,49.6632462 C32.3180318,49.7975271 32.5095538,49.7002351 32.5985869,49.3722673 C33.2825939,49.1046027 32.9670536,48.7089341 33.8964061,49.0532666 C34.4588616,49.2617492 34.9939571,49.6206532 35.4034642,50.0577939 C35.9172544,49.7280328 34.7488358,47.6896113 34.7098139,47.0392802 C34.6174167,45.5063728 35.2511885,44.2388884 36.0758094,42.9796985 C37.6786285,40.5328305 39.9158921,38.4287257 42.121983,36.5355694 C46.3478009,32.9099902 50.7871185,29.4583706 55.5585722,26.5698783 C53.5902019,25.2028602 51.2905927,24.8322993 48.9483732,25.4676107 C46.7891536,26.0533795 45.0389927,27.117089 43.0513355,28.0476386 C41.2101232,28.9093665 39.2556572,29.2633385 38.6685326,26.9117448 C38.0107644,24.2776908 40.1094325,23.2998403 41.9919096,22.1186632 C41.5218509,21.7680537 39.9744253,22.0186811 39.3890946,22.0601536 C38.0854446,22.1522893 36.8387576,22.446631 35.5718869,22.7068978 C34.9643542,22.8315391 34.4061595,22.8035171 33.8042333,22.9256925 C32.9094176,23.1072741 31.9751313,23.3108249 31.0697752,23.5695226 C28.915938,24.1855549 26.7780235,25.1203638 24.9168517,26.3800021 C23.3082016,27.4681467 22.192261,29.0046409 20.8962358,30.4198564 C19.418108,32.0334667 18.001877,33.6210726 15.8105876,34.2117733 C14.784577,34.488405 13.5809489,34.7394808 12.8534346,33.8230543 C12.176604,32.9709658 12.1389276,31.9440209 12.1611298,30.9020564 C12.2100194,28.6006778 13.3219233,26.1136825 14.6152573,24.23308 C16.0191536,22.1917441 17.899388,21.0226725 19.6760122,19.3794712 C17.1081825,19.5630702 14.6264705,20.9166378 12.2649643,21.8521194 C11.7679939,22.049169 11.266314,22.2704295 10.7666525,22.4526837 C10.2337998,22.6470431 9.88080732,22.5280064 9.37038109,22.6170038 C8.2053265,22.8203304 7.20465786,23.3112731 6.07144885,22.5284548 C3.92747928,21.0477802 6.07548561,18.0355431 7.55159519,17.1112705 C9.60765303,15.8240587 11.6993689,14.7401735 13.9644414,13.8219534 C12.7381626,12.4919243 13.7854782,10.5938362 14.9157718,9.65028439 C16.3459072,8.45632936 18.1669357,7.77214783 19.8901849,7.13302544 C21.2530409,6.62751124 22.591452,6.14217278 24.0072344,5.83796756 C25.4954543,5.51829429 27.2357476,5.02981737 28.7459454,5.0766699 C30.1621764,5.12060817 31.4180581,4.8711016 32.8524545,4.83119848 C34.0459907,4.79802061 35.2422179,4.826715 36.4355299,4.79577887 C39.6463262,4.71283419 42.8690085,4.92938706 46.0069186,5.16028711 C43.5207214,-2.109702 59.8971951,0.135408736 63.3910133,1.08501323 C66.5661514,1.94808626 70.2041719,2.94925095 72.8711264,4.99708786 C74.0009715,5.86442018 75.0740775,6.85056518 76.0765403,7.86249027 C77.5555653,9.35549451 78.3743553,11.3107472 79.1565902,13.2406681 C81.1408834,12.2686462 83.038162,11.2094202 85.2092676,10.7274444 C87.275193,10.2690069 89.3913538,9.64759429 91.4693896,9.3012442 C93.0493336,9.03783881 95.3424392,8.85917148 96.672104,9.97466534 C98.1161437,11.1863302 98.8685515,13.0718645 99.7306246,14.6865957 C103.870549,10.7586046 108.488157,7.89297804 114.390577,8.08352664 C120.166288,8.27004009 123.964433,13.2574813 124.664587,18.6621117 C125.435833,24.6173157 122.783007,30.8401842 119.186924,35.4519083 C117.574462,37.5201451 115.905933,39.5175427 113.7355,41.060538 C112.659254,41.8254225 111.523803,42.6633878 110.343722,43.2605895 C109.755252,43.5582936 109.111837,43.8273035 108.493988,44.0564102 C108.215227,44.1597547 107.928168,44.2635476 107.638194,44.3337143 C106.810209,44.534575 106.971007,44.2664619 106.663092,44.9912191 C106.413261,45.579678 106.443985,46.5920514 106.337011,47.2378991 C106.214787,47.9761066 106.142125,48.7244021 105.96361,49.4525219 C105.65435,50.7146262 105.332306,51.9457942 104.945001,53.1783073 C104.211655,55.5108463 103.224891,57.8617674 102.016105,59.9894105 C103.041219,60.4346218 104.476736,60.4794567 105.572269,60.61441 C106.757956,60.7603477 107.945213,61.0670189 109.176874,61.4113514 C111.644681,62.1013615 113.849875,62.6837677 116.19658,63.7167651 C118.632766,64.7892174 120.804096,66.3904981 123.149904,67.6649319 C125.307105,68.8369179 127.48763,70.3048144 129.490985,71.7117356 C129.967548,72.0464286 130.26268,72.3374075 130.642135,72.761322 C131.030337,73.1944277 131.153907,73.2791659 131.617687,73.6544346 C131.826925,73.8234624 132.435131,74.6766716 132.673973,74.7080562 C133.101645,74.7647724 133.035936,74.4455474 133.37166,73.9998879 C134.072711,73.0695624 135.050505,72.3488403 135.746622,71.3949766 C136.327243,70.5996043 136.932757,69.7941443 137.553298,69.1101869 C139.055198,67.4548802 140.299642,65.6202335 141.367366,63.635838 C141.923093,62.6028405 142.5082,61.6196098 143.111696,60.6446735 C143.712501,59.6739967 144.780673,58.3928375 145.977124,58.4502263 C145.880915,57.9559209 145.575242,57.8736488 146.102713,57.5714611 C146.442473,57.3766532 147.10383,57.6904979 147.365771,57.8882201 C148.058712,58.4118924 148.089473,59.4278526 148.045741,60.1909438 C147.93316,62.1576293 147.521635,64.0989832 146.947966,65.9585133 C146.258577,68.1939844 145.394485,70.1662745 144.451452,72.2997462 C143.700615,73.9994396 142.768347,76.2470163 140.899998,77.0226611 C142.154759,78.814042 141.55216,80.2738683 140.713634,82.1757674 C140.100719,83.5660995 139.291124,85.0028359 138.058117,85.9228493 C136.668125,86.9601061 135.160619,86.0802201 133.706936,85.3946934 C132.82894,84.9804185 130.144044,84.0032404 130.690128,82.7288066 C130.019353,82.639361 129.597511,82.152229 128.987063,82.0022561 C128.340732,81.8435403 128.451743,82.1060491 127.76796,82.2044618 C127.24363,82.2797845 126.459376,81.8103625 125.96577,81.6422313 C125.141149,81.3617887 124.318995,81.0741723 123.495495,80.7905912 C121.177721,79.9923047 118.898968,79.2063479 116.558319,78.5667772 C112.203324,77.3768572 107.794507,76.7018669 103.454762,75.6392783 C102.58484,75.4263122 101.719852,75.2207439 100.814047,75.0501469 C100.62701,75.0149514 99.6566172,74.9609254 99.538654,74.7607372 C99.3321064,74.4099036 99.9669995,72.4465806 100.021496,72.0464286 C100.379198,69.4199965 100.262356,66.5447304 99.7584333,63.9481136 C99.5491945,62.8687118 98.6144597,61.470982 98.6225332,60.4173602 C98.6281397,59.7105372 99.2545108,58.9387033 99.6223047,58.29846 C100.531922,56.7153375 101.485047,55.0048837 102.158962,53.357423 C103.190579,50.8372498 103.822556,47.9924714 104.278262,45.2931825 C104.515534,43.8860373 104.791828,42.3605277 104.856416,40.9370175 C104.905754,39.8520116 104.816721,38.713876 104.974155,37.6026415 C104.373575,37.6595819 103.523836,37.9707365 102.98291,37.6376127 C102.2998,37.217285 102.116351,36.0172772 102.20359,35.3005904 C99.8647347,35.7088128 99.9423303,33.4908272 100.087205,31.7563867 C95.8600419,31.7563867 101.273565,25.4752326 101.949947,24.1263728 C102.260778,23.5063053 102.251583,24.2028163 102.114333,23.2437965 C102.054006,22.8221238 101.765826,22.3549434 101.602785,21.9673452 C101.24755,21.1210852 100.863385,20.2878275 100.453205,19.4668993 C99.5864225,17.7329071 98.6045921,16.0574246 97.5330557,14.442021 C96.5684938,15.114097 95.6990199,15.9096934 94.8934614,16.7633511 C95.410167,15.4120254 96.9889899,13.7378879 96.3137292,12.2034113 C95.6878066,10.7810221 93.5974363,10.879659 92.3628597,11.1397018 C89.0083099,11.8469733 85.7910099,12.8770566 82.5952395,14.0696666 C83.5851434,14.6372772 85.1007235,14.1987913 86.084348,13.7647889 C87.3023291,13.2272177 88.6120342,12.6631938 89.924655,12.3784918 C91.0695258,12.1301061 92.5729956,12.2148442 92.2422054,13.7567186 C91.9739849,15.0060448 90.7519671,16.209191 89.9457358,17.1433275 C88.1691116,19.2014763 85.9414914,20.7946867 83.7533418,22.3865521 C81.4012547,24.0979025 79.1348366,25.9572085 76.7529223,27.6187922 C72.4472663,30.6227346 67.8177722,33.2334744 63.3692596,36.037453 C61.0575401,37.4943651 58.4381296,38.6667993 55.9313,39.7466494 C53.1735182,40.9345517 50.5294386,42.2062954 47.6682709,43.144467 C46.0793561,43.6656735 44.5045702,44.0945199 42.9432401,44.6874622 C41.9645493,45.0589199 40.2603627,45.8034044 39.6138078,44.7002402 C38.3005142,42.4596129 43.0529054,39.5128351 44.35521,38.1429028 C45.253614,39.0153911 40.8232667,42.2665984 41.1699799,43.536997 C41.4424614,44.5352474 42.4962807,43.2462423 43.0051371,42.9740942 C43.8275154,42.5342632 44.8014964,42.3132268 45.6279115,41.8115236 C47.3231277,40.782337 49.3329869,39.5955555 49.7200676,37.4681366 C49.4507259,37.183883 49.4540899,36.9215985 49.7301595,36.6810588 C49.8530566,36.5348969 49.9506117,36.3743878 50.0223763,36.1993071 C50.1430306,35.8650625 50.1914719,35.446304 50.2560601,35.0918836 C50.4469093,34.0440906 49.96788,33.0631016 50.4155122,32.037726 C47.8030538,34.0171896 45.2917389,36.2531091 42.8118209,38.3959962 C40.5873404,40.318071 38.2662019,42.8348816 37.4487573,45.702974 C37.3440258,46.0703966 37.1699965,46.4873617 37.189059,46.8751842 C37.2262868,47.6364818 37.3023126,47.4723859 37.9156763,47.7171847 C38.5292642,47.9619837 39.4225101,47.9409112 40.0822966,47.9669155 C40.4583883,47.9814869 42.1379059,47.5833524 41.8039758,48.4085399 C41.6115569,48.8842389 40.447175,48.8663048 40.0302672,48.9102431 C38.9840728,49.0207613 38.4166833,48.9073289 38.912308,50.0414292 C39.1345543,50.5496335 39.5846534,50.893966 39.9378701,51.2873928 C40.9205976,52.3818142 41.4543474,54.0604353 42.2273873,55.3463019 C43.1082988,56.8110601 44.076449,58.2040824 45.1051508,59.5684102 C45.5296835,60.1313132 46.0970731,61.1891941 46.6855434,61.5909154 C47.2349916,61.9659599 46.5884368,61.9350237 47.5011938,61.7825849 C47.8990391,61.7164534 48.2596566,61.4575315 48.6402336,61.3649472 C50.9156222,60.810563 53.2544778,60.1857878 55.6076862,59.5016061 C58.6175412,58.6264278 61.7763082,57.8801498 64.6480164,56.619839 C67.2205555,55.4904464 69.7740322,54.14607 72.3734832,53.0023301 C73.1326189,52.6685339 73.8908575,52.4472733 74.4808976,51.8328101 C75.1931621,51.0914641 75.7827537,50.1207871 76.4396247,49.3238456 C77.5566867,47.9682605 78.5862854,46.5893613 79.7887921,45.3046154 C80.6838323,44.348734 82.2700557,42.5717004 83.5328897,42.1901549 C85.9322965,41.4653977 84.6479332,45.1198954 84.3377752,46.0434956 C84.9018008,46.1714995 85.1982786,45.4480873 85.8603076,45.6561215 C86.6528587,45.905404 86.7349396,46.959474 86.8340646,47.619893 C86.8603034,47.7958702 86.6221345,48.1247345 86.694572,48.2816569 C86.7192411,48.3352347 87.2363953,48.6410092 87.3361929,48.7826876 C87.6983803,49.2976173 87.6270642,49.9237375 87.4898143,50.4790184 C86.7797925,53.3551812 84.2559187,55.455475 82.3996806,57.5770655 C83.2301324,57.4199189 83.8457388,56.9466858 84.6295436,56.712199 C85.3653557,56.4920594 86.1049803,56.5034924 86.8466234,56.4404992 C87.6230274,56.3743675 88.3689314,56.083837 89.1632766,56.0690414 C89.9968681,56.0535734 90.795026,56.2909746 91.6216652,56.3851279" id="ink-layer" fill="#1A1A1A"></path>
                                <path d="M3.83250655,30.514619 C3.37477268,30.8138146 3.24574452,31.1073435 3.22994135,31.7975333 C3.22362009,32.0806357 3.24314165,33.1366599 3.6387784,33.0967671 C4.0100597,33.0593676 3.83250655,30.8777337 3.83250655,30.514619 M1.46796319,32.2346476 C1.68125123,30.022495 2.49059284,27.7733386 4.39450559,26.3950044 C4.86535333,26.0541212 5.39799695,26.0662315 5.9140387,25.8511612 C6.22417103,25.7219844 6.71415706,25.121402 7.06625525,25.1924941 C8.36235473,25.4546601 6.86495746,27.176793 6.6456743,27.629809 C5.96615015,29.0332609 6.01203591,30.2664956 6.03232709,31.7805103 C6.04777606,32.9312154 6.28688924,34.8711099 5.70674579,35.9125978 C5.08832578,37.0215894 3.74703229,36.3014738 2.99833366,35.6450493 C2.05341002,34.8163891 1.33975979,33.4968124 1.46796319,32.2346476" id="ink-layer" fill="#1A1A1A"></path>
                                <path d="M24.2205566,38.7716035 C24.2205566,40.006006 25.2225249,39.1702997 25.1867318,38.2923322 C25.134346,36.9996463 24.1738596,37.7956453 24.2205566,38.7716035 M29.5470902,31.9476519 C28.4504751,32.9338495 27.6046373,33.4871536 27.3932904,35.0035169 C27.2333158,36.1521339 27.3923892,37.2897434 27.3991487,38.4466723 C27.4106398,40.3860448 25.8444652,42.4249355 24.1590984,40.2018346 C22.929772,38.580337 23.3707162,36.0306003 24.3731491,34.4010152 C24.8992628,33.546011 25.6502425,32.7002173 26.5177108,32.167356 C27.1702272,31.7663622 29.0056549,30.977404 29.5470902,31.9476519" id="ink-layer" fill="#1A1A1A"></path>
                                <path d="M14.2329315,61.8365097 C14.1057522,62.1373171 13.807338,63.365307 14.4162193,63.0875445 C14.953822,62.8421426 14.6055336,62.0282223 14.2329315,61.8365097 M11.0154227,58.0451883 C10.9214171,57.5833904 10.9597239,54.6885645 11.75712,54.9056318 C12.3834569,55.0758501 12.486929,56.557619 12.742087,57.0734048 C13.6922697,58.9937703 15.8731108,60.1897599 16.6251553,62.1719213 C17.4646009,64.385428 14.9266707,64.45414 13.5799914,63.5577613 C11.9854193,62.4962953 11.0627557,59.897511 11.0154227,58.0451883" id="ink-layer" fill="#1A1A1A"></path>
                                <path d="M9.06058668,46.1755644 C9.4066637,45.7083456 9.44165665,45.4587216 9.2443799,45.0453931 C8.99220597,45.3196745 9.03699052,45.7116502 9.06058668,46.1755644 M9.31100097,48.2656391 C7.50693317,48.467617 7.41662044,45.143 7.72560805,44.0015573 C7.9716173,43.0925405 8.50059185,42.1156553 9.04509231,41.3749145 C9.15508578,41.2254649 10.198165,39.8822768 10.402626,39.8790228 C11.1872315,39.8667043 10.9716181,40.7531758 10.8869909,41.0832204 C10.6204262,42.1228605 10.5148062,42.9919002 10.5865316,44.1447316 C10.6635051,45.3782148 11.2475858,48.3065461 9.31100097,48.2656391" id="ink-layer" fill="#1A1A1A"></path>
                                <path d="M91.2249363,19.4741466 C88.6452829,21.6374299 86.1962134,23.9794677 83.3912519,25.8717291 C82.0186543,26.7977389 80.5838095,27.6170296 79.2141438,28.558158 C78.5165684,29.0375042 77.8047843,29.4666036 77.0309785,29.8189986 C76.3473861,30.1302624 75.9003785,30.1707268 76.4675956,29.4319199 C76.8467175,28.9383444 77.6965282,28.5943981 78.2130002,28.2435593 C79.0077806,27.7032941 79.7583564,27.1038891 80.5944095,26.6245429 C82.0682717,25.779017 83.5331125,25.09646 84.891727,24.0595069 C86.0976552,23.1395001 87.3416986,22.2410595 88.4925966,21.2632464 C88.9860642,20.8439297 90.6225361,18.9187631 91.2249363,19.4741466" id="ink-layer" fill="#1A1A1A"></path>
                                <path d="M91.277106,27.2855646 C92.4371686,28.2779267 89.5346009,30.9964225 88.8725849,31.6125535 C88.1746182,32.2623274 87.4058466,32.8419566 86.6467204,33.4176278 C86.3795025,33.620366 84.9215328,34.9770851 84.5515053,34.8675801 C83.8213147,34.6514285 84.7799226,33.7712102 85.0291652,33.5416455 C85.8354218,32.7984184 86.6587769,32.0769604 87.4470582,31.3137234 C88.1579583,30.6259084 88.9278259,29.9888882 89.6152704,29.2788644 C90.1722845,28.703633 90.64008,27.7288622 91.277106,27.2855646" id="ink-layer" fill="#1A1A1A"></path>
                                <path d="M5.32808058,67.2865923 C5.02518035,66.5846376 4.48271009,67.3638915 4.75772179,67.7143291 C5.01782089,68.0461976 5.28934653,67.4213262 5.32808058,67.2865923 M3.55201987,65.9005982 C3.71439914,64.8686194 4.08967572,64.2950587 5.05786223,65.1759532 C5.72316623,65.7813664 7.06121667,67.5024791 6.93424509,68.4408373 C6.76758078,69.6716792 5.41193927,69.3223775 4.70919781,68.6788704 C3.98886525,68.0192217 3.67087248,66.8157127 3.55201987,65.9005982" id="ink-layer" fill="#1A1A1A"></path>
                                <path d="M5.67368652,86.211877 C4.48763942,86.1215875 3.47577333,85.21109 2.97208488,84.1439677 C2.54830424,83.2465991 2.14719405,81.8001219 3.63603783,82.2718392 C4.60637879,82.5793308 8.34700619,86.3565248 5.67368652,86.211877" id="ink-layer" fill="#1A1A1A"></path>
                                <path d="M20.047472,80.361712 C19.1309622,80.5703528 18.2242545,79.9667037 17.6606253,79.2860077 C17.3099724,78.8621352 16.4937126,77.3759678 16.9049614,76.7641368 C17.47817,75.9109371 18.3436637,77.625973 18.6421866,77.9655255 C19.1104666,78.4971276 20.6416218,79.513967 20.047472,80.361712" id="ink-layer" fill="#1A1A1A"></path>
                                <path d="M20.8730104,57.1543779 C20.1545851,56.8210119 19.4875226,56.4196525 19.1986355,55.6233149 C19.0148573,55.1161147 18.8605529,53.5953938 19.6765019,53.6023867 C20.6203154,53.6107969 22.781659,57.0021078 20.8730104,57.1543779" id="ink-layer" fill="#1A1A1A"></path>
                                <path d="M15.8358426,41.3323944 C16.7978551,41.3150117 17.0256107,41.8455318 17.1593989,42.6078213 C17.2502098,43.1251304 17.6909096,44.8812471 17.2332131,45.2409532 C16.5793263,45.7550176 15.539129,44.5771657 15.3288557,44.1147858 C14.8954402,43.1629088 15.4946949,42.2265606 15.8358426,41.3323944" id="ink-layer" fill="#1A1A1A"></path>
                                <path d="M32.3659533,93.9879546 C32.8343669,94.2010747 33.9000137,94.6736957 33.4927778,95.406977 C33.0670731,96.1738846 31.844673,95.4285442 31.3880333,95.0934425 C31.1968817,94.9531404 29.9823308,94.0347992 30.0331199,93.7268303 C30.1402386,93.0723963 31.8144304,93.9264999 32.3659533,93.9879546" id="ink-layer" fill="#1A1A1A"></path>
                                <path d="M1.50584542,46.0960663 C1.82592731,46.8976405 2.18622402,49.6510289 0.500708785,48.1641768 C-0.0136667897,47.7103756 -0.0912907399,47.1436263 0.0859350261,46.5206262 C0.342187584,45.6177112 0.715109877,45.7967316 1.50584542,46.0960663" id="ink-layer" fill="#1A1A1A"></path>
                                <path d="M90.827353,35.842576 C90.4540783,35.0800694 91.3756412,34.5882342 91.8680041,34.0968313 C92.1895204,33.7757873 93.5413799,32.0347989 93.9846161,32.1331659 C94.8963099,32.335521 91.2756335,35.5025071 90.827353,35.842576" id="ink-layer" fill="#1A1A1A"></path>
                                <path d="M15.8237219,91.0733267 C16.7031974,90.9322203 16.9083642,91.9091113 17.4750046,92.3348883 C17.7179768,92.5175691 18.5521298,92.6781315 18.3843265,93.065816 C17.9434834,94.0840764 15.7806104,91.7579696 15.8237219,91.0733267" id="ink-layer" fill="#1A1A1A"></path>
                                <path d="M23.2502493,68.0027982 C23.854722,67.7496926 25.5994954,69.1089237 25.0985451,69.6961287 C24.3496743,70.5745668 23.2929022,68.4833758 23.2502493,68.0027982" id="ink-layer" fill="#1A1A1A"></path>
                                <path d="M35.9922103,87.6666991 C35.551573,87.7104568 33.692061,87.1259648 34.3809956,86.3434009 C34.8646771,85.7937882 36.1503413,87.1690882 35.9922103,87.6666991" id="ink-layer" fill="#1A1A1A"></path>
                                <path d="M13.7241058,83.9117301 C13.2866368,84.0865878 11.7088749,83.7268071 12.2049483,83.0415859 C12.6774926,82.389323 13.7247587,83.3701841 13.7241058,83.9117301" id="ink-layer" fill="#1A1A1A"></path>
                                <path d="M26.6409106,86.8676384 C27.1523512,86.8145843 27.521829,87.1229755 27.609671,87.6451632 C26.9700061,87.7363711 26.7726736,87.5842074 26.6409106,86.8676384" id="ink-layer" fill="#1A1A1A"></path>
                                <path d="M93.1624571,11.0579998 C93.3785573,11.0589685 93.5942475,11.0600987 93.8082973,11.0610674 C93.591992,11.0599372 93.3773272,11.0589685 93.1624571,11.0579998" id="ink-layer" fill="#000000"></path>
                                <path d="M89.7717957,56.0235608 C89.4487884,56.0238837 89.1257809,56.0245295 88.8030353,56.0248524 C89.1260427,56.0242066 89.4490501,56.0238837 89.7717957,56.0235608" id="ink-layer" fill="#000000"></path>
                                <path d="M45.7156411,3.39051394 C45.7007868,3.71379194 45.6859325,4.03706994 45.6707552,4.35923221 C45.6852866,4.03567529 45.7004639,3.71295514 45.7156411,3.39051394" id="ink-layer" fill="#000000"></path>
                                <path d="M145.767049,58.2845492 C145.870151,58.6437801 145.71929,58.7032794 145.314058,58.4630473 C145.464918,58.403548 145.615984,58.3440485 145.767049,58.2845492" id="ink-layer" fill="#000000"></path>
                                <path d="M136.595214,86.4565717 C136.757275,86.4575404 136.919335,86.4586706 137.079595,86.4596393 C136.917084,86.4586706 136.756149,86.4575404 136.595214,86.4565717" id="ink-layer" fill="#000000"></path>
                                <path d="M105.917802,60.4682082 C105.647029,60.6745452 105.37769,60.7036068 105.110502,60.4572294 C105.379602,60.4611043 105.648702,60.4646563 105.917802,60.4682082" id="ink-layer" fill="#000000"></path>
                                <path d="M99.8734639,32.9364212 C99.8666826,33.2059588 99.8597398,33.4752269 99.8526356,33.7436864 C99.8594169,33.4738791 99.8665211,33.2051502 99.8734639,32.9364212" id="ink-layer" fill="#000000"></path>
                                <path d="M113.829345,8.02416558 C113.560245,8.02400413 113.290901,8.02368123 113.022045,8.02335832 C113.291389,7.92261162 113.560489,7.95570949 113.829345,8.02416558" id="ink-layer" fill="#000000"></path>
                                <path d="M34.8753739,4.73913123 C34.6063515,4.75495362 34.3370959,4.77077602 34.0680736,4.78659842 C34.3370959,4.77077602 34.6063515,4.75495362 34.8753739,4.73913123" id="ink-layer" fill="#000000"></path>
                                <path d="M41.4952365,4.79031184 C41.2799565,4.77206765 41.0644864,4.753662 40.8493963,4.73541781 C41.0644864,4.753662 41.2797664,4.77206765 41.4952365,4.79031184" id="ink-layer" fill="#000000"></path>
                                <path d="M45.0473579,5.04618762 C44.832156,5.12642978 44.616954,5.17389697 44.4015177,5.04731779 C44.616954,5.04699488 44.832156,5.04651052 45.0473579,5.04618762" id="ink-layer" fill="#000000"></path>
                                <path d="M25.8336103,5.48827335 C25.5643259,5.54300594 25.2953179,5.59773852 25.02631,5.65198674 C25.2955943,5.59773852 25.5646023,5.54300594 25.8336103,5.48827335" id="ink-layer" fill="#000000"></path>
                                <path d="M100.035489,71.2007928 C100.028062,71.3625703 100.020635,71.5241532 100.013531,71.6851519 C100.021119,71.5231798 100.028223,71.3619862 100.035489,71.2007928" id="ink-layer" fill="#000000"></path>
                                <path d="M11.0554128,58.1230961 C11.058642,58.2309718 11.0617097,58.3388476 11.064616,58.4460022 C11.0612254,58.3378381 11.0584805,58.2305393 11.0554128,58.1230961" id="ink-layer" fill="#000000"></path>
                                <path d="M146.767198,57.5438194 L145.959898,57.5480172 C146.228333,57.3474925 146.497623,57.3730021 146.767198,57.5438194" id="ink-layer" fill="#000000"></path>
                                <path d="M91.5478564,56.4003922 C91.3323537,56.3648725 91.1170736,56.3293528 90.9020162,56.2938332 C91.1170736,56.3293528 91.3325764,56.3648725 91.5478564,56.4003922" id="ink-layer" fill="#000000"></path>
                                <path d="M32.4534729,93.9636539 C32.184281,93.9113432 31.9153645,93.858548 31.6461726,93.8062372 L32.4534729,93.9636539 Z" id="ink-layer" fill="#000000"></path>
                                <path d="M86.7922117,47.6286482 C86.7872064,47.4669987 86.7822012,47.3053493 86.7773574,47.1442891 C86.7822012,47.3059386 86.7872064,47.4673917 86.7922117,47.6286482" id="ink-layer" fill="#000000"></path>
                                <path d="M35.6826742,4.79265291 C35.5211584,4.77279419 35.3596427,4.75293546 35.198294,4.73307674 C35.3596427,4.75293546 35.5211584,4.77279419 35.6826742,4.79265291" id="ink-layer" fill="#000000"></path>
                                <path d="M62.1621247,0.799919111 C62.0006647,0.750998838 61.8390407,0.702078566 61.6777445,0.653158293 C61.8392046,0.702078566 62.0006647,0.750998838 62.1621247,0.799919111" id="ink-layer" fill="#000000"></path>
                                <path d="M81.3758724,109.697495 C81.4838619,109.704115 81.5920262,109.710734 81.6987925,109.717193 C81.5902788,109.710573 81.4829882,109.703953 81.3758724,109.697495" id="ink-layer" fill="#000000"></path>
                                <path d="M7.26570289,23.0006008 C7.42779649,23.0047985 7.58989008,23.0091578 7.75008308,23.013517 C7.58717495,23.0091578 7.42643892,23.0047985 7.26570289,23.0006008" id="ink-layer" fill="#000000"></path>
                                <path d="M115.605406,8.1817945 C115.336306,8.1629045 115.067206,8.14401449 114.798106,8.12496303 C115.067485,8.14401449 115.336306,8.1629045 115.605406,8.1817945" id="ink-layer" fill="#000000"></path>
                                <path d="M30.5159521,7.42587135 C30.1382998,7.42651716 29.7611451,7.42716297 29.3857317,7.42780878 C29.7641305,7.42716297 30.1400413,7.42651716 30.5159521,7.42587135" id="ink-layer" fill="#000000"></path>
                                <path d="M106.798082,40.6861673 C106.802926,40.9556281 106.808254,41.225089 106.813583,41.4934325 C106.808739,41.2237854 106.803895,40.9548833 106.798082,40.6861673" id="ink-layer" fill="#000000"></path>
                                <path d="M87.0269746,98.4915239 C86.8109459,98.4882948 86.5953255,98.4847428 86.3811344,98.4811909 C86.5975716,98.484097 86.8121709,98.4879719 87.0269746,98.4915239" id="ink-layer" fill="#000000"></path>
                                <path d="M109.954304,12.9475344 C110.277149,12.9116918 110.599994,12.8758493 110.923064,12.8400067 C110.613088,13.114154 110.278277,12.931712 109.954304,12.9475344" id="ink-layer" fill="#000000"></path>
                                <path d="M85.2509139,98.5760445 C85.088928,98.5699093 84.9271172,98.5639356 84.7665337,98.5581232 C84.9290457,98.5642585 85.0899797,98.5700708 85.2509139,98.5760445" id="ink-layer" fill="#000000"></path>
                                <path d="M79.6682707,101.392512 C79.6763437,101.662086 79.6845782,101.931418 79.6928127,102.199777 C79.6849011,101.929717 79.6765052,101.661115 79.6682707,101.392512" id="ink-layer" fill="#000000"></path>
                                <path d="M104.303202,22.8613533 C104.518548,22.8413332 104.733895,22.821313 104.949042,22.8014543 C104.752473,22.9528972 104.521744,22.8642595 104.303202,22.8613533" id="ink-layer" fill="#000000"></path>
                                <path d="M33.7451534,65.813589 C33.9604335,65.8533065 34.1759366,65.892701 34.3909937,65.9320956 C34.1757137,65.892701 33.9604335,65.8533065 33.7451534,65.813589" id="ink-layer" fill="#000000"></path>
                                <path d="M67.3288468,23.3306445 C67.5974771,23.1017041 67.8666712,23.1265679 68.1361471,23.3280613 C67.866953,23.3287071 67.5980409,23.3296758 67.3288468,23.3306445" id="ink-layer" fill="#000000"></path>
                                <path d="M57.2258062,31.4833437 C57.2335563,31.3756605 57.2411449,31.2679775 57.2493794,31.1604377 C57.2419522,31.2682642 57.2338792,31.3758039 57.2258062,31.4833437" id="ink-layer" fill="#000000"></path>
                                <path d="M104.219081,28.4157359 C104.221341,28.6313572 104.22344,28.8469786 104.225862,29.0615481 C104.223763,28.8454009 104.221503,28.6305684 104.219081,28.4157359" id="ink-layer" fill="#000000"></path>
                                <path d="M32.9837412,62.1644483 C33.3380275,62.2846259 34.0505316,62.6473437 34.4633262,62.5992727 C34.793793,62.5605972 35.0662142,62.1589855 35.3848869,62.1594219 C36.2430832,62.1605151 36.0839782,63.1525266 35.6693336,63.6850226 C34.5479663,65.1254059 32.0422923,63.563534 32.9837412,62.1644483" id="ink-layer" fill="#000000"></path>
                                <path d="M36.4862737,56.9929248 C37.6565739,57.2949815 37.073715,59.86906 36.0899112,60.0460058 C34.9315248,60.2545238 34.7296778,58.1615683 34.95856,57.4050131 C35.5547074,57.7591403 35.1856092,59.0227359 35.936865,58.6735566 C36.4145619,58.4511374 36.3419336,57.4233909 36.4862737,56.9929248" id="ink-layer" fill="#000000"></path>
                            </g>
                        </g>
                    </g>
                    <g id="Group" transform="translate(226.042353, 57.660000)" fill="#1A1A1A">
                        <path d="M44.3916375,17.7337597 C44.3186671,18.04214 44.1389471,18.1936282 43.8330682,18.2670431 C43.3282469,18.387973 42.7747165,18.4067925 42.2596307,18.4692138 C41.3184796,18.5836219 40.3454155,18.6311367 39.4223671,18.8536176 C38.5582922,19.0617509 37.6942172,19.3727397 36.913937,19.8 C37.1690538,18.5832492 37.4583229,17.4013427 37.3512,16.1480708 C37.2724441,15.2279612 37.250609,13.8416479 36.3182293,13.3096687 C36.1023038,13.1863167 35.760593,13.2328999 35.5207796,13.2200429 C35.2087422,13.2034594 34.8963316,13.1887391 34.5842941,13.1715965 C33.9669376,13.137684 33.3527541,13.0728403 32.7372639,13.0128412 C31.52364,12.8945201 30.318974,12.7476901 29.112815,12.5708608 C28.9133126,12.5416066 28.5551788,12.5635937 28.4217417,12.3910499 C28.3232035,12.2641575 28.3702332,12.0636638 28.3776981,11.9211195 C28.4028925,11.4284566 28.3831102,10.9372844 28.3217105,10.4477891 C28.187527,9.3765639 27.8909796,8.32229498 27.5593464,7.29709396 C27.3913836,6.77890339 27.2118501,6.2646259 27.0427677,5.74680816 C26.9612124,5.49656372 26.7716013,5.15520273 27.0425811,4.97595075 C27.2118501,4.86396507 27.5074645,4.86489681 27.7043542,4.81589133 C27.9385689,4.75775554 28.1668117,4.68154565 28.3958008,4.60645361 C28.9366408,4.42906511 29.4767342,4.24925441 30.0170142,4.06981633 C32.0700787,3.38765327 34.1414324,2.75076892 36.1885248,2.05519006 C36.4749945,1.95792453 36.7595979,1.8560007 37.0458811,1.75873517 C37.169987,1.7168102 37.3855391,1.60855108 37.5191626,1.66687318 C37.675368,1.73544363 37.6451349,1.90705577 37.7572965,2.00916591 C37.8552749,2.09823288 38.0769856,2.10475447 38.2031442,2.1772378 C38.5233931,2.3615205 38.7240153,2.6829439 38.9753995,2.94231864 C39.2986344,3.27604 39.6601275,3.56914094 39.9792568,3.90901127 C41.2675309,5.28079072 42.2208127,6.93225512 43.0277803,8.62117228 C43.2450121,9.07600963 43.3862873,9.54668537 43.5221506,10.0305906 C43.6505487,10.4885958 43.8147788,10.9363526 43.8877494,11.4079601 C44.057765,12.5089984 44.0639235,13.6418994 44.2003466,14.7500184 C44.3143748,15.6786994 44.611482,16.8034018 44.3916375,17.7337597 M36.2283512,15.3761524 C36.2255878,16.1133541 36.1874528,16.8554255 36.0284649,17.5768943 C35.8646869,18.3208386 35.5688181,19.0331298 35.3048206,19.7444847 C35.0557456,20.4157577 34.854201,21.1078208 34.565333,21.762799 C34.2803336,22.4091617 33.9151955,22.9982113 33.6865696,23.6691099 C33.2175273,25.0446204 32.414297,26.2515635 31.8457721,27.5798752 C31.2649041,28.9375925 30.6180825,30.2340635 29.8962806,31.5211697 C29.5530656,32.1334443 29.2345369,32.8107108 28.8004977,33.3621139 C28.584952,33.6359423 28.3386404,33.9088343 28.0895652,34.1511968 C27.8723615,34.362468 27.7680889,34.2012051 27.505381,34.2491532 C27.122373,34.3188278 26.9248814,34.8235937 26.677096,35.0831877 C26.2073167,35.5748427 25.7275892,36.0606918 25.2130429,36.5038368 C24.6861533,36.957658 24.1039957,37.3369347 23.5634733,37.7737116 C23.0476374,38.1908225 22.5323541,38.5676645 21.9426431,38.8718351 C20.7781434,39.4724972 19.4393649,40.2093244 18.0957964,40.1462051 C17.4775303,40.117174 17.146474,39.7084916 16.8874507,39.162895 C16.6133208,38.5854576 16.7058028,37.8932073 16.7518594,37.2736282 C16.8069434,36.530433 16.9838015,35.8748929 17.3739945,35.2444506 C17.7586607,34.6228112 17.3795213,34.2371664 16.9961446,33.7191023 C16.1407781,32.5629168 15.000965,31.6623918 13.9613712,30.6854498 C13.4247176,30.1806839 12.8926698,29.6706736 12.3609901,29.1606633 C12.0671479,28.8785939 11.7736741,28.596337 11.4803922,28.3140801 C11.2652072,28.1071166 11.0579518,27.9673929 10.9803922,27.6767077 C11.5653132,27.3564296 12.1751051,27.0835376 12.7141537,26.6830962 C13.8145422,25.8657312 14.8242911,24.8681864 15.8614899,23.9689727 C16.3598242,23.5368782 16.7535176,23.0015828 17.1538432,22.4792108 C17.5401674,21.9750068 17.9828652,21.4988973 18.3163163,20.9549864 C19.0333283,19.7849409 19.8511124,18.6263204 20.4196373,17.3718039 C20.7029787,16.7466059 20.8494393,16.1086717 20.9977421,15.4409573 C21.0870922,15.0388302 21.1898909,14.6398872 21.2901105,14.2403822 C21.3547743,13.9830359 21.3733812,13.5393288 21.5356853,13.3265592 C21.8346859,12.9347336 22.7740601,13.5676108 23.1181963,13.6788652 C23.7659388,13.8880762 24.4409471,13.987531 25.110797,14.0927921 C26.5317408,14.3158631 27.9626327,14.5065316 29.3745496,14.7833568 C30.1142214,14.9283247 30.8555513,15.0890258 31.6062769,15.1648812 C32.3337897,15.2384889 33.0653557,15.2000931 33.7945268,15.1946614 C33.9507513,15.1933503 34.1414263,15.2214448 34.2462515,15.0759151 C34.3059413,14.9925678 34.2659638,14.8891797 34.3619462,14.8112641 C34.4872207,14.7097491 34.6508143,14.7642525 34.7945115,14.7797982 C35.0863273,14.8114513 35.3790641,14.829432 35.6706957,14.8663293 C35.7965228,14.8822498 36.0470718,14.8605233 36.1546603,14.9279502 C36.2679601,14.9989359 36.2289038,15.2130166 36.2283512,15.3761524 M15.5964085,34.8899861 C15.2510319,35.574955 15.0515892,36.5330271 15.0411119,37.2918924 C15.0354991,37.6991512 15.0901306,38.1054889 15.1750717,38.5035337 C15.2487867,38.8507174 15.450849,39.2502365 15.387424,39.6 C14.511447,39.2014022 13.6508119,38.772767 12.7574351,38.4130522 C11.9854828,38.1023559 11.4056766,37.5613097 10.7704905,37.047537 C10.0883437,36.4958024 9.47093148,35.88086 8.81553916,35.2998249 C8.11225056,34.6762212 7.37865255,34.0865249 6.66338987,33.4767422 C5.38983711,32.3909641 4.3205914,31.1708459 3.27510677,29.8735142 C2.35609824,28.7331891 1.03839093,27.2786667 1.10013214,25.735874 C1.12913189,25.0197616 1.1824537,24.2054281 1.5394302,23.564502 C1.83578809,23.0321171 2.37218838,22.4352339 2.87360179,22.0792049 C3.35574452,21.7368124 3.82909393,22.5970318 4.10019401,22.8992512 C4.68392917,23.5497598 5.27926408,24.1897644 5.87141845,24.8327175 C6.99772811,26.0557842 8.06659948,27.3398477 9.28477229,28.4768555 C10.5126742,29.6223406 11.7680789,30.7429476 13.0902764,31.78155 C13.7522172,32.301404 14.4815119,32.7860606 15.0822726,33.3748353 C15.3028572,33.5911802 15.7311167,33.82927 15.8783601,34.0992403 C16.036268,34.3900342 15.7197039,34.645262 15.5964085,34.8899861 M45.6608678,18.0160811 C45.4762399,17.9923038 45.4849874,18.0171958 45.4693536,17.8366375 C45.4449723,17.5568841 45.5398919,17.2266039 45.5683677,16.9462931 C45.7044193,15.6123552 45.6394644,14.214702 45.5227691,12.8805784 C45.2936591,10.2602572 44.7520589,7.68396091 43.3779575,5.41100959 C42.743671,4.36165524 42.0263763,3.37211522 41.1272452,2.53118256 C40.7127629,2.14368853 40.3081446,1.72628733 39.8497385,1.38987729 C39.619698,1.22083625 39.2848735,1.13557259 39.0754921,0.962630722 C38.962333,0.86900798 38.9122674,0.678418863 38.8167895,0.55897573 C38.4354358,0.0825029376 38.0047613,-0.0404697659 37.3965311,0.0107999509 C36.7654086,0.0642984876 36.104135,0.261575073 35.4953464,0.429872965 C34.2001586,0.788202768 32.9578281,1.39712176 31.7032139,1.87768132 C30.4428299,2.36028398 29.1967768,2.87465155 27.953888,3.39960743 C27.4135904,3.62772006 26.7614367,3.80697772 26.2818132,4.15137559 C25.9920291,4.35942601 25.9067877,4.61781728 25.9378692,4.96388696 C26.0480503,6.18655485 26.5031063,7.40086367 26.8492838,8.57040449 C27.2211455,9.82632339 27.5241439,11.1060194 27.6190636,12.4152513 C26.3350427,12.3214428 25.058839,12.224105 23.7807737,12.0630515 C23.1414622,11.9824321 22.4988002,11.9164875 21.8607915,11.8289948 C21.530806,11.7838553 21.3768873,11.6608826 21.1116708,11.4901698 C20.8788384,11.3402621 20.7587929,11.4671356 20.6594066,11.6950623 C20.1425598,12.879278 19.9389478,14.1710486 19.3791081,15.3467195 C19.1278502,15.8746475 18.8140571,16.367467 18.5527488,16.8901937 C18.2685482,17.4584317 17.9257209,18.017753 17.5694931,18.543452 C17.4040351,18.7875396 17.1916757,18.9850018 17.0083505,19.2138573 C16.8384256,19.4258088 16.716333,19.6697107 16.5603669,19.8915073 C16.234104,20.3549771 15.8387916,20.7634618 15.4386401,21.16303 C15.0369997,21.5640845 14.6478293,21.9710831 14.2642421,22.3890417 C13.8869832,22.7999414 13.4367663,23.1335652 13.0381037,23.5216164 C12.662892,23.8866335 12.3362569,24.2841584 11.9513669,24.641931 C11.580622,24.9867004 11.4069749,25.4652165 11.0081263,25.7752487 C10.7931612,25.9424322 10.5545592,26.0767361 10.3405248,26.2452198 C10.1637138,26.3843536 9.97908561,26.6276983 9.72801386,26.5810728 C9.44939693,26.5290602 9.22531209,26.1556838 9.05110652,25.9630514 C8.82646342,25.714877 8.6003314,25.4681886 8.37271027,25.2226147 C7.47897677,24.2579664 6.56235091,23.3122657 5.66098655,22.3539332 C5.22044773,21.8852625 4.7357992,21.4602451 4.30642732,20.9809859 C3.99337871,20.6317583 3.48137088,20.3830267 3.04306553,20.6220989 C2.60103779,20.8630288 2.07004608,21.0757232 1.7121432,21.4375824 C1.32427559,21.8295347 1.01494916,22.3392583 0.699108808,22.7891673 C0.370053935,23.2576523 0.239585898,23.8110295 0.153413861,24.367936 C0.0618442386,24.961437 -0.033633652,25.549551 0.0115927918,26.1519687 C0.0977648289,27.2923453 0.310310344,28.5649826 0.971770092,29.5253584 C1.28686608,29.9830693 1.71865732,30.3269097 2.10484994,30.7205338 C2.52305487,31.1474087 2.82195851,31.6612191 3.16683336,32.1456795 C3.85863002,33.1175723 4.7084399,33.9878549 5.57518649,34.8055674 C5.98855231,35.1954762 6.45663632,35.5242703 6.87223561,35.9154795 C7.31575226,36.3334381 7.76503846,36.7103438 8.26550697,37.0578996 C8.77751459,37.413257 9.20037235,37.8759836 9.66305918,38.2891123 C10.1395184,38.7145013 10.627331,39.1112833 11.1518086,39.4759289 C12.1579567,40.1756842 13.1810415,40.6311661 14.3507865,40.9829944 C15.6392741,41.3704882 16.8864438,41.8776113 18.167859,42.2827524 C18.7818589,42.4768709 19.3895307,42.2084487 19.9743101,42.012101 C20.5706287,41.8118524 21.1557805,41.5744521 21.7048255,41.2659059 C22.8185492,40.6398969 23.8881633,39.9135778 24.9836476,39.2541321 C26.1230556,38.5684944 27.0746714,37.7825466 27.9451404,36.7790746 C28.7746636,35.8224141 29.6525773,34.8726267 30.408026,33.8567088 C31.9416296,31.7934798 32.8690504,29.3527877 34.0073415,27.0681337 C34.6124077,25.8536392 35.225663,24.658092 35.7289232,23.396043 C35.9764589,22.7752354 36.1979381,22.143282 36.4506848,21.5247034 C36.557702,21.2625971 36.6461075,21.1606152 36.9329138,21.116033 C37.2642019,21.0643918 37.6029348,21.0417293 37.9355258,21.0021625 C39.251931,20.8457531 40.5368823,20.6133681 41.8415621,20.3887851 C43.0522528,20.1805489 44.2703882,19.9652538 45.3528444,19.3518766 C45.5804653,19.2227738 45.853499,19.0711941 45.9774527,18.8300786 C46.0338463,18.7199232 46.1726896,18.1617165 46.0941482,18.0723661 C46.0483635,18.019982 45.7395953,18.026298 45.6608678,18.0160811" id="Fill-56"></path>
                        <path d="M35.2389685,40.465839 C35.6573194,39.960096 35.9319022,39.230949 36.2360412,38.647484 C36.561709,38.0227643 36.8634763,37.4448246 37.0014061,36.7491975 C37.0678169,36.4143682 37.1075904,36.072172 37.1834882,35.7397371 C37.25519,35.4255352 37.3575426,35.1483528 37.3281686,34.8199695 C37.2975175,34.4772207 37.1389711,33.4447385 36.6211868,33.5587426 C36.3201493,33.6250454 36.3807216,33.9488241 36.3788972,34.1854884 C36.3767078,34.4565932 36.3453269,34.7267772 36.2659625,34.9864632 C36.078407,35.600501 35.6319593,36.14179 35.3491666,36.7178879 C35.0753137,37.2763049 34.7507405,37.7846266 34.3409647,38.2524298 C33.9466967,38.7025523 33.5060874,39.1289163 33.0435843,39.5075791 C32.637275,39.8401982 32.14704,40.0915965 31.8512936,40.5428239 C31.6745024,40.8130081 31.6449461,40.8938607 31.3198256,40.9682672 C31.0574668,41.0284923 30.8111635,41.1248155 30.5904026,41.2822846 C30.3402678,41.4607498 30.1625646,41.674208 29.8699196,41.7915271 C29.6152237,41.893744 29.345567,41.9545217 29.0884994,42.0501081 C28.4940871,42.2707492 27.9750256,42.6433342 27.3676597,42.8520039 C27.053486,42.9601145 26.7342038,43.0523859 26.4161987,43.1481567 C26.1618677,43.2247732 25.8610126,43.277263 25.6504689,43.4502027 C25.2970691,43.7408302 25.0991143,44.4823167 25.4081793,44.8683466 C25.7409625,45.2840283 26.5214707,45.0241581 26.9544174,44.9709317 C26.9600732,44.9992945 26.9653642,45.0276575 26.9712024,45.0560203 C27.7002605,44.9086808 28.4603344,44.8215661 29.1689584,44.5913481 C29.543522,44.4696087 29.8799542,44.2957479 30.2222247,44.1034697 C30.512133,43.9408437 30.8091565,43.8831971 31.119134,43.7793226 C31.3964534,43.6866828 31.6177615,43.5457893 31.791086,43.3050734 C32.0125767,42.996581 32.1063545,43.088484 32.4480774,43.0131567 C32.9970604,42.8919699 33.4701454,42.2652241 33.8478106,41.8865613 C34.3079418,41.4248357 34.8237194,40.968083 35.2389685,40.465839" id="Fill-71"></path>
                        <path d="M38.163801,44.0064843 C37.9904074,43.9612328 37.7022397,44.1644901 37.5733828,44.254619 C37.0598915,44.6136386 36.5284449,44.9453576 36.0091446,45.2952146 C35.5308602,45.6173972 35.058737,45.9496772 34.5880221,46.284014 C34.1959942,46.5622541 33.9389846,46.9044446 34.0768193,47.4302585 C34.1398395,47.6701658 34.2440516,47.9512107 34.5065183,47.8137736 C34.6990995,47.7127995 34.8652756,47.614817 35.0770444,47.5353465 C35.6098994,47.335081 36.1475072,47.1372464 36.6451554,46.8485349 C37.5077222,46.3485254 38.3157183,45.5742027 38.4313725,44.4836808 C38.3672963,44.3292277 38.3488126,44.0547274 38.163801,44.0064843" id="Fill-88"></path>
                    </g>
                    <g id="Group-6" transform="translate(193.101176, 0.560000)" fill="#1A1A1A">
                        <path d="M2.99509936,6.39275204 C3.41126014,6.17453106 3.8358804,5.97319512 4.25884544,5.76855559 C5.15479592,5.33449956 6.0371379,4.8710782 6.94338667,4.45812849 C7.35366281,4.27129168 7.78214489,4.15217863 8.20345492,3.99525773 C8.65087856,3.8287931 9.07862484,3.60892032 9.50802653,3.4020784 C10.4107811,2.96692116 11.3335808,2.5919628 12.271092,2.23847785 C12.5581565,2.13019325 12.8457729,2.023744 13.133757,1.9176618 C13.3548022,1.83635659 13.623661,1.68016982 13.8535333,1.65337398 C14.2182028,1.61079427 14.4920267,1.98116429 14.7404727,2.2039736 C16.0812722,3.40611612 17.0277945,5.18840711 17.6037626,6.87379257 C17.9180441,7.79347751 18.0607489,8.74307833 18.2284637,9.69671689 C18.4002243,10.6740312 18.5826509,11.6306063 18.5894552,12.6244386 C18.5962595,13.634789 18.7003457,14.6308237 18.6554745,15.6435599 C18.6387398,16.0212713 18.70715,16.7005276 18.4986097,17.0297863 C18.2869431,17.3632661 17.7567656,17.456501 17.415635,17.5796518 C15.5499911,18.2535858 13.6863701,18.978909 11.7936931,19.5719047 C9.8245147,20.1885764 7.85938212,20.8155257 5.89553655,21.45 C5.9755322,20.8935275 6.06913616,20.3372383 6.13184547,19.7787466 C6.19087655,19.2527405 6.14674119,18.7085645 6.14214375,18.1799889 C6.13221327,17.0184073 6.09396236,15.8632492 5.85986046,14.7218562 C5.4345046,12.6490321 4.74727821,10.6081428 3.59497424,8.81887754 C3.32482824,8.39968768 3.00282302,8.01738801 2.68192121,7.63674014 C2.56716888,7.5005585 2.18282235,7.17827418 2.19643086,6.96867925 C2.21463681,6.69393005 2.79612174,6.49718245 2.99509936,6.39275204 M25.4936956,6.1895256 C25.9281107,6.2092472 26.2092465,6.30822375 26.239494,6.76937706 C26.2780923,7.357154 26.2697417,7.9524878 26.2908965,8.54155496 C26.3317215,9.66826567 26.3725465,10.795345 26.3426699,11.9229773 C26.2901542,13.898269 26.0782354,15.8706118 25.4680871,17.7583545 C25.1732192,18.6708924 24.8202686,19.5677638 24.4391115,20.4480469 C24.0692742,21.3021573 23.5465285,22.0701932 23.0837215,22.8745391 C22.8558439,23.2702609 22.6003164,23.5917043 22.2861495,23.9240223 C22.1375093,24.0816105 22.0692203,24.1656576 21.8587859,24.1925674 C21.6455682,24.2196616 21.3770509,24.1651047 21.1629052,24.1498066 C20.1548988,24.0779243 19.1474491,23.9787634 18.1379583,23.9304732 C17.1371891,23.882736 16.1321518,23.9245751 15.1326814,23.8784968 C14.6630085,23.8567476 14.2206139,23.705426 13.7589203,23.6317004 C13.2938863,23.5574219 12.8238423,23.5247984 12.3562103,23.4724532 C12.1151572,23.4455433 12.1210955,23.5019435 12.0845386,23.2846374 C12.0648684,23.1688883 12.0984562,23.0192253 12.1047654,22.9007115 C12.1168275,22.6723468 12.1287037,22.4437975 12.1426215,22.215617 C12.1552399,22.0115814 12.1134872,21.6534595 12.1968072,21.460483 C12.2712202,21.2887025 12.4302522,21.2588436 12.59615,21.2138709 C13.5269601,20.9606237 14.4262235,20.6471059 15.3215899,20.2891683 C16.235142,19.9242269 17.1596428,19.5793755 18.0628032,19.1891831 C18.4521253,19.0210889 18.8911796,18.8671867 19.1860475,18.5499825 C19.4278426,18.2899158 19.5668332,17.9555704 19.6737206,17.6228839 C20.2621573,15.792647 20.077517,13.6835434 19.9051241,11.7983811 C19.7279066,9.86050503 19.4484408,7.87175834 18.7327043,6.05 C20.9849454,6.05 23.2434957,6.0870471 25.4936956,6.1895256 M0.530293179,7.89534331 C1.15850808,8.12697025 1.55433393,8.66682083 1.92034222,9.1872008 C2.37598906,9.83597667 2.80591851,10.4919163 3.16279535,11.1998387 C3.91232978,12.6873209 4.4071121,14.3263433 4.68944543,15.9609571 C4.95947905,17.5213623 5.09328456,19.2614116 4.78262476,20.8267762 C4.69950879,21.2453946 4.48258732,21.581171 4.36126778,21.9777472 C4.27964271,22.2442744 4.3364821,22.6318499 4.40990743,22.8967239 C4.51538648,23.2765847 4.87953114,23.1470868 5.18292311,23.0855521 C5.62571126,22.9957302 6.06868566,22.9068265 6.51091482,22.8151678 C8.17845198,22.4689212 9.82958945,21.8666176 11.5273167,21.7448344 C11.3827024,22.1889851 11.3018228,22.5919902 11.0099852,22.9727696 C10.7369698,23.328935 10.3733841,23.6375261 10.2162837,24.0666144 C10.0854599,24.4240658 10.0603015,24.9246078 10.1933616,25.2873859 C10.333317,25.6683487 10.6754715,25.6738593 11.0343982,25.7166579 C12.0437166,25.8371553 13.0368218,26.0006352 14.05434,26.0551896 C14.2731251,26.0667617 14.491351,26.0910082 14.7073408,26.0502302 C14.8812133,26.0173504 15.0030918,25.966286 15.1788281,25.9982473 C15.4115901,26.0403112 15.6167709,26.150706 15.8609006,26.1753197 C16.0908673,26.198464 16.3225111,26.1911166 16.5530367,26.1826671 C17.4050684,26.151257 18.238278,26.2386912 19.0912415,26.1569512 C19.339844,26.1330721 19.8066724,25.9943898 20.0390616,26.1341743 C20.2844958,26.2818571 20.0921738,26.579978 20.214425,26.7849707 C20.3754388,27.0544367 20.9285514,26.9163056 21.195976,26.9016107 C21.577825,26.881038 21.9164385,26.8147277 22.258593,26.641329 C22.9505426,26.2910414 23.5757759,25.8246649 24.0845351,25.242934 C24.6171481,24.6343852 25.0032831,23.9235237 25.3840139,23.2176217 C25.7813304,22.4815955 26.1793926,21.7628356 26.4798026,20.9810718 C26.7867354,20.1824087 27.0875183,19.358581 27.2613907,18.5206094 C27.4350772,17.6839237 27.5450287,16.8341962 27.7090243,15.9951225 C27.8801015,15.119863 27.9101053,14.227888 27.9553904,13.3399541 C28.0021665,12.4193243 28.0226659,11.514675 27.9641494,10.5938615 C27.9067508,9.68939594 27.8051854,8.80219677 27.6974701,7.90342545 C27.669889,7.67363536 27.6840522,7.43576312 27.646967,7.20817724 C27.6218084,7.05535121 27.5407425,6.91023998 27.5319836,6.75502604 C27.5140932,6.44643503 27.8016447,6.24805508 27.7941902,5.92532033 C27.7768588,5.17570133 26.9665714,4.89668362 26.3644467,4.71740693 C25.5815541,4.48431051 24.7082775,4.34379138 23.8899765,4.40165219 C22.1288875,4.52619071 20.3286628,4.54235501 18.6583303,5.17496659 C17.7928807,3.71540456 16.9865069,2.13203878 15.5699948,1.10836157 C15.4102855,0.992639931 15.236972,0.913839009 15.133543,0.743195542 C15.0452089,0.596798491 15.0062599,0.450034081 14.8881086,0.318148148 C14.5973891,-0.00623977922 14.2390215,-0.0464668264 13.8322006,0.0383957091 C12.9468106,0.222815577 12.1009287,0.424869209 11.2615693,0.754767692 C10.888852,0.901164744 10.493399,0.970046668 10.1190046,1.11313737 C9.75914591,1.25053386 9.41512797,1.42301418 9.06924621,1.5907187 C8.31225748,1.95808896 7.52955117,2.2699863 6.77330769,2.64029551 C5.25448482,3.38422028 3.75299314,4.16396365 2.35493062,5.11398311 C1.67956697,5.57301226 0.905246657,6.04765462 0.332752977,6.63030384 C0.0807959918,6.88691196 -0.0334417761,7.21056515 0.00848883252,7.56471007 C0.0520968034,7.93299876 0.243859876,7.78954068 0.530293179,7.89534331" id="Fill-58"></path>
                        <path d="M33.6209981,12.5492856 C33.4766203,12.8991558 33.4063823,13.2721411 33.6541658,13.6007454 C34.103972,14.1971151 34.8203626,12.8390565 34.9292667,12.4599688 C35.1656987,11.6381806 35.4619038,10.8102901 35.5942205,9.96150345 C35.7291977,9.09588905 35.664813,8.1651825 35.6862745,7.28773316 C35.6146179,6.24644396 35.4775121,5.20774366 35.2315022,4.19474735 C35.0136939,3.29640195 34.782583,2.37031843 34.0582109,1.76488763 C33.7568622,1.51302546 33.5500507,1.70349392 33.5076596,2.06279509 C33.4613665,2.45704631 33.5635307,2.85370149 33.7412537,3.1991336 C34.1578919,4.00927176 34.1586015,4.95643624 34.2518971,5.86217847 C34.4372469,7.66330738 34.5413622,9.45888863 34.0743515,11.2259921 C33.9546279,11.6790481 33.7990759,12.1178653 33.6209981,12.5492856" id="Fill-82"></path>
                    </g>
                    <g id="Group-2" transform="translate(0.000000, 12.560000)" fill="#1A1A1A">
                        <path d="M8.33466081,15.5265248 C8.4079196,14.5626366 8.37820998,13.5961341 8.44740911,12.632806 C8.51328666,11.7176537 8.69615662,10.7855091 8.87385973,9.88585519 C9.05469996,8.97088958 9.38353389,8.15862417 9.75296453,7.30919998 C9.95687101,6.84070023 10.15395,6.36902613 10.3515825,5.89772547 C10.4722656,5.60867104 10.5604713,5.30915984 10.8950257,5.23204131 C11.3286731,5.13214199 11.852187,5.21318182 12.2981978,5.19712324 C12.7490065,5.18087793 13.1992619,5.15342896 13.6485943,5.11309579 C14.6251313,5.02533378 15.5955787,4.88099328 16.570455,4.77866652 C17.5041809,4.68082121 18.4275729,4.62349581 19.3494888,4.42892556 C19.8239176,4.32883953 20.2942867,4.21176128 20.7648401,4.09486976 C21.1174785,4.00748122 21.6061162,3.78396817 21.9607843,3.86892927 C21.5221545,4.87893928 21.3856017,5.95710488 21.3747144,7.05020868 C21.3706548,7.48098944 21.3202778,7.65726036 20.8766658,7.63074503 C20.3230734,7.59769423 19.7672665,7.54130248 19.2166267,7.47725488 C18.1775337,7.35606862 17.1467447,7.16373911 16.1165093,6.98336019 C15.6282408,6.89783891 15.159348,6.77609246 14.680306,6.66891077 C14.3402157,6.59309933 14.1972043,6.72941055 14.0835333,7.0434865 C14.0014172,7.27073408 13.9750293,7.37306085 13.7641105,7.50134276 C13.5919434,7.60609698 13.4223596,7.70543611 13.2636631,7.83185074 C12.9811463,8.05685759 12.7381192,8.32723927 12.5301531,8.62357609 C12.068826,9.28029732 11.7728386,10.0520428 11.5019474,10.8045554 C10.8208442,12.6983475 10.4779861,14.7581405 10.414692,16.7693842 C10.3827682,17.7920917 10.2157677,18.7946326 10.2048804,19.8207012 C10.1997136,20.2729556 10.3137536,20.8549859 9.94026327,21.1836265 C9.57489228,21.505545 9.10563057,21.7363404 8.69800187,22 C8.34075039,20.9651551 8.24866948,19.8675698 8.23778219,18.778574 C8.22652577,17.6929393 8.25254466,16.6087984 8.33466081,15.5265248 M23.3662221,9.65215834 C23.810876,9.77298676 24.257552,9.87990956 24.7058824,9.98608073 C23.9434083,11.8524382 23.9702455,13.9170444 23.9125269,15.9064853 C23.8869763,16.7962559 23.910321,17.6882816 23.9959801,18.5741061 C24.0842122,19.4802253 24.2834703,20.3451914 24.4626921,21.2336467 C24.5016614,21.4275736 24.5955919,21.7457112 24.4704123,21.9236652 C24.3318142,22.1207865 23.8776017,22.2271457 23.6807333,22.3179079 C22.8993261,22.6779503 22.129867,23.0682467 21.3324676,23.3912701 C20.5240392,23.7188035 19.6841781,23.9153611 18.8937637,24.2958859 C18.1200769,24.6681428 17.3360962,25.0093938 16.5306089,25.3036664 C15.7390917,25.5932412 14.9176123,25.8053957 14.1536676,26.1691963 C13.4290599,26.5143936 12.8309185,26.9884994 12.2153145,27.5 C11.8410625,26.3125744 11.6951115,25.104478 11.6274668,23.8599265 C11.5625792,22.6687425 11.4669943,21.428701 11.5861079,20.2401477 C11.6403341,19.6978292 11.6405178,19.1934692 11.6298564,18.650399 C11.6202978,18.1644546 11.7302206,17.6879058 11.768087,17.2044042 C11.85154,16.1389343 11.8482313,15.0747799 11.9894029,14.0134441 C12.2568571,12.0061515 12.7875376,9.88141288 13.8580895,8.16068843 C13.9262857,8.05094693 13.9930114,7.87393236 14.0871258,7.7929416 C14.2457602,7.65670429 14.1895119,7.68226052 14.3981446,7.79200204 C14.5928072,7.8940391 14.7847123,8.00265313 14.9858085,8.09191208 C15.4076691,8.27944981 15.8591243,8.36194386 16.2993667,8.48972508 C16.7868502,8.63122398 17.2292983,8.84807623 17.7353473,8.92831532 C18.225588,9.00592361 18.7237327,9.0153193 19.2137897,9.09405507 C19.4847364,9.13765101 19.7334412,9.22916493 19.9970352,9.29794128 C20.2117336,9.35393953 20.4220206,9.33909436 20.6479321,9.36333521 C21.0844982,9.41050151 21.5094836,9.53527611 21.9471525,9.57567753 C22.4394153,9.6211526 22.8776357,9.51949136 23.3662221,9.65215834 M7.29144005,18.3845218 C7.44357316,19.5996146 7.76785222,20.7898072 8.24074348,21.91905 C8.39269135,22.282147 8.56409595,22.7903714 8.99844443,22.8907155 C9.39906791,22.983255 9.88455991,22.6881691 10.2622057,22.584666 C10.5581335,24.3479349 10.6876598,26.1801438 11.4729708,27.814452 C11.5721074,28.020715 11.7027455,28.4053674 11.9067633,28.5404602 C12.115043,28.6785264 12.3683513,28.543805 12.576075,28.4646447 C13.4486634,28.1333233 14.3497883,27.9213 15.2527662,27.6919951 C15.6930442,27.58013 16.141661,27.4807151 16.5713769,27.331128 C16.9282692,27.2068128 17.2655193,27.0575974 17.6394592,26.9897722 C18.4208789,26.8481755 19.1468931,26.5919264 19.8938464,26.3276868 C21.4616887,25.7728211 23.0378699,25.2703573 24.4847098,24.4371296 C25.1751459,24.0394696 25.8994926,23.6498 26.5371177,23.169635 C27.0600406,22.7758772 27.6450397,22.1857052 27.3887668,21.4706605 C27.3113104,21.2543631 27.0991393,20.8964692 26.854911,20.8305023 C26.6255067,20.7682519 26.419636,20.9761871 26.2098738,21.0241293 C25.8926364,21.0967858 25.9637923,20.8403509 25.9343294,20.590048 C25.9111665,20.3928904 25.886892,20.1957329 25.862988,19.9983895 C25.8129563,19.5843771 25.7636659,19.1699931 25.7267909,18.7544942 C25.5741017,17.0332212 25.6458138,15.313063 25.6443313,13.5890026 C25.6435901,12.7258575 25.8429754,11.9691886 26.0440283,11.1376333 C26.150577,10.6964909 26.2500843,10.2534902 26.3438473,9.80956046 C26.3957319,9.5627883 26.4561405,9.29185921 26.3847991,9.04211388 C26.2248832,8.48223094 25.4290102,8.32744087 24.9577865,8.16800522 C24.5527157,8.03086828 24.1415301,7.91175612 23.722191,7.82776438 C23.492231,7.78186625 22.8781393,7.81772996 22.7295269,7.62428884 C22.582397,7.43289174 22.7452776,6.81150158 22.7601016,6.58368328 C22.7877118,6.16409627 22.8166188,5.7448809 22.871839,5.32770957 C22.9605987,4.65484658 22.950963,4.03085491 22.4152542,3.53879714 C22.7493543,3.27195614 22.9865411,2.70575524 22.5006787,2.45991217 C21.941807,2.17690464 21.1939271,2.13583789 20.6035541,2.28430999 C19.957961,2.44671878 19.2493651,2.44876283 18.5882067,2.51974701 C17.884614,2.59500508 17.1830598,2.68661552 16.4809495,2.77543865 C15.2731495,2.92855633 14.0429277,2.96219017 12.8497665,3.20784741 C12.2523521,3.33067603 11.6543816,3.42414471 11.0521494,3.51947162 C10.4284219,3.61795748 10.0524436,3.7017634 9.67905963,4.22912742 C8.97157561,5.22940951 8.31819992,6.25440596 7.92091192,7.42211405 C7.54474818,8.5283149 7.36908172,9.69063413 7.26457123,10.8510951 C7.15209272,12.1018658 7.1267064,13.3491059 7.14078924,14.6041505 C7.15487228,15.8662564 7.13430373,17.1291055 7.29144005,18.3845218" id="Fill-60"></path>
                        <path d="M46.7049511,26.1098726 C46.8283103,25.8899743 47.2580492,25.6909723 47.455459,25.5478235 C47.7251644,25.3523368 47.9910095,25.1527489 48.2510638,24.9414435 C48.7225658,24.5578908 49.0519329,24.8100122 49.470266,25.1773557 C50.2432346,25.8557982 50.5534749,26.7672238 50.4955681,27.8454282 C50.4974984,28.1604334 50.5726016,28.6873298 50.357469,28.946677 C50.1518119,29.1952832 49.7245298,29.1708716 49.4527185,29.232779 C49.0968547,29.3140204 48.5595495,29.8213877 48.1912267,29.6729662 C47.8681768,29.5427068 47.9824112,28.892972 47.9566164,28.6064792 C47.9078342,28.0711852 47.749731,27.5532722 47.4579156,27.1208967 C47.3078842,26.8986549 47.128022,26.7096127 46.9304368,26.5406856 C46.7793527,26.4112073 46.5826449,26.3282084 46.7049511,26.1098726 M45.1210882,27.5868992 C45.4280453,27.6452206 45.7447386,27.8003635 46.0318692,27.9274894 C46.2223455,28.0117316 46.4717703,28.0906372 46.6256028,28.2400625 C46.8810463,28.4880243 46.7774882,28.8793123 46.8367907,29.2038927 C46.8714871,29.3937236 46.9608835,29.5570621 46.8966243,29.7543262 C46.8215669,29.9845629 46.6002886,30.0242063 46.4880563,30.2109878 C46.3239565,30.4848702 46.5356753,30.8717748 46.6774706,31.105442 C46.9233549,31.5108341 47.2591665,31.3038497 47.6385258,31.2430505 C48.095421,31.1698626 48.5648849,31.1496597 49.0049629,30.985559 C49.3634336,30.8521436 49.6608316,30.54262 49.9343313,30.9543016 C50.0362963,31.1079198 50.057362,31.2436223 50.2581056,31.1858725 C50.4250379,31.1380336 50.5948025,30.8908341 50.709513,30.76428 C51.4237991,29.9757956 51.5939177,28.8983716 51.6057782,27.8354328 C51.6399437,26.6550884 51.2465996,25.5460261 50.6889786,24.5484608 C50.5717896,24.3388081 50.4540695,24.0967547 50.2789942,23.933988 C50.1086987,23.7752236 49.8867123,23.7128997 49.7325257,23.527643 C49.5025733,23.2514734 49.5558572,22.6922726 49.1890665,22.5704835 C48.8028033,22.441833 48.2471295,22.9526231 47.9546882,23.1714242 C47.5427568,23.4792323 47.1398534,23.8000009 46.7434999,24.1299179 C45.8941456,24.8368284 44.9456589,25.5134346 44.1777349,26.3215502 C43.9173349,26.5958139 43.8111214,27.0803021 44.0722295,27.4075508 C44.333692,27.7349902 44.7806738,27.5222879 45.1210882,27.5868992" id="Fill-73"></path>
                        <path d="M0.941182816,12.9651998 C1.16601713,13.299422 1.6486134,13.3012934 1.61654334,12.8115624 C1.58756005,12.3624397 1.46185176,11.9198666 1.3311701,11.4967555 C1.1979159,11.0648492 1.22535554,10.5955159 1.21763815,10.1445218 C1.19963086,9.06756284 1.23135797,8.02428811 1.41366084,6.96417127 C1.58876057,5.94391407 1.7017779,4.91130601 1.90671849,3.89703712 C2.10771438,2.9016688 2.47180532,1.96075664 2.69612521,0.973809382 C2.76558204,0.66896731 2.82131906,0.0740667948 2.41915544,0.00445276764 C2.0847337,-0.0533717872 1.88768215,0.466674936 1.75820083,0.71238251 C1.32722557,1.52959879 0.862465119,2.28524783 0.606761076,3.19584421 C0.376267464,4.01624177 0.202196594,4.88959841 0.121420806,5.74405445 C0.0367006784,6.63968008 0.0493916322,7.5444753 0,8.4427208 C0.0807757879,9.4863698 0.0379012012,10.641551 0.340081216,11.6419719 C0.476422362,12.0924046 0.68307791,12.581387 0.941182816,12.9651998" id="Fill-79"></path>
                    </g>
                    <path d="M42.8028706,88.3402861 C42.2787492,89.0067509 41.7555745,89.6660855 41.2872913,90.373266 C40.816169,91.0849496 40.3670034,91.8107055 39.905913,92.5287685 C39.4612902,93.2216892 38.964804,93.894158 38.6072507,94.637176 C38.4009336,95.065537 38.381059,95.6295553 37.8145387,95.6094787 C37.0659292,95.5832105 36.3568797,95.3719382 35.697422,95.0257593 C34.3754781,94.3320883 33.2753724,93.3575338 32.4499146,92.1216097 C31.5934146,90.8393408 30.9284677,89.3885796 30.4469349,87.9297499 C30.1806155,87.1231251 29.9671056,86.3005517 29.7742275,85.4740381 C29.6761795,85.0548707 29.5713174,84.6441469 29.5705603,84.2112826 C29.5699925,84.0208375 29.5819172,83.8307674 29.5919491,83.6406974 C29.6012239,83.4609472 29.7024897,83.1472283 29.4933333,83.1348448 C29.5557963,82.6181096 29.6156094,82.1013744 29.6797759,81.5850143 C29.7261499,81.2118167 29.7231214,80.7934001 30.0539859,80.5464778 C30.3704651,80.3098754 30.8671404,80.3018073 31.2400255,80.2184991 C31.691084,80.1175539 32.1383568,79.9995341 32.5807083,79.8653781 C33.4881252,79.5903113 34.3565499,79.2259323 35.2323567,78.8669945 C35.6694083,78.6879948 36.1070278,78.5056175 36.519662,78.2746441 C36.8605585,78.0834483 37.1051106,77.80613 37.3362236,78.2418088 C38.9101016,81.2075012 40.059799,84.5313809 42.6364917,86.832485 C42.844891,87.0184271 43.1859768,87.2420832 43.2166406,87.5467955 C43.2461684,87.843815 42.9692492,88.1286386 42.8028706,88.3402861 M44.6126742,86.3150402 C44.2566597,86.0704441 43.8149347,86.0298332 43.4537258,85.8040519 C43.0396435,85.5451115 42.7656291,84.9614708 42.4828954,84.5726875 C41.8079708,83.6449727 41.1317476,82.7116692 40.5223118,81.7386863 C39.9690887,80.8553081 39.4683681,79.9398883 38.9368511,79.0434699 C38.6645066,78.5842698 38.3834426,78.1368056 38.0626771,77.7098332 C37.9261338,77.5283887 37.5797665,76.8866261 37.2877568,76.9106573 C37.1371139,76.9229522 37.1432361,77.069561 37.035263,77.1168782 C36.9796067,77.1410956 36.9352673,77.1144565 36.8809097,77.1219079 C36.6855563,77.1481745 36.473135,77.0490693 36.2718449,77.0686295 C35.7744637,77.1170644 35.2357113,77.3264522 34.7570677,77.4710119 C33.7576672,77.7729848 32.8044614,78.1979081 31.8217577,78.5468259 C30.847588,78.8927629 29.7596941,79.1237601 28.8693799,79.6621327 C28.517818,79.8746875 28.1208035,80.2150359 28.4660577,80.6312035 C28.5970353,80.7889896 28.7766195,80.7848913 28.9127917,80.9072825 C29.0278146,81.0104861 28.9766109,81.0674902 28.9500814,81.2394342 C28.9348687,81.3377943 28.919285,81.4359682 28.9040723,81.5343284 C28.7447099,82.5678547 28.6142888,83.6030579 28.7580674,84.6466439 C28.9035157,85.7008483 29.1240999,86.7515134 29.419078,87.77349 C30.3503923,91.0013042 32.016369,94.8323194 35.2900689,96.2628258 C36.0553422,96.5970267 36.816534,96.6761991 37.6239204,96.8269063 C37.8777129,96.8744097 38.0927315,96.9895357 38.3183248,97.1063385 C38.4262979,97.1622248 38.5598728,97.2523882 38.6897374,97.2363675 C38.9860141,97.1998551 39.2297884,96.738792 39.3680014,96.5206486 C39.8906134,95.6970688 40.4837234,94.9239731 41.0263717,94.1139925 C41.3070648,93.6946579 41.5729159,93.2648912 41.8029617,92.8153778 C41.9361657,92.5553196 42.0315234,92.1242491 42.3977413,92.133936 C42.4964385,92.265828 42.5953211,92.3979062 42.6940181,92.5299845 C42.7337197,92.5828903 42.7932717,92.6417574 42.8222129,92.7009969 C42.8949372,92.8500274 42.889186,92.7395586 42.8589462,92.9157871 C42.8201722,93.1411957 42.6116469,93.396038 42.4801127,93.5737568 C41.7098304,94.6165976 40.9055977,95.6341034 40.0980258,96.6478833 C39.3045534,97.6443385 38.4941985,98.6335283 37.5645538,99.5066608 C37.3764357,99.683262 37.1703221,99.8987972 36.8953803,99.9107198 C36.6412168,99.9217108 36.3629356,99.7883284 36.1108129,99.7441781 C35.5627845,99.648426 34.9999144,99.6264441 34.465429,99.4604613 C34.1875188,99.37421 33.9552468,99.2132571 33.6675041,99.1936967 C33.4253994,99.1769308 33.2604715,99.1366925 33.0482357,99.0081538 C32.5681079,98.7177306 32.0343646,98.558268 31.5488567,98.2838656 C30.5476009,97.7182948 29.5129515,96.8781353 28.7790313,95.9910314 C28.3987136,95.5312724 28.0866677,95.0193525 27.7133998,94.5540049 C27.3507067,94.1013247 26.9926516,93.6518116 26.675411,93.1648543 C26.0498349,92.2049117 25.5520826,91.1646788 25.1736202,90.0827175 C24.9769682,89.5206862 24.8790132,89.1536987 25.368046,88.7425608 C25.8292507,88.3548953 26.2611431,87.9497185 26.6453566,87.4836257 C26.8321761,87.2563541 27.6848296,86.4229011 27.0464526,86.2843027 C26.7006418,86.2090423 26.148532,86.7934281 25.8886173,87.0052378 C25.4654444,87.3502435 25.0506199,87.6846306 24.5610306,87.9316485 C24.0066944,88.2112669 23.9964908,88.5661458 24.0044682,89.1469922 C24.0211651,90.344266 24.4662294,91.5108023 24.9276196,92.6037545 C25.4019963,93.7270718 25.9995588,94.7935715 26.7143704,95.7805258 C28.0818441,97.6687423 29.611463,99.5841567 31.7373458,100.640224 C32.788321,101.162576 33.9237083,101.438096 35.0850684,101.568311 C35.7709388,101.645248 36.4621893,101.672074 37.15177,101.655122 C37.4428521,101.647856 37.8231698,101.687349 38.1023786,101.598676 C38.3287139,101.526769 38.3658181,101.358551 38.4476328,101.152889 C38.641873,100.665559 39.1494579,100.40103 39.4926713,100.01057 C39.8592604,99.5932848 40.2436595,99.2004031 40.6206377,98.7931774 C41.4373004,97.911103 41.977908,96.8731056 42.634095,95.8770232 C42.997159,95.3259829 43.3899067,94.786865 43.7065906,94.2067638 C43.9629803,93.7367588 44.2815196,93.1190274 44.3709406,92.5888516 C44.4418095,92.1659776 44.1021209,91.5512267 43.634794,91.5279406 C43.3910197,91.5156457 43.1958519,91.7077088 42.955788,91.732485 C42.8838058,91.7401228 42.6378053,91.6905702 42.5517236,91.725965 C42.9442857,90.7708657 43.5262644,89.871653 43.9674328,88.9420754 C44.2162162,88.4178605 44.4520132,87.8874982 44.6709276,87.350057 C44.8375254,86.9409683 45.0356615,86.6056498 44.6126742,86.3150402" id="Fill-65" fill="#1A1A1A"></path>
                    <path d="M32.9644581,107.908509 C32.4589599,108.066908 32.0835863,108.18896 31.5334633,108.138892 C31.1479647,108.103613 30.7665911,108.028244 30.382405,107.98174 C29.3918461,107.862361 28.447412,107.599728 27.5382278,107.207916 C26.7117308,106.85174 25.9377336,106.422511 25.2554236,105.850919 C24.8954249,105.549621 24.5701136,105.21839 24.2504273,104.879319 C24.0213031,104.636107 23.8098039,104.453119 23.4541176,104.41 C23.5463673,104.901413 23.6543669,105.28877 23.8986785,105.73546 C24.0948028,106.093596 24.3192395,106.437834 24.5714261,106.762651 C25.0868617,107.426005 25.7194844,108.002943 26.4344193,108.469945 C27.1369793,108.928929 27.9272889,109.318959 28.7558484,109.520121 C29.2182217,109.632373 29.6916575,109.699367 30.1598433,109.785605 C30.6019667,109.867032 31.0319026,109.949172 31.483401,109.889661 C31.9058369,109.834069 32.3511478,109.819815 32.7623338,109.705425 C33.0872702,109.61509 33.3968315,109.4166 33.6739555,109.235572 C34.2141411,108.882425 33.6255807,107.701467 32.9644581,107.908509" id="Fill-77" fill="#1A1A1A"></path>
                </g>
            </g>
        </g>
    </g>
</svg>