<svg xmlns="http://www.w3.org/2000/svg" width="33" height="35" viewBox="0 0 33 35">
    <g fill="#191847" fill-rule="evenodd">
        <path d="M16.988 7.466c6.29.924 12.833 3.92 12.778 11.333-.046 6.233-5.21 12.867-11.838 12.494-5.966-.335-11.584-6.94-12.331-12.602-.387-2.933.337-6.091 2.04-8.504 2.234-3.162 5.776-3.157 9.351-2.721m-2.97-4.03c-4.55.025-7.878 1.692-10.694 5.209-1.01 1.261-2.184 2.619-2.952 4.047-.718 1.335-.592 4.728 1.871 3.137-.606 6.57 3.185 12.946 8.636 16.312 5.926 3.66 12.623 2.947 17.554-2.183 4.514-4.695 6.103-12.625 2.8-18.432-3.3-5.804-10.948-8.152-17.216-8.09"/>
        <path d="M27.279.884c-2.874 2.164-5.499 5.013-7.678 7.903-2.13 2.825-3.54 6.352-6.099 8.815-1.292-1.446-2.806-5.351-5.385-3.802-2.14 1.286-.762 3.497.28 4.949 2.691 3.748 5.68 5.257 9.13 1.553 3.134-3.363 4.914-7.85 7.844-11.408 1.286-1.56 3.272-3.11 4.295-4.833.928-1.562-.22-4.814-2.387-3.177"/>
    </g>
</svg>
