<svg xmlns="http://www.w3.org/2000/svg" width="455" height="200" viewBox="0 0 455 200">
    <g fill="none" fill-rule="evenodd">
        <path fill="#FFF" d="M0 0h454.545v200H0z"/>
        <g fill-rule="nonzero">
            <path fill="#2B44FF" d="M187.295 91.55l2.579 26.043 14.043-8.013v24.974c0 .46-.273 2.04 0 2.438.231.338 1.946.347 2.352.404 2.647.37 5.3.7 7.956.994 7.002.773 14.496 1.881 21.525.992 6.11-.772 12.032-2.945 17.614-5.474a97.456 97.456 0 0 0 5.789-2.853c.402-.215 1.861-.723 2.08-1.161.179-.358-.24-1.616-.296-1.992l-.708-4.759-3.294-22.149 6.223 6.215c.488.486 1.413 1.869 2.088 2.084.495.159 1.72-.331 2.208-.425l10.572-2.037c.82-.158 2.67-.152 3.363-.648.372-.268.39-.811.521-1.326l2.579-10.101c.154-.607 1.018-2.519.799-3.13-.08-.218-.46-.368-.694-.51L268.64 81.37l-8.74-5.338c-1.22-.746-2.72-2.089-4.102-2.506-.858-.259-2.107-.065-2.996-.09l-5.415-.155c-.283-.008-1.273-.21-1.51-.043-.198.139-.116.332-.181.662-.159.807-.16 1.677-.238 2.495-.063.657.062 1.862-.235 2.457-.189.38.051.228-.205.412-.304.219-1.277.148-1.64.19l-5.306.617c-2.103.244-4.23.703-6.343.491-3.203-.32-6.656-.304-9.802-.978-.817-.176-1.112-.636-1.742-1.266-1.23-1.229-2.45-2.472-3.693-3.688-.61-.596-.349-.495-.977-.269-.788.283-1.587.967-2.3 1.401l-8.196 4.993-16.68 10.16-1.043.635"/>
            <path fill="#1A1A1A" d="M346.828 92.63c-3.438 13.053-10.354 27.286-24.285 31.447-3.387 1.011-6.682 1.775-10.2 1.39-.335-.037-.615.01-.934.016-.57.01-.078.216-.718.018-.499-.154-.966-.54-1.485-.71-1.383-.452-2.857-.54-4.262-.905a110.06 110.06 0 0 1-10.355-3.245c-1.575-.583-3.022-1.395-4.504-2.176-1.506-.794-3.102-1.287-4.625-2.015-1.204-.576-3.266-1.326-4.112-2.406-.902-1.151.346-3.602.703-4.826 1.214-4.165 2.659-8.269 3.57-12.517 3.15 3.65 7.52 5.91 12.045 7.368a44.91 44.91 0 0 0 7.534 1.72c2.318.325 4.82.718 7.143.257 1.755-.348 3.957-1.154 5.21-2.493.447-.478.983-1.355.733-2.05-.318-.88-1.245-.466-1.746-1.124-.437-.573-.369-1.913-.508-2.61a27.267 27.267 0 0 0-.997-3.625c-.802-2.308-1.8-4.621-2.04-7.077-.208-2.131.277-4.146 1.34-5.995.502-.874 1.764-3.252 2.995-3.153 1.352.108-.471 5.806-.531 6.969-.236 4.607.382 9.516 2.746 13.555.905 1.546 2.214 3.346 4.147 3.538 2.047.203 3.699-1.408 4.673-3.038 2.378-3.976 1.18-9.432-.025-13.6-1.477-5.112-5.333-8.637-7.77-13.229 3.64.366 5.588 2.678 7.456 5.612 2.057 3.23 3.658 7.107 4.447 10.864.399 1.899.123 3.805.126 5.723 0 .636 0 2.986 1.04 2.894 1.109-.1 1.49-2.75 1.653-3.558.374-1.854.779-3.709 1.103-5.572.576-3.297.831-6.674 1.52-9.948.116-.554.348-2.09 1.176-1.675.64.32.537 2.695.56 3.247.057 1.36.138 2.72.149 4.082.016 2.019-.386 4.108-.189 6.114.13 1.31.833 2.759 1.705.991.865-1.753 1.041-3.94 1.523-5.825.507-1.979 1.03-3.988 2.105-5.746.298-.487.618-1.262 1.281-1.032.482.167.837 1.308.986 1.71.672 1.821.558 3.846.515 5.751-.051 2.336-.302 4.62-.898 6.883zm-67.046 3.387c-.183-.06-.964-.133-1.157-.15-.227-.02.03-.438-.519-.32a.872.872 0 0 0 .565.527c-.825.279-1.434-.41-1.999-.5-.54-.085-.563 0-1.096.57-.578-.704-.47-.264-.944-.264-.173 0-.18.261-.462.23-.245-.027-.271-.4-.416-.444-.788-.238-1.599.962-2.492-.079-.217 1.083-2.698-.274-3.653-.083-1 .199-.568.558-1.377-.056-.77-.584-.556-.196-1.452.282.021-.01-.506.345-.457.35-.62-.072-.585-.713-1.37-.68-.832.037-1.187.689-1.948-.113-.166.6-.2.342-.59.493a.563.563 0 0 1-.563-.169.409.409 0 0 1-.322.304c-.425.038-1.222.097-1.608-.107-.579-.308-.113-.425-.515-.77-.18.951-.574.749-1.406.838-.635.068-.774-.127-1.38-.222-.597-.093-1.369.139-1.951.238-.24.04-.562.208-.807.15-.22-.054-.315-.225-.447-.27-.16-.054-.126-.194-.402-.261-.19-.047-.532.132-.722.163-1.358.22-2.661.222-3.956-.312.638 1.121-1.491.516-1.87.052-.475.743-1.049.219-2.005.277-.92.055-2.305.337-2.678-.81-.073.234-.596.91-.804 1.013-.603.3-.675-.143-1.236-.323-.764-.246-.604.22-1.078.315-.8.16-1.231-.403-1.938-.702-.03.465-.045.751-.447 1.04-.357-1.296-1.628.107-1.41-1.627-.483.315-1.164.557-1.302 1.194.81-.222.086.306.053.324-.107.056-.468-.451-.552-.523l-.069.718c-.322-.161-.625-.45-.886-.594-.236-.13.102-.401-.296-.42-.21-.01-.429.444-.65.483-.336.06-.174-.424-.315-.408-.215.025-.565.339-.727.333-.533-.02-.172-.268-.578-.381-.727-.203-.68.271-1.202.443-1.194.392-1.074-1.412-2.289-.21-.29.289-.477.733-.876.708-.824-.051-.535-1.029-.367-1.507.173.085-3.013 1.722-2.987 1.658.02-.393.52-.696.073-1.044-.366.786-.751.8-1.596.946-.41.07-.491.166-.93-.005-.28-.108-.468-.555-.746-.58.038.004-.473.393-.551.428-.46.207-.753-.028-1.2.057-.382.073-.532.398-.912.309-.507-.119-.21-.724-.907-.555-.238.058-.382.517-.757.612-.586.148-1.304-.128-1.922.016a6.939 6.939 0 0 1-1.286.187c-.347.02-.204-.25-.843.068l-.27-.683-.96.863c-.06-.258-.1-.519-.116-.783-.476.478-1.077.56-1.718.602-.694.047-1.212.198-1.887.325-.214.04-.764.104-.94.03.026.01-.328-.137-.221-.11a4.485 4.485 0 0 1-.128-.285c-.06-.27-.254-.281-.581-.036-.17-.026-.498-.248-.667-.193-.436.14-.377.48-.811.43-.282-.033-.425-.45-.719-.477-.449-.043-.838.459-1.242.568 1.23-.333-1.595-.074-.717-.051-.575-.015-1.173-.044-1.705.214-.294-.2.063-.605-.234-.771-.27-.151-.29.247-.322.256.17-.048.085.29-.085.351-.53.188-.954-.29-.981-.763-.45.677-.577.405-1.24.447-.652.041-1.215.383-1.869.377-1.292-.012-2.169-.461-2.6-1.615 1.377.168 2.763-.718 4.109-.509.442.069.719.4 1.106.342.478-.073.811-.594 1.424-.65 1.35-.124 2.682-.003 4.042-.21 1.625-.248 3.32-.394 4.96-.274 1.268.093 2.294-.391 3.58-.484 1.661-.122 3.337-.143 5.002-.23 1.71-.09 3.55-.363 5.257-.276.532.028.99.08 1.519.048.223-.013.435-.165.67-.142.305.03.436.342.753.33.538-.018 1.114-.461 1.754-.473 1.052-.02 2.1-.018 3.155-.078.929-.052 1.924-.27 2.848-.257.652.008.813.563 1.194.62.683.104 4.14-1.864 4.439-.098 1.8-1.232 4.214-.189 6.217-.42 2.574-.297 5.195-.033 7.786-.138 2.637-.108 5.35-.008 7.975.24 1.088.103 2.14.2 3.23.137.486-.027 1.049-.152 1.535-.04.118.028 1.02.657.908.675.492-.442.159-.507 1.026-.53.668-.017 1.3.127 1.964.167 1.192.07 2.394-.095 3.583-.059.994.03 1.965.177 2.964.185 1.076.007 2.347.038 3.126.905l-.247-.817c1.202.094 2.39.523 3.604.322-.307.295-.62.535-.737.967.655-.083 1.099-.54 1.789-.544.579-.004.7.287 1.31-.088l.227 1.38c.847-.2.29-.832.353-1.4.688.206 1.27-.031 1 .959-.21.763-1.163 1.14-1.88.907zm-1.19 8.504c-.295.83-2.85.355-3.454.268-.78-.113-1.673-.293-2.392-.382a1.255 1.255 0 0 0-.31-.292.74.74 0 0 1-.343.268c-.33.072-.33.412-.764.337-.02.504.33.218.598.4-.676.454-.367-.068-.746-.06a.368.368 0 0 0-.393-.156c-.214.055-.41.146-.59.274-.17.178-.315.188-.435.028a.752.752 0 0 0-.423-.215c-.666.108-.852.404-1.602.355-1.071-.069-2.23.214-3.285.065-.654-.092-1.746-1.12-2.043-.118-.452-.742-1.172-1.247-1.604-2.005 2.015-.117 4.03-.256 6.047-.328 1.766-.064 3.698.135 5.349.051 1.546-.078 3.183-.248 4.762-.39 1.673-.149 2.227.218 1.628 1.9zm-52.58.122c.731.203 1.428-.256 2.138-.111.234.048.72.475.827.483.195.016.77-.404 1.016-.46 1.56-.355 3.448-.317 5.006-.099.826.116.953-.262 1.674-.446.75-.191 1.814-.044 2.603-.097 1.857-.124 3.712-.035 5.556-.171 1.892-.14 3.776-.215 5.67-.312 1.29-.067 4.389-.803 5.458.155.882.79-.254 2.16-1.136 2.473-.66.234-.975-.258-1.465-.211-.557.053-.363.712-.86.1-.309.608-2.247.35-2.802.39-1.21.087-2.235.33-3.058-.8l.167.977c-1.092-.583-2.265-.396-3.213-.193-.47.1-1.91.797-2.42.497-.35-.207.267-.56-.323-.736-.31-.093-.844.421-1.222.395-1.047-.072-.75-.775-1.778.12-.348-.3-.464-.813-.418-1.252-.747.637-.684 1.699-2.02 1.504-.497-.072-.588-.58-.848-.673-.552-.2-.615.16-1.094.443-.18.107-.4.28-.613.301-.438.044-.507-.157-.567-.15-.29.032-.657.18-1.002.074-.31-.095-.4-.642-.946-.514-.522.122-.526.477-.431 1.008-.515-.053-.827-.34-1.212-.65-.389.906-1.208.155-1.66.92-.59-.704-.969-.51-1.7-1.198l.107.861c-.571-.11-.825-.513-1.312.02-.473-.88-1.907.375-2.644-.476-.328 1.077-2.5.82-3.417.838-.813.017-1.415-.05-2.21.139-.701.167-1.674.34-2.334.264-.432-.05-.903-.13-1.44-.071-.775.084-1.445.485-2.247.295-1.209-.285-1.95-1.873-.603-2.57.92-.477 2.58-.3 3.594-.388 1.68-.146 3.562-.452 5.245-.313 1.312.109 2.508-.205 3.847-.337 1.007-.1 2.66-.279 3.317.72.252-.291.226-.9.77-.749zm-18.391 13.674c-.18-.899 7.5-1.393 8.262-1.452 1.6-.123 3.206-.211 4.81-.252 1.319-.034 2.55.218 3.868.016 1.232-.19 2.72-.577 3.791.295.158-1.192 4.781-.611 5.66-.608 3.83.014 7.494.023 11.197-.215 2.117-.135 4.364-.317 6.481-.211.955.047 1.724.302 2.673.081.62-.144 1.287-.444 1.88-.02.692.496.989 2.18.511 2.883-.348.512-.655.455-1.211.367-.854-.136-1.49-.334-2.36.013.141-.056-.584.106-.523.101-.987.074-2.34.763-3.19-.031.34.06.835-.549.406-.599-.323-.037-.527.308-.78.424-.86.396-1.3.272-1.815-.558-1.036.897-1.148.649-1.603-.456-.35.27-.426.908-.701 1.117-.041.031.128.42-.07.403-.186-.015-.246-.318-.388-.341-.091-.016-.138-.281-.225-.298-.094-.017-.191.152-.298.148-.285-.014-1.1.592-.807-.259-.432.55-.617.2-.773-.3l-1.495 1.136c-.232-.644-.63-.468-1.133-.244.152-.447.057-.87-.322-.56-.22.181-.368.753-.593.996-.91-.922-1.24-.67-2.497-.55-.48.046-1.076.135-1.505-.155-.377-.255-.59-1.19-1.234-.434.143-.168-.082 1.122-.122 1.327a2.811 2.811 0 0 1-.724-.707c-.37.735-1.345.076-2.142.226-1.256.236-2.552.634-3.661-.3-.079.301-.988.685-.989.697.054-.534.391-.346-.297-.448-.127-.018-.27.21-.39.234-.41.085-.89.005-1.304-.007-1.72-.05-3.296.332-4.996.47-.573.046-1.252.138-1.79-.078-.554-.223-.539-.475-1.1-.332.178-.045-.35.509-.32.488-.076.055-.39-.216-.502-.195l-.098.354-.405-.05c-.37.05-.703-.324-1.05-.337.063.003-.937.375-.892.398-.698-.349-.498-.248-1.384-.035-.838.2-1.672.153-2.532.278-2.5.363-1.01-.89-1.318-2.42zm-2.208 12.5c-.47-.667.78-.897 1.18-.956.657-.097 1.529.096 1.967-.009.667-.158 1.31-.537 2.06-.64.948-.13 1.903-.15 2.854-.231.317-.027.71-.136 1.018-.118.459.027.65.27 1.02.272.632.003 1.41-.395 2.058-.469a39.526 39.526 0 0 1 2.498-.179c1.755-.087 3.49-.05 5.244-.053.8-.001 2.93-.83 3.329.1.554-.706 1.977-.61 2.77-.63 1.396-.036 2.778-.17 4.173-.235 1.195-.056 2.53.2 3.703.02.647-.098.86-.305 1.594-.212.545.07 1.375-.218 1.843-.091-.024-.007.583.37.394.382.209-.014.196.132.427.067.302-.085.163-.465.79-.6.978-.21 2.281.033 3.297-.021a51.048 51.048 0 0 1 2.955-.07c.454.001 1.016-.107 1.457-.018.217.043.677.325.86.297.52-.081.785-.442 1.487-.42a20.6 20.6 0 0 0 2.306-.046c.767-.059.89-.168 1.27.47.377.633.48 1.457-.213 1.887.45-.03 1.005.574.474.907-.328.207-.986-.259-1.378-.225-.484.041-.864.297-1.39.313-.554.017-1.116.156-1.662.167-.569.01-.999-.243-1.538-.135-.475.095-.525.484-1.096.143-.284-.17-.332-.8-.72-.805-.519-.008-.312.663-.61.973-.08-.959-.82.628-1.115-.536-.271.386-1.276.927-1.763.617-.444-.283-.296-.924-.481-1.385-.308.829-1.133 1.69-1.059.18-.4.493-1.484.415-1.213 1.279-.326-.007-.403-.473-.678-.508-.238-.03-.426.152-.462.149.13.01-.39.183-.397.185.351-.071-1.013-.193-.781-.19-.316-.003-.704.256-1.074.255-.337 0-.673-.134-1.005-.172-.864-.098-.684.091-1.226.362-.2.1-.25.27-.536.25-.21-.016-.289-.29-.313-.293-.295-.03-.077-.129-.536-.083l-.158.272c-.166.212-.38.265-.645.159-.68.146-2.933.777-2.712-.392l-1.036.506c-.148-.943-2.024.308-2.444.37-.537.081-.587-.125-1.095-.235-.092-.02-.275.283-.49.24-.558-.113-.657-.168-.753-.774-.398.743-.728.41-1.45.533-.159.027-.26.341-.49.287-.165-.039-.17-.34-.283-.38-.103-.035-.087-.273-.238-.307-.173-.039-.763.445-.933.52-.381.168-1.008.446-1.381.363-.461-.103-.256-.445-.907-.406-1.027.06-1.456.934-2.095-.443-.288.552-.251.701-.715.883-.342.135-1.209-.006-1.66-.022-1.924-.071-3.817.584-5.726.413-.839-.076-1.546-.244-2.393-.106-.89.144-1.76.356-2.662.442-.46.043-1.418.175-1.643-.412-.198-.516.54-.868.127-1.456zm3.775 21.177c-2.497 1.67-4.565 3.95-6.857 5.882-2.298 1.936-4.122 4.089-6.19 6.233-1.91 1.982-3.666 3.857-5.976 5.355-1.462.948-2.766 2.114-4.268 3.008-1.125.67-2.829 1.55-2.28-.497.563-2.099 1.6-4.22 2.503-6.179 1.281-2.785 2.573-5.545 3.96-8.278.521-1.026.813-2.049 1.64-2.866.9-.89 1.529-2.053 2.514-2.894 4.143-3.537 10.388-.804 14.954.236zm7.831 1.2c-1.132.593-2.4.74-3.6 1.133-1.023.334-1.974.929-3.074.973 1.002-.752 1.862-1.774 2.99-2.344 1.27-.642 2.423-.175 3.684.237zm49.708 4.946c-4.166-1.405-8.044-3.476-12.102-5.143-.7-.288-6.177-2.092-6.066-2.95 3.838-.703 7.791-1.91 11.639-.594 3.5 1.197 6.347 4.067 9.057 6.47.707.627 5.08 3.482 4.688 4.392-.27.63-2.378.458-2.875.33-.643-.168-1.013-.558-1.517-.987-.843-.716-1.775-1.164-2.824-1.518zm-7.69-23.482c.632-.582 1.011-1.466 1.616-2.003.776-.69 2.03-.354 2.878.005 2.547 1.076 4.724 2.885 7.256 4.008 2.805 1.245 5.234 2.908 7.764 4.622 2.313 1.567 4.814 2.864 7.175 4.36 2.406 1.523 5.099 2.514 7.537 3.984 2.482 1.496 4.955 2.998 7.34 4.646 4.253 2.94 8.681 5.959 11.828 10.138a44.713 44.713 0 0 1 4.317 6.998c1.079 2.193 2.25 5.237.851 7.518-1.342 2.191-3.63 3.917-5.567 5.551-.734.62-1.432 1.371-2.382 1.64-1.157.326-2.506.236-3.695.332-6.36.516-12.283.03-18.55-1.108-6.042-1.097-12.11-1.71-18.199-2.473-3.435-.43-6.869-.93-10.257-1.647a57.843 57.843 0 0 1-4.34-1.076c-1.237-.364-2.278-1.166-3.55-1.483-5.402-1.35-11.582-1.865-16.929-4.133 4.732-1.967 9.76-3.155 14.61-4.789 5.105-1.72 10.09-3.163 15.47-3.651 2.768-.252 5.246-.959 7.909-1.699 2.538-.705 5.187-.921 7.794-1.237 1.16-.14 4.468.07 4.852-1.446.572-2.256-2.679-2.516-4.065-2.314-1.965.287-3.586.777-5.09-.835-1.537-1.647-3.03-3.333-4.593-4.96-2.9-3.014-5.89-6.501-9.988-7.854-5.001-1.65-10.8-.084-15.79.855-5.27.99-10.532 1.94-15.704 3.38-2.142.597-4.903 1.911-7.126 1.7-2.19-.208-4.672-.567-6.789-1.198-.957-.286-1.745-.816-2.602-1.31-1.114-.642-2.335-1.053-3.518-1.553-2.392-1.01-4.723-1.939-7.304-2.336-2.173-.334-4.48-.532-6.586.23-2.066.747-3.896 2.269-5.338 3.894-1.565 1.766-2.86 3.745-4.143 5.718-.616.947-1.368 1.774-2.006 2.7-.536.777-.848 1.64-1.415 2.396-1.269 1.69-2.13 3.853-2.899 5.82-.854 2.185-1.803 4.782-1.599 7.159.077.898.157 2.087.505 2.92.442 1.06 1.072 1.033 1.98 1.432 1.56.686 1.999 2.584 4.015 2.214 1.892-.347 3.532-1.906 4.912-3.148 1.799-1.619 3.52-3.326 5.242-5.027 1.766-1.746 3.506-3.682 4.911-5.735.553-.809.985-1.722 1.638-2.458.833-.938 1.767-1.05 2.898-1.424 9.884-3.266 19.817-6.416 30.01-8.572 2.442-.517 4.904-1.184 7.303-1.871 2.544-.73 3.862.041 5.962 1.43 4.387 2.9 9.572 4.943 14.457 6.836 1.538.595 3.987.633 5.19 1.809-7.128 1.086-13.92 3.176-20.795 5.258-3.389 1.026-6.817 1.916-10.22 2.898-3.403.981-6.677 2.254-10.034 3.36-3.34 1.102-6.87 1.551-10.244 2.568-3.443 1.037-6.872 1.75-10.406 2.38-3.57.638-7.113 1.372-10.694 1.942-1.64.261-3.279.532-4.9.891-1.587.352-3.12 1.193-4.714 1.388-7.121.871-14.102 2.813-21.195 3.91-5.296.82-14.51 1.962-17.944-3.351-3.454-5.344.783-11.577 4.563-15.398 2.35-2.374 4.99-4.464 7.76-6.323 2.964-1.99 5.816-4.139 8.78-6.125 6.71-4.497 13.986-8.164 21.195-11.776 3.46-1.735 6.803-3.594 10.169-5.497 1.67-.945 2.595.58 3.916 1.615 1.038.815 2.946 2.824 4.399 1.895l.167 1.003 1.278-.582c.286.75.252 1.216 1.05 1.61.491.242 1.538.533 2.006.107l.286.888c.409-.031.488-1.2.565-1.475.7 1.023 1.67 1.879 2.9 2.168.007-.067-.2-.908-.19-.913.389-.238.88.783 1.087 1.002.685.725 1.093.612 1.85.027.055.06.31.728.348.716.164-.052.475-.644.509-.698-.048.779 1.456.936 1.987.768l-.357-.684c1.85-.247 2.575 1.718 4.35 1.618 1.313-.074.26-.36 1.003-.923.65-.49.765.583.828.55.124-.13.22-.28.288-.448.24.92 2.152 1.746 1.955.233.752.3 1.286.8 2.118.906 1.012.128 2.093-.087 3.102-.17 2.175-.182 4.225-.625 6.185-1.622 1.162-.59 2.4-1.126 3.492-1.839.914-.596 2.649-2.407 3.866-1.627-.312-.92 1.156-.068 1.203-1.252l.707.533c.142-.31.102-.799.291-1.069.26-.371.387-.152.609-.361.248-.234.465-.86.762-1.037.306-.183.667.035.997-.125.502-.244 2.662-2.625 2.296-.585.929-.315.213-.604.329-1.223.233-1.24.8-.347 1.365-.24.924.178.906-.587 1.422-1.142.47-.508 1.356-.735 1.05-1.617.35.188.423.556.464.913zm-55.755-26.487c-.729.812-1.274.465-2.084.346-.087-.29-.235-.33-.445-.12-.24.137-.498.228-.774.271-.665.164-1.355.095-2.004.343.018-.218.247-.605.1-.826-.683.473-1.107.773-1.946.782-.68.007-1.874-.512-2.438.109l-.052-.725a2.363 2.363 0 0 0-.722.553c-.039-.358-.06-.629-.297-.918-.45.924-.941.945-1.814.592.122.05-.874-.534-.836-.372-.314-1.327 4.656-1.217 5.178-1.27 1.303-.131 2.606-.208 3.91-.328 1.238-.114 2.162-.307 3.019.726-.382-1.491 3.23-1.417 1.205.837zm-56.986-23.13c.137 2.254.638 4.651-.238 6.821-.705 1.745-2.111 3.715-3.626 4.853-3.102 2.331-5.73-.52-6.162-3.656-.45-3.27.442-7.264 3.257-9.28 1.682-1.205 3.311-1.121 5.248-.725.455.093 1.194.057 1.454.509.06.106.006 1.475.067 1.477zm41.192 30.043c-.535.27-1.096.429-1.568.797-.164.128-.22.419-.394.526-.317.196-.77.066-1.1.228-.547.267-.938.65-1.588.895-.965.366-1.81.867-2.722 1.343-1.52.792-3.15 1.472-4.738 2.117-.802.325-3.02.96-2.943 2.133-.179.049-.362-.344-.737-.312-.514.042-1.193.637-1.726.783-.999.273-1.772.298-1.772 1.57-.317-.216-.398-.744-.82-.814-.476-.079-.677.435-1.057.594-.449.188-1.006.008-1.45.208-.194.206-.41.385-.647.538a2.46 2.46 0 0 1-.721-.023c-.943.2-1.81.555-2.755.739-.92.18-1.55.245-1.164 1.334-.985.192-1.225-.853-2.336-.47a30.727 30.727 0 0 1-4.057 1.091c-.725.146-1.483.47-2.213.547-.521.055-1.007-.132-1.52-.074-.619.07-1.116.356-1.756.367-.607.01-1.244-.099-1.84-.206.084.24.19.47.316.691-.412-.086-.602-.582-.952-.655-.366-.077-.695.301-1 .218-.13-.036-.044-.437-.276-.514-.212-.07-.302.013-.512-.02-.07-.011-.95-.059-1.09.015-.244.13.003.373-.045.41-.827.612-.837.281-1.206-.358-.541-.938-1.194-.346-2.178-.51-1.096-.183-1.96.3-3.04.232-1.164-.075-2.532-.946-3.56-1.454-2.223-1.099-4.39-2.138-6.257-3.802-3.648-3.252-6.617-7.251-8.367-11.83-1.88-4.919-2.237-10.05-2.086-15.268.091-3.138.342-6.275.837-9.377.34-2.133.412-5.925 2.817-6.896.414 4.995-.891 10.086-.068 15.05.248 1.494.852 3.486 1.996 4.593 1.693 1.64 2.09-.73 2.243-2.039.285-2.43.814-4.847 1.19-7.266.374-2.418.638-4.863 1.16-7.256.19-.872 1.721-7.261 2.845-6.958-.227 4.647-.831 9.215-.855 13.88-.01 1.87-.177 3.847.093 5.705.14.957 1.01 3.763 2.508 3.53 1.387-.217-.137-2.194-.267-2.957-.343-2.018.094-4.528.414-6.532.605-3.79 1.955-7.673 4.16-10.84 1.977-2.837 5.019-5.537 8.684-5.037 1.566.214 2.787.603 3.574 2.033.617 1.122 3.05 2.397 1.64 3.802-1.283 1.279-3.358.255-4.784-.05-1.746-.373-3.617.076-5.078 1.099-2.505 1.755-3.933 4.893-4.399 7.836-.628 3.968 1.05 14.355 7.235 12.027 4.109-1.547 7.203-7.11 6.858-11.369-.138-1.704-.805-4.941 1.554-5.401 3.022-.59 3.449 2.741 3.143 4.906-.445 3.149-2.11 6.077-4.013 8.566-1.66 2.17-3.59 3.527-5.586 5.319-.591.53-2.1 1.723-1.846 2.71.278 1.081 2.647 1.389 3.596 1.567 4.694.878 9.988.07 14.674-.544 9.631-1.26 19.136-4.367 27.034-10.078.319 3.533.721 7.055.869 10.602.072 1.721.09 3.468.287 5.18.121 1.053.56 2.524-.638 3.129zm-26.706 12.313c-.378.198.031-.998-.074-.603.565.203.59.404.074.603zm39.954-42.765c.6-.661 2.24-2.235 2.76-.742.194-.636.22-1.58.967-.72.298-1.056 3.581-.957 4.394-1.003 2.604-.15 5.219-.229 7.814-.488 5.332-.531 10.757-.257 16.108-.274 1.16-.004 2.315-.067 3.465.101 1.11.162 2.277.618 3.409.451 1.006-.148 1.665-.425 2.7-.306 1.24.142 2.442.243 3.692.238 5.53-.02 11.056.204 16.586.212 1.078.002 2.369-.208 3.38.25.375.17.784.734 1.07.796.328.07.133-.441.572-.21.588.31.133 1.26-.255 1.411.232-.09-.42-.18-.355-.183-.31.017-.574.255-.906.24-.507-.022-.93-.331-1.339-.603-.006.11.218.851-.038.888-.22.033-.427-.697-.45-.867-1.236 1.091-2.547.483-4.082.621-1.089.098-3.36.825-4.12-.312a1.157 1.157 0 0 1-.29.635c-.217.33-.405.302-.563-.085-.054.002-.583.117-.593.116-.373-.03-.855-.163-1.234-.195-.586-.05-.478.376-.945.383-.255.004-.905-.364-1.35-.387-.77-.04-1.556.286-2.316.187-.523-.068-.995-.493-1.508-.51-.64-.021-.847.466-1.353-.218-.104-.029-.169.374-.21.381.01-.001-.482.071-.54.094-.101.039-.494.219-.614.22-.259.006-.4-.18-.673-.184-.454-.008-1.901.392-1.861-.447-1.618.6-2.999.366-4.66.507-.762.066-1.24-.036-1.966-.176-.908-.175-1.51.045-2.416.09-.87.042-1.145-.326-1.88-.659-.29-.13-.48-.304-.836-.23-.203.04-.059.382-.118.405-.313.12-.53-.007-.959.022-.79.054-1.104.715-1.917.095l.81-.099c-.776-.33-1.802-.497-1.613.702-.663-.093-.09-.544-.415-.706-.326-.16-.69.11-1.1.242-1.084.352-1.987.177-3.116.114-1.283-.071-4.286.976-5.204-.384-.028.287-.336 1.085-.745 1.047-.133-.012.239-.86.28-.949-.21.449-1.172.534-1.646.767l.16-.723c-.44.468-.655.182-1.172.339-.227.068-.554.535-.748.563a.933.933 0 0 0-.85-.337 1.714 1.714 0 0 0-.682-.033c-.908.066-1.737.57-2.641.227-.783-.298-1.085-1.065-1.552.155l-.368-.65-.455.705c-.592-.388-.628-.612-1.31-.47a.586.586 0 0 1-.491-.027l-.12.358c-.017.3-.106.4-.268.298a1.095 1.095 0 0 1-.37-.223c-.45.034-1.026.153-1.51.087-.186-.025-1.357-.643-1.444-.547zm13.795-8.073l.159.245c-.732.386-.904.164-.98-.612.358.007.419.636.82.367zm.453-.455c.353.155.757.46 1.089.051.223.65-1.437 1.536-1.089-.051zm2.276.287c.74.5-1.035.098-1.032.098.32-.294.663-.327 1.032-.098zm6.364-2.789c.254 1.28.953 1.244 2.083.649 1.647-.868 1.926-2.29 2.04-3.987.11-1.628.31-2.258 1.988-1.918 1.172.237 2.162.038 3.343.005 1.26-.034 1.705.158 1.806 1.455.102 1.298.333 2.284 1.275 3.273.958 1.004 2.236 1.604 3.48 2.166.64.289 1.242.6 1.95.662.275.025 1.703-.156 1.733.296.022.34-1.956 1.298-2.166 1.412-.917.5-1.832.947-2.835 1.25-2.305.695-4.75.736-7.138.694-3.85-.068-9.172-1.696-11.474-5.113 1.305-.28 2.61-.562 3.915-.844zm-.346-11.087c-.609-.511-1.003-1.284-1.51-1.889-.255-.305-.442-.403-.684-.555-.256-.161-.4.066-.614-.312-.551-.978 1.15-2.353-.654-2.73-.61-.127-2.08.357-2.258-.518-.252-1.237 2.109-1.318 2.664-1.946 1.104-1.248.355-3.363 1.027-4.803.637-1.364 2.281-1.607 3.578-2.016 1.808-.571 3.637-.902 5.473-1.359 1.283-.32 3.416-1.602 4.606-.468-1.837.407-.77 1.047.455 1.409 1.387.41 2.856.569 4.293.683 1.48.117 2.986.14 4.448-.155 1.351-.273 2.86-1.447 4.278-1.147-.787 1.368-3.129 2.114-4.552 2.472-.725.183-1.19.126-1.092 1.03.094.876.856 1.755 1.028 2.668.227 1.208.029 2.318-.401 3.454-.423 1.118-.522 1.264-.152 2.333.576 1.663-.663 3.501-1.807 4.71-4.628 4.883-13.485 3.033-18.126-.861zm11.76-29.189c.019.05.003.031 0 0zm1.442 12.325c-.192.144-1.297.444-1.251.012.062-.578 1.058-.37 1.25-.012zm2.519-11.69c-.26-.194-.986-.114-.455-.847l.455.847zm-17.431-4.632c.33-.859.697-1.658.845-2.572.092-.563-.09-1.207.697-1.295-1.003-.438-1.014-2.165-1.073-3.06-.081-1.233-.47-2.884.071-4.032.556-1.179 1.307-1.16 1.533.245.09.55-.25.727-.314 1.11-.126.757.125.591.613.014.202.587.28 1.468 1.1 1.43-.054-.158-.369-.508-.264-.705.162-.302.95.16 1.05.23.72.504.876.963.363 1.598.71.077.114.7.573.862.7.247.23-.925.155-1.132.426.167.569.357.838.693.159.232.303.474.433.723.145.456.444.57.896.343.907.284 2.159.24 2.972.737.37.227.505.724.815.913.35.212.817.116 1.191.25-.137.31-.026.48.333.506.279.025.549.088.81.188.195-.147.407-.263.636-.348.154.271.372.339.654.202.836.156 1.238.473 1.77.946.476.424.088.458.61.42.21-.014.579-.37 1.06-.301.276.054.542.139.799.255.277.238.572.268.884.09.506.248.556.686 1.173.746.683.067.463-.785.932.416.632-1.273.863.755 1.515.918.675.17.748-.377 1.326.221.174.18.164.476.358.666.32.31.75.249 1.027.673-.154-.237.037.84.033.804.043.475-.379 1.007.486.966-.01.05-.425.656-.506.587-.02-.07-.037-.139-.05-.21-.093.04-.134.617-.117.718.074.012.104-.043.09-.163-.142.445.072.727-.2 1.15-.175.27-.653.472-.908.639-.613.402-1.213.805-1.81 1.233-1.395.998-2.957 2.201-4.714 2.41.883-.867 5.958-4.144 3.412-5.085-.472-.175-1.331-.34-1.825-.377-.614-.045-1.25.306-1.927.087-.817-.264-.51-1.033-1.008-1.308-1.06-.585-.81.79-1.144 1.15-.35-.368-.275-.547-.829-.58-.562-.034-.695.486-1.351.162-.904-.446-.425-1.334-1.707-1.355.021-.195.207-.74-.037-.892-.33.428-.075.906-.38 1.318-.154.206-.486.37-.729.437-.568.156-.649.455-.556-.4-.421.758-1.713.446-2.48.37-1.25-.124-2.576-.36-3.773-.76-1.107-.371-1.698-1.008-2.612-1.587-.345-.219-.51-.135-1.004-.271-.489-.134-.965-.394-.735-.993zm2.635-13.43c.188-.114.323 1.58.095 1.897-.418-.662-1.16-1.632-.095-1.898zm.602-.677c.606-.548.185.869.074 1.106l-.674-.432c.286-.175.358-.455.6-.674zm22.87-2.283c5.6 1.175 11.149 3.372 15.64 6.987 4.092 3.292 6.98 7.964 8.598 12.934 1.68 5.158 1.116 10.881-2.882 14.83-2.106 2.079-4.887 3.333-7.538 4.557-1.27.587-2.578 1.076-3.853 1.649-.916.411-2.034 1.07-3.079.955.534-.56 1.307-.572 1.952-.915.78-.415 1.416-1.21 2.088-1.779.667-.564 2.147-2.341 3.172-1.911-.142-.947.937-1.387 1.423-2.01.514-.661.55-1.434 1.498-1.65-1.017-.796-.706-2.298-.485-3.381.284-1.386.415-2.659.526-4.07.201-2.542.364-5.781-1.041-8.017-.456-.725-1.037-1.392-1.443-2.146-.49-.909-.383-1.709-.383-2.705-.896.602-1.085-.626-1.464-1.224-.284-.45-.657-.7-.749-1.265-.066-.411.38-.48.135-.912-.3.227-.42.578-.571.904-.277-.111.05-.496-.11-.622-.004-.003-.538-.235-.511-.202-.344-.435-.455-1.158-.623-1.677-.63.32-.512.282-1.214-.251-.124-.094-.742-.525-.8-.666-.272-.658.204-.268.071-.677-.382-1.173-2.529-.951-2.699-2.71-1.046.664-1.445-.277-2.064-.947-.634-.686-1.698-.95-1.64-2.038l-.989.337c.171-1.004-1.32-.94-1.86-1.449.3.004.598.027.894.07zm.852 62.185c.52-.465.362.153.696.082.285-.06.342-.276.615-.342 1.129-.273 2.816.07 4.003.01 1.374-.067 3.73.218 4.385 1.826.394.969-.208.64-.871.567-.515-.055-.972.049-1.48.044a2.223 2.223 0 0 1-.753-.012.474.474 0 0 1-.216-.34c-.708-.106-1.46.313-2.245.333-1.046.028-1.977-.172-2.772-.88-.316.472-.531.706-1.1.759-.015.001-.57-.223-.656-.245-.114-.03-.402.21-.621.141.389-.62.446-1.434 1.015-1.943zm71.486 5.595c.185-.642.339-1.293.507-1.94 2.584 2.941 4.845 6.878 5.862 10.65.661 2.451 1.69 6.893-1.461 8.157-2.567 1.03-3.998-2.662-4.647-4.48-1.434-4.013-1.434-8.303-.261-12.387zM204.422 34.633c.033-.006-1.673.986-1.11.183.225-.323 1.081-.55 1.461-.55l-.351.367zm-1.64.42c-.198.167-.398.331-.599.493l-.579-.916c.38-.16 1.997-.28 1.177.424zm-1.203 30.843c-.357-.241-.64-.113-.747.293 0-.404.21-1.342.533-1.451.21-.071-.694-1.14-.44-1.419.645.37.259.724.448 1.201.085.216.342.42.398.585.095.28.48 1.246-.192.791zm-1.748-2.403c-.366.093.274.697.273.963 0 .202-.242.357-.342.633-.217.598.156 1.001-.458 1.458 0-1.31-.879-4.782.81-5.42-.823-.649-.146-1.398.5-.621.62.746.225 2.729-.783 2.987zm-.88-5.17c-.333-1.177-1.332-1.59-2.475-1.52.044-.602.5-1.472.83-.385.137-.321.23-.74.54-.953.521 1.634 3.118 2.536 1.501 4.306-.132-.483-.26-.966-.397-1.448zm-3.019-1.432c-6.015.436-14.46 1.685-19.273-2.926-3.139-3.006-2.971-7.688-.435-11.028 1.447-1.906 3.423-3.248 5.408-4.527.765-.493 1.414-.819 2.255-1.103a.585.585 0 0 1 .384.092.66.66 0 0 1 .343-.452c.325-.174.787-.236.975-.596-.2.677-.303 1.375-.376 2.075l-.486-.566c-.135 1.277-1.465.504-2.259.664.523.723.897.986.942 1.943-.39-.72-1.204-1.192-1.961-1.424.411 1.217.702 1.939.288 3.273-.5-.286-.534-.972-1.141-1.136-.16.796-.189 1.678-.394 2.45-1.553-.708-1.402 1.2-.778 2.145.332.502.495 1.084.79 1.566.727 1.183.175-.586.982-.502-.181 1.248-.244 1.372.67 2.285.89.891 1.353 2.128 2.306 2.965.276-.353-.158-.722-.196-1.06.887.15 1.302 1.039 2.155.25.372.726.774 1.524 1.665 1.672-.59-1.119 1.13-.36 1.57-.2.335.12.934.215 1.064.262.726.262.228-.209.669.651.647-.195.891-.732 1.666-.278.63.369.63 1 .774 1.648.15-.423.302-.846.468-1.264.169.07.878.85.8.855 1.66-.082 1.6.948 1.125 2.266zm-8.446-21.117c.334-.233.74.078 1.114-.006.518-.116.812-.56 1.391-.607-.161.515-.463.466-.719.87-.087.138-.041.469-.119.548-.648.664-.872.122-1.534-.38.057.605.174.797-.397.96-.517.147-1.37-.396-1.631-.812.22-.44 1.497-.293 1.895-.573zm4.128-.947c.561.053-.115 1.71-.92.103.303-.066.61-.1.92-.103zm2.888-.32c.885-.181 3.84-1.023 4.169.356.059-.035.279-.813.38-.718.41.38.456.885.424 1.413-.494-1.03-.318-.125-.653-.196-.088-.018-.222.145-.443.078-.29-.089-.499-.707-.682-.916-.306.436-.684.997-1.296.96-.432-.027-1.13-1.142-.57.078-.328-.109-.71-.355-1.076-.305-.41.055-.624.46-1.009.526-.853.144-.981-.677-1.535-1.122.764-.045 1.537 0 2.29-.155zm5.359-.014c.062-.283.837-.397 1.035-.307.481.219.303.508.215.988l-1.073-.507c.534.86-.433.984-.177-.174zm150.038 50.328c-.063-2.06-.123-4.154-.645-6.159-.366-1.403-1.263-3.918-2.96-4.162-2.56-.367-3.978 4.692-4.695 6.43-.144-2.046-.018-4.222-.79-6.163-.619-1.555-2.181-3.028-3.527-1.281-1.197 1.554-1.427 3.849-1.742 5.719-.408 2.423-.654 4.865-.952 7.303-1.169-2.26-1.373-4.846-2.298-7.195-.871-2.216-2.244-4.332-3.566-6.303-1.079-1.61-2.392-3.124-4.083-4.108-1.472-.856-4.046-1.783-5.45-.36-1.17 1.187-.987 2.775-.926 4.273.028.667.132 1.124-.454 1.46-.289.166-.74.08-1.056.169-.51.142-.902.384-1.334.705-3.027 2.25-4.422 6.304-4.854 9.92-.547 4.58 1.239 8.507 2.775 12.698.245.667 1.023 2.084.915 2.83-.117.817-1.143.838-1.835.855-2.09.052-4.274-.104-6.353-.299-4.95-.463-9.898-2.846-14.33-4.974-.81-.388-1.953-.61-2.613-1.222-.621-.575-.785-1.496-1.32-2.155-1.315-1.618-2.153-2.998-4.089-3.976-1.97-.995-3.982-1.915-5.906-3.005-2.378-1.348-4.576-3.056-6.855-4.566-4.236-2.805-8.444-5.88-12.935-8.266-2.086-1.109-4.418-1.288-6.585-2.196-2.11-.884-4.7-.885-6.902-.327-1.072.272-1.802.917-2.788 1.338-1.157.493-2.1-.052-3.117-.64-1.554-.9-3.095-2.365-.881-3.335.75-.33 1.691-.454 2.347-.972.7-.551 1.26-1.569 1.829-2.26 1.264-1.535 2.018-3.303 3.868-4.258 2.046-1.057 4.47-1.344 6.651-2.034 2.363-.748 4.677-1.637 6.996-2.51 4.178-1.572 8.522-3.27 11.525-6.733 2.59-2.986 3.718-6.842 3.613-10.757-.213-8.005-4.501-16.129-10.654-21.134-7.544-6.137-17.141-8.183-26.67-8.076-4.473.05-9.81.636-13.542 3.353-3.223 2.347-3.76 6.452-3.28 10.157.195 1.504.86 3.489-.2 4.814-.594.741-1.66.925-2.46 1.387-1.004.58-1.89 1.137-3.028 1.445-4.834 1.305-9.926.85-14.868.778-8.233-.12-16.672 2.109-22.815 7.91-4.96 4.685-6.447 13.519-.398 18.086 4.888 3.689 12.554 3.283 18.317 2.64 1.787-.2 3.016-.49 3.02 1.696.004 2.388-.391 4.884.218 7.23.96 3.692 4.508 3.78 7.645 2.985 1.655-.42 3.255-1.05 4.827-1.712 2.306-.969 4.419-2.394 6.696-3.361 1.543-.656 2.7 1.465 4.068-.005.253-.272.3-.677.681-.816.599-.217 1.602.546 2.126.787.786.362 1.577.628 1.89 1.499.294.814.166 2.11-.115 2.913-.611 1.746-2.256 1.4-3.758 1.284-2.62-.204-5.222-.636-7.84-.817-2.35-.163-4.55.539-6.576 1.697-4.257 2.434-7.739 6.304-11.43 9.487-1.899 1.638-3.735 3.407-5.8 4.834-.898.62-1.87 1.19-2.651 1.961-.775.765-.86 1.46-1.125 2.477-.472 1.812-2.814 2.698-4.279 3.653-2.07 1.352-4.266 2.306-6.588 3.135-4.917 1.756-9.872 2.982-15.012 3.889-2.517.444-5.012.735-7.554.975-2.19.207-4.52.881-6.707.342.63-1.022 1.747-1.635 2.616-2.426 1.121-1.018 2.075-2.225 2.923-3.475 1.652-2.435 2.81-5.047 3.076-8 .24-2.658-.035-5.838-1.639-8.083-.554-.776-1.65-.987-2.145-1.686-.493-.694-.305-1.89-.575-2.7-.687-2.06-2.726-4.612-4.521-5.808-1.947-1.298-4.795-1.775-7.044-1.098-4.166 1.253-6.726 5.705-8.632 9.304-1.042-2.191.702-5.443-1.332-7.237-1.716-1.514-3.078 1.418-3.652 2.673-2.694 5.89-3.306 12.136-4.435 18.438-.46-.453-.224-1.617-.181-2.158.08-1.007.073-1.995.075-3.006.005-2.554.48-5.12.263-7.672-.126-1.475-.596-4.586-2.74-4.096-1.818.416-2.956 2.972-3.527 4.535-.824 2.254-1.014 4.485-.963 6.866.057 2.631-.445 5.219-.566 7.846-.236 5.103-.003 10.162 1.461 15.088 2.398 8.065 7.911 14.766 15.27 18.812 4.053 2.23 8.55 3.64 13.174 3.944 2.506.164 4.925-.134 7.41-.393 2.45-.256 4.915-.374 7.363-.674 5.45-.668 10.76-2.394 15.714-4.715 2.608-1.223 5.06-2.723 7.625-4.026 1.03-.523 1.725-1.177 2.603-1.904.871-.72 1.112-.777 2.102-.777-.29-.777.558-1.016.935-1.508l-.064.715c.288-.624.556-.618.804.018.244-.712.426-1.444.721-2.138 1.131.572 1.036 1.932 2.548.939 1.245-.817 2.39-1.781 3.659-2.582 2.891-1.826 5.384-4.2 8.284-6.004 0 1.757.124 3.53-.111 5.277-.224 1.663-.844 3.216-1.338 4.808-.91 2.936-.973 6.073-1.982 8.98-.417 1.204-1.504 2.21-1.816 3.382-.317 1.195.416 2.153-.814 2.938-.867.553-1.951.787-2.912 1.122-1.465.51-2.856 1.231-4.282 1.842-6.69 2.866-13.214 5.786-19.412 9.64-5.882 3.657-11.853 7.434-17.256 11.778-4.69 3.77-9.43 8.643-10.571 14.793-1.108 5.965 1.843 12.367 7.77 14.331 3.08 1.022 6.564.895 9.772.94 3.453.047 7.112-.785 10.506-1.387 3.585-.636 7.109-1.63 10.704-2.199 3.45-.545 6.614-1.762 10.007-2.513 3.614-.799 7.32-1.233 10.954-1.952 1.636-.323 3.239-.8 4.88-1.1 1.795-.329 3.611-.452 5.39-.886 3.45-.843 6.752-2.202 10.217-2.987 1.557-.352 3.091-.825 4.65-1.154 1.434-.304 2.552-1.11 3.99-.448 1.161.535 2.088 1.453 3.187 2.092 1.426.829 2.93 1.571 4.416 2.284 2.987 1.434 6.085 2.424 9.208 3.5 3.28 1.13 6.502 2.42 9.9 3.166 3.484.765 7.039.979 10.547 1.584 7.185 1.24 14.309 1.796 21.602 1.84 3.687.024 7.372-.413 11.05-.361 3.256.045 6.087.78 9.064-.952 4.757-2.765 10.275-6.931 10.158-12.982-.106-5.481-3.394-10.717-6.477-15.04-3.745-5.25-9.084-8.946-14.317-12.567-5.577-3.86-11.842-6.526-17.703-9.894-2.998-1.723-5.763-3.576-9.018-4.8-1.554-.585-3.07-1.262-4.605-1.891-1.236-.507-3.02-.786-4.078-1.626-.66-.524-.723-1.318-.897-2.097-.386-1.724-.993-3.36-1.58-5.022-1.135-3.21-1.89-6.48-2.377-9.848-.465-3.21-1.497-6.549-.963-9.811 3.516 3.4 7.129 6.67 10.726 9.98 1.348 1.24 2.67 2.507 4.026 3.74 1.017.926 2.29 2.301 3.707 2.576 1.811.351 1.15-1.652 2.393-1.963.76-.19 3.052 1.742 3.653 2.123 3.809 2.418 8.026 3.95 12.215 5.596 4.392 1.726 8.91 3.258 13.636 3.693 4.366.402 8.83-.114 13.043-1.303 8.39-2.369 14.565-7.99 19.096-15.275 5.163-8.301 8.92-18.026 8.616-27.936z"/>
            <path fill="#1A1A1A" d="M221.665 66.723l-.014.03c.016-.011.02-.021.014-.03"/>
            <path fill="#1A1A1A" d="M222.07 66.83a2.952 2.952 0 0 0-.203-.777c-.278.44-.527.63-.162 1.096l.365-.319M241.418 129.766c.31-.33-.233-.455-.44-.46.021.355-.155 1.205.33 1.37a.967.967 0 0 1 .11-.91M233.222 60.589c-.534 1.03.645 1.35 1.328.853.514-.375.818-1.33.902-1.942.273-1.982-1.114-3.869-1.805-5.628-.179-.454-.424-2.013-.999-2.056-.661-.05-.71 1.387-.719 1.757-.025 1.117.27 2.255.617 3.31.374 1.137 1.3 2.501.676 3.706M235.761 56.453c2.053 1.828 3.695-1.216 3.551-3.017-.035-.446-.337-2.09-1.183-1.492-.425.3-.062 1.278-.265 1.707-.982 2.08-1.927-1.146-2.588-1.4-.804-.308-.885.749-.884 1.313.002 1.122.536 2.147 1.37 2.89M228.311 56.737c.484-.761 1.078-1.782 1.144-2.694.102-1.418-.724-1.3-1.404-.31-.48.698-.84 1.883-1.9 1.589-1.31-.364-.91-2.123-1.642-2.96-1.85 2.485 1.65 7.762 3.802 4.375M231.084 64.343c.766.165 2.761.104 2.07-1.068-.872-1.476-3.772.7-2.07 1.068M257.895 20.325c.14-.417-.053-.493-.387-.821-.316.291.09.599.387.821M272.169 95.886c.505.08.667-.187.487-.801-.796-.052-.959.215-.487.801M244.6 31.428c.556.255.343.777.333 1.219.287-.312.867-.882.63-1.33-.363-.69-1.313-.048-.964.111M225.63 22.739l-.255-.497c-.346.277-.88 1.011-.33 1.369.225-.274.42-.564.585-.872M232.312 27.61c.693.543.36-1.125.34-1.26-.104.195-.69.985-.34 1.26M231.928 26.763l-.16-.414c-.28.26-.624.791-.16 1.095a3.85 3.85 0 0 0 .32-.681M236.328 32.49l.17.157c.228-.461-.031-.807-.463-.821.03.258.128.48.293.664M217.761 84.354c.275-.187.525-.4.75-.64-.814-.497-.327.58-1.306-.081-.21.291.134.944.556.72M251.945 129.58c.31-.475.365-.461-.057-.821-.353.586-.316.436.057.821M187.295 54.026l.505.527c.078-.23.507-.88.216-1.095l-.721.568M193.284 55.764c-.269-.045-.912-.241-1.06.009.393.322 1.28.028 1.06-.01M349.09 149.09c1.259-.251 2.317-1.271 3.344-2.037 1.31-.978 2.553-2.043 3.825-3.07 2.397-1.934 4.572-4.055 6.64-6.363 4.08-4.552 7.152-10.412 8.548-16.399.706-3.03 1.58-6.579 1.18-9.71-.14-1.087-.353-1.286-1.402-1.41-.474-.055-1.677-.194-2.104-.005-1.106.491-1.703 2.58-2.03 3.631-.97 3.1-1.54 6.311-2.415 9.437-.858 3.064-2.241 6.173-3.609 9.038-3.043 6.375-7.273 11.708-11.976 16.889m25.427-35.456c-.761 8.657-3.162 16.906-8.546 23.878-2.56 3.314-5.57 6.197-8.831 8.816-3.369 2.705-6.809 5.252-10.63 7.269a141.942 141.942 0 0 1-3.066 1.584c-.57.284-2.012 1.33-2.67 1.164-.527-.133-.665-.541-.747-1.073-.185-1.193.59-1.788 1.372-2.554 3.145-3.078 6.3-6.166 9.24-9.44 5.806-6.465 10.168-14.208 12.593-22.562.747-2.572 1.414-5.173 2.22-7.727.49-1.556 1.187-4.325 2.82-5.101.874-.416 1.894-.011 2.814-.26.864-.234 1.435-.711 2.171.089 1.291 1.404 1.349 4.157 1.26 5.917M84.69 87.42l-.145.762c.03.006 2.337-4.392 2.72-4.923 1.296-1.8 2.983-3.299 4.61-4.803 3.446-3.185 7.479-5.757 10.855-8.999 1.111-1.067 3.102-2.683 2.662-4.487-.437-1.792-4.123-1.428-5.386-.91-1.98.814-3.587 2.515-5.062 3.997-1.609 1.617-3.23 3.216-4.594 5.046-1.47 1.973-2.866 4.11-3.767 6.4-1.01 2.565-1.404 5.22-1.894 7.917m.766 7.169c-1.536.469.39.786-.212 1.598-.66.891-1.769-1.854-1.935-2.373-.977-3.062-.54-6.783-.006-9.892.27-1.569.443-3.163.807-4.715.355-1.513 1.127-2.95 1.84-4.327 1.429-2.753 3.32-5.319 5.467-7.564 2.154-2.253 4.554-4.507 7.395-5.894 2.348-1.145 6.069-.35 7.168 2.151 1.123 2.557-.396 5.342-2.192 7.14-2.342 2.343-4.895 4.672-7.526 6.693-1.353 1.04-2.486 2.296-3.8 3.38-1.398 1.154-2.608 2.315-3.642 3.808-1.001 1.446-2.032 2.891-2.683 4.533-.713 1.798-.681 3.56-.681 5.462M408.175 21.818c-3.907.787-7.473 2.551-8.1 6.95-.568 3.998 2.15 7.697 5.489 9.568 3.61 2.025 8.135 2.361 11.733.117 3.787-2.362 4.646-7.095 2.34-10.809-2.571-4.144-6.88-5.368-11.462-5.826m2.668-1.817c4.57.671 8.81 3.933 10.35 8.326 1.586 4.528.128 9.507-4.072 11.988-8.49 5.015-19.836-3.342-17.787-12.948.52-2.439 1.997-4.328 4.004-5.756 2.216-1.577 4.896-1.62 7.505-1.61M50.91 173.582l-17.235-7.218-.707 7.236c-.064.653-.325 1.541-.213 2.185.119.687-.135.614.832.516 1.237-.125 2.478-.408 3.702-.61 2.201-.364 4.542-.468 6.696-1.003 1.1-.273 2.152-.308 3.268-.473 1.226-.181 2.418-.517 3.656-.633m-19.09 4.6c0-2.768.319-5.498.582-8.253.237-2.478.328-4.84 1.169-7.202.785 1.373 2.96 1.921 4.306 2.628 1.854.973 3.829 1.69 5.727 2.576 1.864.87 3.66 1.87 5.526 2.739.947.44 1.907.851 2.852 1.295.591.278 1.994.725 2.362 1.242 1.116 1.566-2.706 1.718-3.444 1.856-2.212.415-4.45.649-6.66 1.076-2.058.398-4.121.768-6.187 1.13-2.046.357-4.153.913-6.234.913M314.155 38.111c2.198-.232 4.387-.566 6.582-.787 2.08-.208 3.919-.43 5.818-1.398a276.366 276.366 0 0 0-7.81-2.263c-1.298-.356-2.592-.732-3.896-1.065-1.008-.257-1.887-.405-2.274-1.522-.452-1.3.803-1.103 1.585-.773 1.078.456 2.253.739 3.37 1.118 2.496.845 5.006 1.623 7.524 2.392.783.239 5.319 1.122 3.684 2.659-.699.657-2.26 1.018-3.115 1.49-1.097.606-2.29.847-3.511 1.088-2.543.503-5.182.696-7.757 1.131l-3.944.668c-.77.13-1.066.117-1.267-.755-.147-.633.044-1.267.185-1.88.356-1.56.753-3.111 1.145-4.661.15-.592.414-3.191.934-3.476 1.179-.645.269 2.954.181 3.395-.33 1.662-.723 3.313-.9 5a105.72 105.72 0 0 0 3.466-.36M72.417 83.524c-.145-3.295.269-6.6.022-9.888-4.245 4.007-2.154 10.199.288 14.546l-.31-4.658zm2.326-.612c.03 1.625.12 3.25-.036 4.866-.165 1.697.626 2.57 1.657 3.82-.876.895-2.884-1.19-3.44-1.805-1.141-1.266-1.991-2.947-2.747-4.467-1.611-3.237-2.72-6.704-1.431-10.258.478-1.317 1.062-3.109 2.328-3.876 1.389-.842 2.452.346 3.028 1.568 1.407 2.98.335 6.953.641 10.152zM120.014 143.636c1.31 1.197.68 2.432.251 3.927-.258.898-1.676 3.844-1.285 4.684.453.97 2.578 1.209 3.486 1.515 1.583.534 3.173 1.07 4.67 1.823.666.334 3.063 1.102 3.512 1.726.258.357.352.637.158 1.098-.34.809-.825.38-1.653.207-3.785-.793-7.539-1.808-11.05-3.481-.978 2.304-1.807 4.658-2.635 7.022-.242.693-.474 2.268-1.396 2.38-1.124.136-1.14-1.39-1.064-2.215.108-1.203.723-2.485 1.094-3.624.306-.94 1.38-2.898 1.248-3.867-.091-.667-.492-.62-1.206-.882-.674-.248-1.35-.494-2.024-.744-1.08-.401-2.157-.803-3.21-1.28-.577-.26-1.785-.566-2.203-1.108-.243-.314-.513-1.446-.207-1.76.716-.734 5.476 1.242 6.455 1.512.65.18 1.302.316 1.932.55.238.09.52.452.779.466 1.095.056 1.182-.798 1.521-1.714.79-2.13 1.646-4.301 2.827-6.235"/>
        </g>
    </g>
</svg>
