<svg xmlns="http://www.w3.org/2000/svg" width="280" height="124" viewBox="0 0 280 124">
    <g fill="none" fill-rule="evenodd">
        <path fill="#FFF" d="M0 0h280v123.2H0z"/>
        <g fill-rule="nonzero">
            <path fill="#2B44FF" d="M115.374 56.395l1.588 16.042 8.65-4.936v15.384c0 .283-.168 1.257 0 1.502.143.208 1.2.214 1.45.25 1.63.227 3.264.43 4.9.611 4.314.477 8.93 1.159 13.26.612 3.763-.476 7.412-1.815 10.85-3.372a60.033 60.033 0 0 0 3.566-1.758c.248-.133 1.147-.446 1.282-.716.11-.22-.149-.995-.183-1.227l-.436-2.93-2.03-13.645 3.834 3.828c.3.3.87 1.152 1.286 1.285.305.097 1.06-.204 1.36-.262l6.513-1.255c.505-.098 1.645-.094 2.071-.4.23-.164.24-.499.322-.816l1.588-6.222c.095-.374.627-1.552.492-1.928-.048-.135-.283-.227-.427-.315l-9.828-6.003-5.384-3.288c-.752-.46-1.675-1.287-2.527-1.544-.529-.16-1.298-.04-1.845-.055l-3.336-.096c-.174-.005-.784-.129-.93-.026-.123.085-.072.204-.112.408-.098.496-.099 1.032-.147 1.537-.038.404.038 1.146-.144 1.513-.116.234.031.14-.126.254-.188.134-.787.091-1.01.117l-3.27.38c-1.295.15-2.605.432-3.906.302-1.974-.197-4.101-.187-6.038-.603-.504-.108-.685-.391-1.074-.779-.758-.757-1.508-1.523-2.275-2.272-.375-.367-.214-.305-.602-.165-.485.174-.977.595-1.416.863l-5.05 3.075-10.274 6.258-.642.392"/>
            <path fill="#1A1A1A" d="M213.646 57.06c-2.118 8.04-6.378 16.808-14.96 19.371-2.086.623-4.116 1.094-6.283.856-.206-.022-.379.007-.575.01-.351.007-.048.133-.442.012-.308-.095-.595-.333-.915-.437-.852-.279-1.76-.333-2.625-.558a67.796 67.796 0 0 1-6.379-2c-.97-.358-1.862-.859-2.775-1.34-.927-.489-1.91-.792-2.849-1.241-.741-.355-2.011-.817-2.532-1.482-.556-.709.213-2.219.433-2.973.747-2.565 1.637-5.093 2.199-7.71 1.94 2.248 4.632 3.64 7.42 4.538 1.512.488 3.067.84 4.64 1.06 1.428.2 2.97.442 4.4.158 1.081-.214 2.438-.71 3.21-1.536.275-.294.605-.834.451-1.262-.196-.543-.767-.287-1.076-.692-.269-.353-.226-1.179-.312-1.609-.152-.76-.36-1.5-.615-2.232-.493-1.422-1.109-2.847-1.256-4.36-.128-1.312.17-2.554.825-3.693.31-.538 1.087-2.003 1.845-1.942.833.067-.29 3.577-.327 4.293-.145 2.838.235 5.862 1.692 8.35.557.952 1.364 2.061 2.554 2.18 1.261.124 2.279-.868 2.879-1.872 1.465-2.45.726-5.81-.016-8.377-.91-3.15-3.284-5.32-4.786-8.15 2.242.226 3.442 1.65 4.593 3.457 1.267 1.99 2.253 4.378 2.74 6.693.245 1.17.075 2.344.077 3.525 0 .392 0 1.84.64 1.782.684-.06.918-1.693 1.019-2.191.23-1.142.48-2.285.68-3.433.354-2.03.511-4.11.935-6.128.072-.34.215-1.287.725-1.031.394.196.33 1.66.345 2 .035.838.085 1.675.092 2.514.01 1.244-.238 2.53-.116 3.766.079.808.512 1.7 1.05.611.532-1.08.64-2.427.938-3.588.312-1.22.634-2.457 1.296-3.54.184-.3.381-.777.79-.636.296.103.515.806.607 1.055.414 1.12.344 2.368.318 3.542-.032 1.438-.187 2.845-.554 4.24zm-41.3 2.086c-.113-.036-.594-.082-.713-.092-.14-.012.019-.27-.32-.197.066.162.182.27.349.324-.51.172-.884-.252-1.232-.307-.333-.052-.347 0-.675.351-.356-.434-.29-.163-.582-.163-.106 0-.11.161-.284.142-.151-.017-.167-.246-.257-.273-.485-.147-.984.592-1.535-.05-.133.668-1.661-.168-2.25-.05-.616.122-.35.343-.848-.035-.475-.36-.342-.12-.894.174.012-.007-.312.212-.282.216-.382-.045-.36-.44-.844-.42-.513.023-.731.425-1.2-.07-.102.37-.123.211-.363.304a.347.347 0 0 1-.347-.104.252.252 0 0 1-.199.188c-.261.023-.752.06-.99-.067-.357-.189-.07-.261-.317-.474-.111.586-.354.462-.866.516-.391.042-.477-.078-.85-.136-.368-.057-.844.085-1.202.146-.148.025-.347.129-.497.092-.136-.032-.194-.138-.276-.165-.098-.034-.077-.12-.247-.161-.118-.029-.328.081-.445.1-.836.136-1.64.137-2.437-.192.393.69-.918.318-1.152.032-.292.458-.646.135-1.235.17-.567.035-1.42.208-1.65-.498-.045.144-.367.56-.495.624-.371.184-.416-.088-.761-.2-.47-.15-.373.136-.664.195-.493.098-.759-.249-1.194-.433-.019.287-.028.463-.276.641-.22-.799-1.002.066-.868-1.002-.298.194-.717.343-.802.735.498-.137.053.189.032.2-.066.034-.288-.278-.34-.322l-.042.442c-.198-.1-.385-.277-.546-.366-.145-.08.063-.247-.182-.259-.13-.006-.264.274-.4.298-.208.036-.108-.261-.195-.251-.132.015-.347.208-.447.205-.328-.013-.107-.165-.357-.235-.447-.125-.418.167-.74.273-.735.241-.661-.87-1.41-.129-.179.177-.294.451-.54.436-.507-.032-.329-.634-.226-.929.107.053-1.855 1.06-1.84 1.021.013-.241.321-.428.045-.642-.225.483-.462.492-.983.582-.252.044-.302.102-.573-.003-.172-.067-.288-.341-.46-.357.024.002-.29.242-.339.263-.283.128-.463-.017-.739.036-.235.045-.328.245-.562.19-.312-.073-.129-.446-.558-.342-.147.036-.235.319-.467.377-.36.091-.803-.079-1.184.01-.302.07-.527.1-.792.115-.213.012-.125-.154-.519.042l-.167-.42-.59.531a2.872 2.872 0 0 1-.072-.482c-.294.294-.664.344-1.059.37-.427.03-.746.122-1.162.2-.132.025-.47.065-.579.019.016.006-.202-.084-.136-.067a2.763 2.763 0 0 1-.08-.176c-.036-.166-.155-.174-.357-.022-.104-.016-.307-.153-.41-.12-.27.088-.233.296-.5.265-.174-.02-.262-.276-.443-.293-.276-.027-.516.283-.765.35.757-.206-.983-.046-.442-.032-.354-.01-.723-.027-1.05.132-.181-.124.038-.373-.144-.475-.167-.093-.18.152-.199.158.105-.03.053.179-.052.216-.326.116-.588-.178-.605-.47-.277.417-.355.25-.763.275-.402.026-.749.237-1.151.233-.796-.008-1.336-.285-1.602-.995.848.103 1.702-.442 2.531-.314.273.042.443.247.682.21.294-.044.5-.365.877-.4.832-.076 1.652-.001 2.49-.129 1-.152 2.045-.243 3.055-.169.78.058 1.413-.24 2.205-.298 1.024-.075 2.056-.088 3.081-.142 1.054-.055 2.188-.223 3.238-.17.328.018.61.05.936.03.138-.008.268-.102.413-.088.188.019.269.211.464.204.332-.01.686-.284 1.08-.292.648-.012 1.294-.01 1.944-.047.572-.033 1.185-.166 1.754-.16.402.006.501.348.735.384.421.063 2.551-1.149 2.735-.061 1.109-.759 2.596-.116 3.83-.259 1.585-.183 3.2-.02 4.796-.085a36.7 36.7 0 0 1 4.913.148c.67.063 1.317.123 1.99.084.299-.017.645-.093.945-.024.072.017.628.404.559.416.304-.273.098-.313.632-.327.412-.01.8.078 1.21.103.734.043 1.474-.059 2.207-.036.612.018 1.21.109 1.826.113.663.005 1.446.024 1.926.558l-.152-.503c.74.058 1.471.322 2.22.198-.19.182-.382.33-.454.596.403-.052.676-.333 1.101-.336.357-.002.431.177.808-.054l.14.85c.52-.123.179-.512.217-.862.424.127.783-.02.616.59-.13.47-.716.703-1.158.56zm-.733 5.239c-.182.51-1.756.219-2.128.165-.48-.07-1.03-.18-1.473-.235a.773.773 0 0 0-.191-.18.456.456 0 0 1-.212.165c-.203.044-.203.254-.47.208-.013.31.203.134.368.246-.416.28-.226-.042-.46-.037a.227.227 0 0 0-.242-.096c-.131.034-.253.09-.364.169-.104.11-.193.115-.267.017a.463.463 0 0 0-.26-.133c-.41.067-.525.25-.987.22-.66-.043-1.374.13-2.024.04-.403-.058-1.076-.69-1.258-.073-.279-.458-.722-.769-.989-1.236 1.242-.072 2.483-.157 3.726-.202 1.088-.04 2.278.083 3.294.032.953-.048 1.961-.153 2.934-.24 1.03-.092 1.372.134 1.003 1.17zm-32.39.075c.45.125.88-.158 1.317-.069.145.03.444.293.51.298.12.01.474-.248.626-.283.96-.219 2.124-.195 3.084-.061.509.071.586-.162 1.03-.275.462-.117 1.118-.027 1.604-.06 1.144-.076 2.287-.021 3.422-.105 1.166-.086 2.326-.132 3.493-.192.794-.041 2.704-.495 3.362.095.543.487-.156 1.331-.7 1.524-.406.144-.6-.16-.902-.13-.343.032-.224.438-.53.062-.19.374-1.384.214-1.726.24-.745.053-1.376.203-1.884-.493l.104.602c-.673-.36-1.395-.245-1.98-.12-.289.063-1.177.492-1.49.307-.216-.127.164-.345-.2-.454-.19-.057-.52.26-.752.244-.645-.044-.462-.478-1.095.074-.215-.186-.286-.5-.258-.771-.46.392-.421 1.046-1.244.926-.306-.044-.363-.357-.522-.415-.34-.123-.38.098-.674.273-.112.066-.247.172-.378.186-.27.027-.312-.097-.35-.093-.178.02-.404.11-.617.046-.19-.059-.246-.395-.582-.317-.322.076-.324.294-.266.621-.317-.033-.51-.21-.746-.4-.24.558-.744.095-1.023.567-.364-.434-.597-.315-1.048-.738l.067.53c-.352-.068-.509-.316-.809.012-.291-.542-1.174.231-1.628-.293-.202.664-1.54.505-2.105.516-.501.01-.872-.03-1.361.086-.433.103-1.032.21-1.438.162-.266-.03-.557-.08-.888-.043-.477.052-.889.299-1.383.182-.745-.176-1.201-1.154-.372-1.583.567-.294 1.59-.186 2.214-.24 1.035-.09 2.195-.278 3.23-.193.81.067 1.546-.126 2.37-.207.621-.061 1.639-.172 2.044.444.155-.18.14-.554.474-.462zm-11.329 8.423c-.11-.553 4.62-.858 5.09-.894.986-.076 1.975-.13 2.963-.156.812-.02 1.57.135 2.383.01.759-.116 1.675-.355 2.335.182.097-.734 2.945-.376 3.487-.374 2.358.008 4.615.014 6.897-.132 1.304-.084 2.688-.196 3.992-.131.588.03 1.062.186 1.647.05.381-.089.792-.273 1.157-.012.427.305.61 1.343.316 1.776-.215.315-.404.28-.747.226-.526-.084-.917-.206-1.453.008.087-.035-.36.065-.323.062-.608.046-1.441.47-1.965-.02.21.037.515-.337.25-.368-.198-.023-.324.19-.48.261-.53.244-.8.168-1.118-.344-.638.553-.707.4-.987-.28-.216.166-.263.559-.432.688-.026.019.079.258-.044.248-.114-.01-.15-.196-.238-.21-.056-.01-.085-.174-.139-.184-.058-.01-.118.094-.183.091-.176-.008-.678.365-.498-.159-.266.338-.38.123-.476-.185l-.92.7c-.144-.397-.39-.289-.698-.15.093-.276.034-.537-.2-.345-.135.111-.225.463-.364.613-.56-.568-.764-.412-1.539-.338-.295.028-.662.082-.926-.096-.233-.157-.364-.733-.76-.268.088-.103-.051.692-.076.818a1.732 1.732 0 0 1-.446-.435c-.228.452-.828.046-1.32.139-.773.145-1.571.39-2.254-.186-.049.186-.609.423-.61.43.034-.329.241-.213-.183-.276-.078-.011-.166.13-.24.145-.253.052-.548.002-.803-.005-1.06-.03-2.03.204-3.077.29-.353.028-.772.085-1.103-.049-.341-.137-.332-.292-.677-.204.109-.028-.216.313-.199.3-.046.034-.24-.132-.308-.12l-.06.219-.25-.031c-.228.03-.433-.2-.647-.208.04.002-.577.231-.55.245-.43-.214-.306-.152-.852-.022-.516.124-1.03.095-1.56.172-1.54.224-.622-.548-.812-1.49zm-1.36 7.7c-.29-.41.481-.552.727-.589.405-.06.942.06 1.212-.005.41-.098.807-.33 1.27-.394.583-.08 1.171-.093 1.757-.143.195-.017.437-.084.627-.072.283.016.4.166.629.167.389.002.868-.243 1.267-.288.51-.058 1.026-.085 1.539-.11 1.08-.055 2.15-.032 3.23-.034.493 0 1.805-.512 2.05.062.342-.435 1.218-.375 1.707-.388.86-.022 1.711-.105 2.57-.145.737-.034 1.56.123 2.282.013.398-.06.53-.188.982-.13.335.042.847-.136 1.135-.057-.015-.004.36.228.243.235.128-.008.12.082.262.042.187-.053.101-.287.487-.37.603-.13 1.406.02 2.031-.013a31.445 31.445 0 0 1 1.82-.044c.28.002.626-.065.898-.01.134.026.417.2.53.183.32-.05.483-.273.916-.26.49.016.932.01 1.42-.028.473-.036.548-.103.783.29.232.39.296.897-.131 1.162.277-.018.618.354.291.56-.202.127-.607-.16-.849-.14-.298.026-.532.184-.856.193-.341.01-.687.097-1.024.103-.35.007-.615-.15-.947-.083-.292.059-.323.298-.675.088-.175-.105-.205-.492-.443-.496-.32-.005-.192.408-.376.6-.05-.591-.506.387-.687-.33-.167.237-.786.57-1.086.38-.273-.175-.183-.57-.296-.854-.19.511-.698 1.041-.652.11-.247.305-.915.257-.748.789-.2-.004-.248-.291-.418-.313-.146-.019-.262.094-.284.092.08.007-.24.113-.245.114.216-.044-.624-.119-.48-.118-.196-.001-.435.158-.662.158-.208 0-.415-.082-.62-.106-.531-.06-.42.056-.754.223-.124.062-.155.167-.33.154-.13-.01-.179-.179-.193-.18-.183-.019-.048-.08-.33-.052l-.098.168c-.102.13-.235.163-.397.098-.419.09-1.807.479-1.671-.242l-.638.312c-.092-.58-1.247.19-1.506.228-.33.05-.361-.077-.674-.145-.057-.012-.17.174-.302.148-.344-.07-.405-.104-.464-.477-.245.458-.449.253-.893.329-.098.016-.16.21-.302.177-.102-.025-.105-.21-.175-.234-.063-.022-.053-.169-.146-.19-.107-.024-.47.274-.574.32-.236.104-.622.276-.851.224-.284-.063-.158-.274-.56-.25-.632.037-.896.576-1.29-.273-.177.34-.155.432-.44.544-.21.083-.745-.003-1.022-.014-1.186-.043-2.352.36-3.528.255-.516-.047-.952-.15-1.474-.066-.548.09-1.084.22-1.64.273-.283.027-.873.108-1.012-.254-.122-.318.333-.535.078-.897zm2.326 13.045c-1.538 1.03-2.812 2.434-4.224 3.624-1.416 1.192-2.54 2.518-3.813 3.84-1.177 1.22-2.258 2.375-3.681 3.298-.901.584-1.704 1.302-2.63 1.853-.692.412-1.742.955-1.404-.307.347-1.292.986-2.599 1.542-3.806.79-1.715 1.585-3.415 2.44-5.099.32-.632.5-1.262 1.01-1.766.553-.548.941-1.264 1.548-1.782 2.552-2.179 6.399-.495 9.212.145zm4.824.739c-.698.366-1.479.456-2.218.698-.63.206-1.216.573-1.893.6.617-.463 1.146-1.093 1.842-1.444.782-.396 1.492-.108 2.269.146zm30.62 3.048c-2.566-.866-4.955-2.142-7.455-3.169-.431-.177-3.805-1.288-3.737-1.817 2.365-.433 4.8-1.177 7.17-.366 2.156.737 3.91 2.506 5.58 3.986.435.386 3.128 2.145 2.887 2.705-.167.388-1.465.282-1.771.203-.396-.103-.624-.343-.935-.608-.519-.44-1.093-.716-1.74-.934zm-4.737-14.466c.39-.358.623-.902.995-1.234.478-.425 1.25-.218 1.773.003 1.57.663 2.91 1.778 4.47 2.47 1.728.766 3.224 1.791 4.783 2.847 1.424.965 2.965 1.764 4.42 2.685 1.481.939 3.14 1.549 4.642 2.454 1.53.922 3.052 1.847 4.521 2.863 2.62 1.81 5.348 3.67 7.286 6.245a27.543 27.543 0 0 1 2.66 4.31c.664 1.351 1.385 3.226.524 4.632-.827 1.349-2.236 2.412-3.43 3.42-.451.38-.881.843-1.467 1.009-.712.2-1.543.145-2.276.205-3.917.317-7.566.017-11.427-.683-3.722-.676-7.46-1.054-11.21-1.523-2.116-.265-4.231-.574-6.319-1.015a35.63 35.63 0 0 1-2.673-.663c-.762-.224-1.403-.718-2.187-.914-3.327-.83-7.134-1.148-10.428-2.546 2.915-1.21 6.013-1.943 9-2.95 3.144-1.059 6.215-1.947 9.53-2.248 1.705-.155 3.23-.59 4.871-1.047 1.563-.434 3.196-.567 4.801-.762.714-.086 2.752.043 2.989-.89.352-1.39-1.65-1.55-2.504-1.426-1.21.177-2.209.479-3.136-.514-.946-1.015-1.865-2.054-2.829-3.055-1.786-1.857-3.627-4.005-6.152-4.839-3.08-1.016-6.653-.051-9.727.527-3.246.61-6.488 1.195-9.673 2.082-1.32.368-3.02 1.177-4.39 1.047-1.35-.128-2.878-.349-4.182-.738-.59-.176-1.075-.502-1.603-.806-.686-.396-1.439-.65-2.167-.957-1.473-.622-2.91-1.195-4.5-1.44-1.338-.205-2.759-.327-4.056.142-1.273.46-2.4 1.398-3.288 2.4-.965 1.087-1.762 2.306-2.552 3.521-.38.584-.843 1.093-1.236 1.663-.33.479-.523 1.011-.872 1.477-.781 1.041-1.312 2.373-1.786 3.585-.526 1.345-1.11 2.946-.985 4.41.048.553.097 1.285.311 1.798.273.653.66.636 1.22.882.962.423 1.231 1.592 2.473 1.364 1.166-.214 2.176-1.174 3.026-1.94 1.108-.996 2.169-2.048 3.229-3.096 1.088-1.075 2.16-2.268 3.026-3.533.34-.498.606-1.06 1.009-1.514.512-.577 1.088-.647 1.784-.877 6.09-2.011 12.208-3.952 18.487-5.28 1.504-.319 3.02-.73 4.498-1.153 1.568-.449 2.38.026 3.673.88 2.702 1.788 5.896 3.046 8.906 4.212.947.367 2.456.39 3.196 1.114-4.39.67-8.574 1.957-12.809 3.24-2.088.632-4.2 1.18-6.295 1.784-2.097.605-4.114 1.389-6.181 2.07-2.058.68-4.233.956-6.31 1.582-2.122.639-4.234 1.079-6.411 1.467-2.199.392-4.382.845-6.588 1.196-1.01.16-2.02.328-3.018.549-.978.216-1.922.735-2.904.855-4.386.536-8.687 1.732-13.056 2.408-3.262.505-8.938 1.209-11.054-2.064-2.127-3.292.483-7.132 2.812-9.485 1.447-1.463 3.073-2.75 4.78-3.895 1.825-1.226 3.582-2.55 5.409-3.773 4.133-2.77 8.615-5.029 13.055-7.255 2.132-1.068 4.19-2.213 6.264-3.386 1.03-.582 1.599.357 2.412.995.64.502 1.815 1.74 2.71 1.168.034.206.07.412.103.618l.787-.359c.176.462.156.75.648.992.302.149.947.328 1.235.066l.176.547c.252-.02.3-.74.348-.909.432.63 1.028 1.157 1.787 1.335.004-.04-.123-.558-.118-.562.24-.147.543.483.67.617.422.447.674.378 1.14.017.033.037.191.449.214.441.101-.032.292-.397.313-.43-.029.48.897.577 1.225.474l-.22-.422c1.139-.152 1.586 1.058 2.68.997.808-.046.16-.222.617-.569.4-.302.471.36.51.338a.865.865 0 0 0 .178-.275c.148.567 1.325 1.075 1.204.143.463.186.792.493 1.305.558.623.08 1.289-.053 1.91-.105 1.34-.111 2.603-.384 3.81-.998.716-.364 1.478-.694 2.151-1.133.564-.368 1.632-1.483 2.382-1.003-.192-.566.712-.041.74-.77l.436.327c.088-.19.063-.491.18-.658.16-.228.238-.094.375-.222.153-.144.286-.53.47-.64.188-.112.41.023.613-.076.31-.15 1.64-1.617 1.415-.36.572-.195.13-.372.202-.754.144-.763.493-.214.84-.147.57.11.56-.362.877-.704.29-.313.835-.453.648-.996.214.116.26.342.285.562zm-34.345-16.315c-.45.5-.785.286-1.284.212-.054-.178-.145-.203-.274-.074a1.377 1.377 0 0 1-.477.168c-.41.1-.834.058-1.235.21.012-.134.153-.372.062-.508-.42.291-.682.476-1.199.482-.418.004-1.154-.316-1.501.067l-.033-.447c-.17.085-.318.199-.444.341-.024-.22-.037-.387-.183-.566-.277.57-.58.583-1.118.365.076.03-.538-.329-.514-.23-.194-.816 2.868-.749 3.189-.781.803-.081 1.605-.128 2.41-.202.762-.07 1.33-.19 1.858.447-.235-.919 1.99-.873.743.516zm-35.104-14.25c.084 1.39.394 2.866-.147 4.203-.434 1.075-1.3 2.288-2.233 2.99-1.91 1.436-3.53-.321-3.796-2.252-.277-2.015.272-4.476 2.007-5.717 1.036-.742 2.04-.691 3.233-.447.28.057.735.035.895.314.037.065.004.908.041.91zm25.375 18.508c-.33.166-.675.264-.966.49-.101.08-.136.259-.243.325-.195.12-.474.04-.678.14-.336.165-.578.4-.978.552-.594.225-1.115.534-1.677.827-.936.487-1.94.906-2.918 1.304-.494.2-1.86.59-1.813 1.314-.11.03-.223-.212-.454-.193-.316.027-.735.393-1.064.483-.614.168-1.09.183-1.09.967-.196-.133-.246-.458-.506-.501-.293-.049-.417.267-.651.366-.276.116-.62.004-.893.128-.12.126-.253.237-.399.33a1.516 1.516 0 0 1-.444-.013c-.58.123-1.115.342-1.697.455-.567.11-.955.151-.717.822-.606.118-.755-.525-1.44-.29-.838.288-1.622.496-2.498.672-.447.09-.913.29-1.363.337-.321.034-.62-.08-.937-.045-.38.043-.687.22-1.081.226-.374.006-.767-.061-1.134-.127.052.148.117.29.195.426-.254-.053-.371-.359-.586-.404-.226-.047-.429.186-.617.134-.08-.022-.026-.269-.17-.316-.13-.043-.185.008-.315-.013-.043-.006-.585-.036-.671.01-.15.08.002.23-.028.252-.51.377-.516.173-.743-.22-.333-.578-.736-.214-1.342-.315-.675-.112-1.207.186-1.872.143-.717-.046-1.56-.582-2.194-.895-1.369-.677-2.704-1.317-3.853-2.342-2.248-2.003-4.076-4.467-5.155-7.288-1.158-3.03-1.377-6.19-1.284-9.404a44.92 44.92 0 0 1 .515-5.777c.21-1.314.254-3.65 1.735-4.248.255 3.077-.549 6.213-.042 9.27.153.921.525 2.149 1.23 2.83 1.043 1.01 1.287-.45 1.381-1.255.176-1.498.502-2.987.733-4.477.23-1.49.394-2.995.715-4.47.117-.537 1.06-4.472 1.753-4.286-.14 2.863-.512 5.677-.527 8.55-.006 1.153-.109 2.37.057 3.515.086.59.623 2.318 1.545 2.174.854-.133-.084-1.351-.164-1.82-.211-1.244.058-2.79.255-4.025.372-2.335 1.204-4.726 2.563-6.677 1.217-1.748 3.09-3.411 5.349-3.103.964.132 1.717.371 2.201 1.252.38.691 1.879 1.477 1.01 2.342-.79.788-2.068.157-2.946-.03-1.076-.23-2.229.046-3.128.677-1.544 1.08-2.423 3.014-2.71 4.827-.387 2.444.647 8.842 4.457 7.408 2.53-.953 4.437-4.38 4.224-7.003-.085-1.05-.496-3.044.957-3.327 1.862-.364 2.125 1.688 1.936 3.022-.274 1.94-1.299 3.743-2.472 5.277-1.022 1.336-2.21 2.172-3.44 3.276-.365.327-1.294 1.062-1.138 1.67.171.666 1.631.855 2.216.964 2.891.542 6.152.044 9.039-.334 5.932-.777 11.787-2.69 16.652-6.209.197 2.177.445 4.347.536 6.531.044 1.06.055 2.137.177 3.191.074.65.344 1.555-.393 1.928zm-16.451 7.585c-.233.121.019-.615-.046-.372.348.125.363.249.046.372zm24.611-26.343c.37-.408 1.38-1.378 1.701-.458.12-.392.135-.973.595-.443.184-.65 2.206-.59 2.707-.618 1.604-.092 3.215-.141 4.813-.3 3.285-.328 6.627-.159 9.923-.17.714-.002 1.426-.04 2.134.063.684.1 1.403.38 2.1.278.62-.092 1.026-.262 1.664-.19.763.088 1.504.15 2.274.148 3.406-.013 6.81.125 10.217.13.664.002 1.459-.128 2.082.154.23.104.483.452.66.49.201.044.081-.271.351-.129.363.19.082.777-.157.87.143-.056-.259-.111-.218-.113-.191.01-.354.156-.559.147-.312-.013-.573-.204-.824-.371-.004.068.134.524-.024.547-.136.02-.263-.43-.276-.534-.763.672-1.57.297-2.516.383-.67.06-2.069.508-2.537-.193a.713.713 0 0 1-.18.391c-.133.204-.248.187-.346-.052-.033.001-.359.072-.365.072-.23-.018-.527-.1-.76-.12-.361-.031-.295.231-.582.235-.157.003-.558-.224-.832-.238-.474-.025-.959.176-1.427.115-.322-.042-.613-.304-.929-.314-.394-.013-.521.287-.833-.135-.064-.017-.104.231-.13.236.007-.001-.296.043-.332.057-.062.024-.305.135-.378.136-.16.003-.246-.11-.415-.113-.28-.005-1.171.24-1.146-.276-.997.37-1.848.225-2.87.313-.47.04-.765-.023-1.212-.11-.56-.107-.93.029-1.488.056-.536.026-.705-.2-1.158-.405-.178-.08-.296-.187-.515-.143-.125.026-.036.236-.073.25-.192.075-.327-.004-.59.014-.487.033-.68.44-1.181.058l.499-.06c-.479-.203-1.11-.307-.994.432-.409-.057-.055-.335-.256-.435-.2-.1-.425.067-.678.15-.667.216-1.223.108-1.919.07-.79-.045-2.64.6-3.206-.237-.017.176-.206.668-.458.645-.083-.008.147-.53.173-.585-.13.277-.723.33-1.015.473l.098-.446c-.27.289-.403.113-.722.209-.139.042-.34.33-.46.347a.575.575 0 0 0-.524-.208 1.056 1.056 0 0 0-.42-.02c-.56.04-1.07.351-1.627.14-.482-.184-.668-.656-.956.095-.075-.134-.15-.267-.227-.4l-.28.434c-.364-.239-.387-.377-.806-.29a.36.36 0 0 1-.303-.016l-.074.22c-.01.186-.065.247-.165.184a.674.674 0 0 1-.227-.137c-.278.02-.633.094-.93.053-.116-.015-.837-.396-.89-.336zm8.498-4.974l.098.151c-.45.238-.557.101-.603-.377.22.005.257.392.505.226zm.28-.28c.216.096.465.284.67.032.137.4-.885.946-.67-.032zm1.401.177c.456.308-.637.06-.635.06.196-.18.408-.201.635-.06zm3.92-1.718c.157.789.588.766 1.284.4 1.014-.535 1.186-1.41 1.256-2.457.068-1.002.191-1.39 1.225-1.18.721.145 1.332.023 2.06.002.776-.021 1.05.098 1.112.896.062.8.204 1.408.785 2.016.59.62 1.377.989 2.144 1.335.394.178.765.37 1.2.408.17.015 1.05-.096 1.068.182.014.21-1.205.8-1.334.87-.565.307-1.129.583-1.746.77-1.42.428-2.926.453-4.397.427-2.372-.041-5.65-1.045-7.068-3.149l2.411-.52zm-.212-6.83c-.376-.315-.619-.79-.93-1.163-.158-.189-.273-.248-.423-.343-.157-.099-.246.042-.377-.191-.34-.603.708-1.45-.403-1.682-.376-.078-1.282.22-1.391-.32-.156-.761 1.299-.811 1.64-1.198.681-.768.22-2.072.634-2.959.392-.84 1.404-.99 2.204-1.242 1.113-.351 2.24-.555 3.37-.837.791-.196 2.105-.986 2.838-.288-1.131.251-.474.645.28.868.854.252 1.76.35 2.645.42.911.073 1.84.087 2.74-.095.832-.168 1.762-.891 2.635-.706-.484.842-1.927 1.302-2.804 1.523-.447.112-.733.077-.673.634.058.54.528 1.081.634 1.643.14.745.017 1.429-.248 2.128-.26.689-.321.779-.093 1.437.355 1.025-.408 2.157-1.113 2.901-2.85 3.008-8.307 1.869-11.165-.53zm7.244-17.98c.011.03.001.019 0 0zm.888 7.592c-.119.088-.8.274-.771.008.038-.357.652-.228.77-.008zm1.551-7.201c-.16-.12-.607-.07-.28-.522l.28.522zm-10.737-2.853c.203-.53.429-1.022.52-1.585.057-.347-.055-.743.43-.797-.618-.27-.625-1.334-.661-1.886-.05-.76-.29-1.776.044-2.483.342-.726.805-.714.944.15.055.34-.154.449-.194.685-.077.466.077.364.378.008.125.362.172.905.678.882-.034-.098-.228-.314-.163-.435.1-.186.585.098.647.141.443.31.54.594.223.985.438.047.07.43.353.53.432.153.142-.57.096-.696.262.102.35.22.516.427a4.4 4.4 0 0 1 .267.445c.09.28.273.35.552.21.559.176 1.33.149 1.83.455.229.14.312.446.503.562.215.131.503.072.733.154-.084.192-.016.296.205.312.172.016.338.054.499.116.12-.09.251-.162.392-.214.095.167.23.208.403.124.515.096.762.291 1.09.583.294.261.054.282.376.26.13-.01.357-.23.652-.187.17.033.335.086.493.157.171.147.353.165.545.056.312.152.342.422.722.46.421.04.286-.484.575.255.388-.784.531.465.933.566.416.105.46-.232.817.136.106.11.1.293.22.41.197.192.462.153.633.415-.095-.146.022.517.02.495.027.293-.233.62.3.595-.007.031-.262.404-.312.362a1.405 1.405 0 0 1-.031-.13c-.057.025-.083.38-.072.443.045.007.064-.026.055-.1-.087.273.045.447-.123.707-.108.167-.402.291-.56.394-.377.248-.746.496-1.115.76-.859.615-1.82 1.356-2.903 1.484.544-.533 3.67-2.552 2.102-3.132a5.14 5.14 0 0 0-1.125-.232c-.378-.028-.77.189-1.186.053-.504-.162-.314-.636-.622-.805-.653-.36-.499.486-.704.708-.216-.226-.17-.337-.51-.357-.347-.02-.43.299-.833.1-.557-.275-.262-.822-1.052-.835.014-.12.128-.456-.023-.55-.203.264-.045.559-.234.812-.094.127-.299.229-.448.27-.35.096-.4.28-.343-.247-.26.467-1.055.275-1.528.228-.77-.076-1.587-.222-2.324-.469-.682-.228-1.046-.62-1.609-.977-.212-.134-.314-.083-.619-.167-.3-.082-.594-.243-.452-.611zm1.623-8.274c.116-.07.2.974.059 1.17-.258-.408-.715-1.006-.06-1.17zm.37-.416c.374-.338.115.535.046.681l-.415-.266c.177-.108.22-.28.37-.415zm14.088-1.407c3.45.724 6.868 2.077 9.635 4.304 2.52 2.029 4.3 4.906 5.297 7.968 1.035 3.177.687 6.703-1.776 9.134-1.297 1.281-3.01 2.054-4.643 2.808-.783.362-1.588.663-2.374 1.016-.564.253-1.252.659-1.896.588.328-.345.805-.352 1.202-.563.48-.256.873-.746 1.286-1.096.411-.348 1.323-1.443 1.954-1.178-.087-.583.577-.854.877-1.238.316-.407.34-.883.923-1.016-.627-.49-.435-1.415-.299-2.083.175-.854.255-1.637.324-2.506.124-1.567.224-3.562-.642-4.94-.28-.446-.638-.857-.889-1.322-.302-.56-.235-1.052-.235-1.665-.552.37-.669-.386-.902-.755-.175-.276-.405-.43-.461-.779-.041-.253.234-.296.083-.561-.185.14-.259.355-.352.556-.17-.068.03-.305-.067-.383-.003-.002-.332-.145-.316-.124-.212-.268-.28-.714-.383-1.033-.388.196-.316.173-.748-.155-.077-.058-.457-.323-.493-.41-.168-.406.126-.165.044-.417-.236-.723-1.558-.586-1.663-1.67-.644.41-.89-.17-1.271-.583-.391-.422-1.046-.585-1.011-1.255l-.609.208c.106-.619-.813-.58-1.146-.893.185.002.369.016.551.043zm.526 38.306c.32-.286.222.095.428.051.176-.037.21-.17.38-.21.695-.169 1.734.042 2.465.006.846-.042 2.298.134 2.701 1.124.243.597-.128.394-.536.35-.317-.035-.599.03-.912.026a1.37 1.37 0 0 1-.464-.007.292.292 0 0 1-.133-.209c-.436-.066-.9.192-1.383.205-.644.017-1.217-.106-1.707-.542-.195.29-.328.435-.678.467-.01.001-.351-.137-.404-.15-.07-.019-.248.128-.383.086.24-.382.275-.883.626-1.197zm44.035 3.447c.114-.396.209-.797.313-1.195 1.591 1.812 2.984 4.237 3.61 6.56.407 1.51 1.041 4.246-.9 5.025-1.58.634-2.462-1.64-2.862-2.76-.883-2.472-.883-5.114-.161-7.63zm-71.204-28.389c.02-.004-1.03.607-.684.112.139-.199.666-.338.9-.338l-.216.226zm-1.01.26c-.122.101-.245.203-.369.302l-.357-.564c.235-.099 1.23-.173.725.261zm-.741 18.998c-.22-.149-.394-.07-.46.18 0-.248.129-.826.328-.893.129-.044-.427-.702-.271-.874.397.227.16.445.276.74.052.132.21.258.245.36.058.172.296.767-.118.487zm-1.077-1.48c-.225.057.169.429.168.593 0 .124-.15.22-.21.39-.134.368.095.617-.282.898 0-.807-.542-2.946.499-3.339-.508-.4-.091-.861.307-.383.382.46.139 1.681-.482 1.84zm-.543-3.185c-.204-.725-.82-.979-1.523-.936.026-.371.308-.907.511-.237.084-.198.142-.456.332-.587.321 1.006 1.921 1.562.925 2.652-.082-.297-.16-.595-.245-.892zm-1.859-.882c-3.705.269-8.907 1.038-11.872-1.803-1.934-1.851-1.83-4.735-.268-6.793.892-1.174 2.109-2 3.331-2.788a5.866 5.866 0 0 1 1.39-.68.36.36 0 0 1 .236.057c.029-.126.1-.218.211-.279.2-.107.485-.145.6-.367a7.126 7.126 0 0 0-.23 1.279l-.3-.35c-.083.787-.903.311-1.392.41.323.445.553.607.58 1.197-.24-.443-.741-.735-1.208-.877.254.749.433 1.194.178 2.016-.308-.176-.33-.599-.703-.7-.099.49-.116 1.034-.242 1.51-.957-.437-.864.738-.48 1.32.205.31.305.668.487.965.448.729.108-.361.605-.31-.112.77-.15.846.412 1.409.549.549.834 1.31 1.42 1.826.17-.218-.097-.445-.12-.653.546.092.802.64 1.328.154.229.447.476.938 1.025 1.03-.363-.69.696-.222.968-.124.206.074.575.133.655.162.447.162.14-.129.412.401.399-.12.55-.45 1.026-.171.388.227.389.616.477 1.015.093-.26.186-.521.288-.779.104.044.541.524.493.527 1.022-.05.986.584.693 1.396zm-5.202-13.008c.205-.144.455.048.686-.004.319-.071.5-.344.856-.374-.099.317-.285.288-.442.536-.054.085-.026.289-.074.337-.4.41-.537.076-.945-.234.036.373.107.492-.244.592-.319.09-.844-.244-1.005-.5.135-.271.922-.18 1.168-.353zm2.542-.584c.346.033-.07 1.054-.567.064.187-.04.376-.062.567-.064zm1.78-.197c.545-.111 2.365-.63 2.567.22.037-.022.172-.501.235-.443.252.235.28.545.26.87-.304-.634-.195-.076-.402-.12-.054-.011-.136.09-.273.048-.179-.055-.307-.435-.42-.564-.188.268-.421.614-.798.59-.266-.016-.696-.702-.35.05-.203-.068-.438-.22-.664-.189-.253.034-.384.284-.621.324-.526.09-.605-.416-.946-.691.47-.027.947 0 1.411-.095zm3.3-.008c.039-.174.516-.245.638-.19.296.135.187.313.132.61l-.66-.313c.328.53-.267.606-.11-.107zm92.424 31.002c-.04-1.269-.076-2.56-.398-3.794-.225-.864-.778-2.414-1.823-2.564-1.577-.226-2.45 2.89-2.892 3.96-.089-1.26-.011-2.6-.487-3.795-.38-.958-1.343-1.866-2.172-.79-.738.958-.88 2.371-1.073 3.523-.252 1.493-.403 2.997-.587 4.499-.72-1.392-.846-2.985-1.415-4.432-.537-1.365-1.382-2.669-2.197-3.883-.665-.992-1.474-1.924-2.515-2.53-.907-.528-2.493-1.099-3.357-.222-.721.73-.608 1.71-.57 2.632.016.41.08.693-.28.9-.178.101-.456.049-.65.103-.315.088-.556.237-.822.434-1.865 1.387-2.725 3.884-2.99 6.111-.338 2.822.762 5.24 1.709 7.822.15.412.63 1.284.564 1.744-.073.503-.705.516-1.13.527-1.288.031-2.634-.065-3.915-.185-3.05-.285-6.096-1.753-8.827-3.064-.498-.239-1.203-.376-1.61-.753-.382-.354-.483-.921-.813-1.327-.81-.997-1.325-1.847-2.518-2.45-1.214-.612-2.454-1.179-3.638-1.85-1.466-.83-2.82-1.883-4.223-2.813-2.61-1.728-5.201-3.622-7.968-5.092-1.285-.683-2.722-.793-4.056-1.353-1.3-.544-2.896-.545-4.252-.201-.66.168-1.11.565-1.718.824-.712.304-1.293-.031-1.92-.394-.957-.554-1.906-1.457-.542-2.054.462-.203 1.042-.28 1.446-.599.43-.34.776-.966 1.126-1.392.779-.946 1.244-2.035 2.383-2.623 1.26-.651 2.754-.828 4.097-1.253 1.456-.46 2.881-1.008 4.31-1.546 2.573-.969 5.25-2.015 7.099-4.148 1.595-1.84 2.29-4.214 2.226-6.626-.132-4.931-2.773-9.936-6.563-13.019-4.647-3.78-10.56-5.04-16.43-4.975-2.754.032-6.042.392-8.34 2.066-1.986 1.446-2.317 3.974-2.021 6.257.12.926.53 2.149-.124 2.965-.366.457-1.022.57-1.515.855-.619.357-1.164.7-1.865.89-2.978.804-6.114.524-9.159.479-5.072-.074-10.27 1.299-14.054 4.873-3.055 2.885-3.971 8.327-.245 11.14 3.01 2.273 7.733 2.023 11.283 1.626 1.1-.123 1.858-.301 1.86 1.045.003 1.472-.24 3.01.135 4.454.59 2.274 2.776 2.328 4.709 1.839 1.02-.259 2.005-.648 2.973-1.055 1.42-.597 2.722-1.474 4.125-2.07.95-.404 1.663.902 2.506-.003.156-.168.185-.417.42-.503.368-.134.986.336 1.31.485.483.223.97.387 1.164.923.18.502.102 1.3-.072 1.794-.376 1.076-1.39.864-2.315.792-1.613-.126-3.216-.392-4.83-.504-1.446-.1-2.802.332-4.05 1.046-2.622 1.499-4.767 3.883-7.04 5.844-1.17 1.009-2.301 2.099-3.573 2.977-.554.382-1.153.734-1.634 1.209-.477.47-.529.899-.692 1.525-.29 1.116-1.734 1.662-2.636 2.25-1.276.833-2.628 1.42-4.058 1.932-3.029 1.081-6.081 1.837-9.248 2.395-1.55.274-3.087.453-4.653.601-1.349.127-2.784.543-4.132.21.389-.629 1.076-1.007 1.612-1.494.69-.627 1.278-1.37 1.8-2.14 1.018-1.5 1.732-3.11 1.896-4.929.147-1.637-.022-3.596-1.01-4.979-.341-.478-1.016-.608-1.322-1.038-.303-.428-.188-1.164-.354-1.663-.423-1.269-1.68-2.841-2.785-3.578-1.2-.8-2.953-1.093-4.339-.677-2.566.772-4.143 3.515-5.317 5.732-.642-1.35.432-3.353-.82-4.458-1.058-.933-1.897.874-2.25 1.646-1.66 3.628-2.037 7.476-2.732 11.358-.284-.28-.139-.996-.112-1.33.05-.62.045-1.228.046-1.85.004-1.574.296-3.155.162-4.727-.077-.909-.367-2.825-1.687-2.523-1.12.256-1.821 1.83-2.173 2.793-.508 1.389-.625 2.763-.593 4.23.035 1.62-.274 3.215-.349 4.833-.145 3.144-.002 6.26.9 9.294 1.477 4.968 4.873 9.096 9.406 11.589 2.497 1.373 5.267 2.242 8.116 2.43 1.543.1 3.033-.083 4.564-.243 1.51-.157 3.028-.23 4.535-.415 3.358-.412 6.63-1.475 9.68-2.905 1.607-.753 3.118-1.677 4.698-2.48.634-.322 1.062-.725 1.603-1.172.537-.444.685-.479 1.295-.479-.179-.479.343-.626.576-.93l-.04.441c.178-.384.343-.38.495.012.151-.44.263-.89.445-1.318.696.353.638 1.19 1.57.579.766-.504 1.471-1.097 2.253-1.59 1.781-1.125 3.317-2.588 5.103-3.7 0 1.083.076 2.175-.068 3.252-.138 1.024-.52 1.98-.824 2.961-.561 1.809-.6 3.742-1.221 5.532-.257.741-.927 1.361-1.119 2.083-.195.737.257 1.327-.501 1.81-.535.34-1.202.485-1.794.691-.903.315-1.76.759-2.638 1.135-4.12 1.766-8.14 3.564-11.958 5.938-3.623 2.253-7.301 4.58-10.63 7.255-2.888 2.322-5.808 5.325-6.511 9.113-.682 3.674 1.135 7.618 4.786 8.828 1.898.63 4.043.551 6.02.579 2.127.029 4.38-.484 6.472-.855 2.208-.391 4.378-1.004 6.593-1.354 2.125-.336 4.074-1.086 6.164-1.548 2.226-.492 4.51-.76 6.748-1.202 1.008-.2 1.995-.494 3.006-.678 1.106-.203 2.225-.278 3.32-.546 2.125-.52 4.16-1.357 6.294-1.84.96-.217 1.904-.508 2.864-.71.884-.188 1.572-.685 2.458-.277.716.33 1.286.895 1.964 1.289.878.51 1.804.968 2.72 1.407 1.84.883 3.748 1.493 5.672 2.156 2.02.696 4.005 1.49 6.098 1.95 2.147.472 4.336.603 6.497.976 4.426.763 8.815 1.106 13.307 1.134 2.271.014 4.541-.255 6.807-.223 2.006.028 3.75.48 5.583-.586 2.93-1.704 6.33-4.27 6.258-7.998-.066-3.376-2.091-6.601-3.99-9.264-2.307-3.234-5.596-5.51-8.82-7.742-3.435-2.377-7.294-4.02-10.905-6.094-1.846-1.061-3.55-2.203-5.555-2.957-.957-.36-1.89-.777-2.836-1.165-.762-.312-1.86-.484-2.512-1.001-.407-.323-.446-.812-.553-1.292-.238-1.062-.611-2.07-.973-3.094-.7-1.977-1.164-3.992-1.464-6.066-.287-1.978-.923-4.034-.593-6.044 2.165 2.095 4.39 4.109 6.606 6.148.83.764 1.646 1.545 2.48 2.304.627.57 1.41 1.418 2.284 1.587 1.116.216.708-1.018 1.474-1.21.469-.116 1.88 1.073 2.25 1.308 2.347 1.49 4.944 2.434 7.525 3.448 2.705 1.062 5.488 2.007 8.4 2.274 2.689.248 5.44-.07 8.034-.802 5.169-1.46 8.972-4.922 11.763-9.41 3.18-5.113 5.495-11.104 5.308-17.208z"/>
            <path fill="#1A1A1A" d="M136.546 41.101l-.009.019c.01-.007.013-.013.009-.019"/>
            <path fill="#1A1A1A" d="M136.795 41.167a1.818 1.818 0 0 0-.125-.478c-.171.271-.324.387-.1.675l.225-.197M148.713 79.936c.192-.204-.143-.28-.27-.283.012.218-.096.742.203.843a.596.596 0 0 1 .067-.56M143.665 37.323c-.33.635.397.832.818.525.317-.23.504-.819.556-1.196.168-1.221-.687-2.383-1.113-3.467-.11-.28-.26-1.24-.615-1.266-.407-.03-.437.854-.443 1.082-.015.688.167 1.39.38 2.039.23.7.8 1.54.417 2.283M145.23 34.775c1.263 1.126 2.275-.75 2.186-1.858-.022-.275-.207-1.288-.728-.92-.262.186-.039.788-.164 1.052-.604 1.281-1.187-.706-1.594-.862-.495-.19-.545.46-.544.809 0 .69.33 1.322.843 1.78M140.64 34.95c.298-.469.664-1.098.704-1.66.063-.873-.446-.8-.865-.19-.296.43-.517 1.16-1.17.978-.807-.224-.56-1.308-1.012-1.823-1.14 1.531 1.017 4.782 2.343 2.695M142.348 39.635c.472.102 1.7.064 1.275-.657-.537-.91-2.323.43-1.275.657M158.863 12.52c.086-.257-.032-.303-.238-.506-.195.18.055.37.238.506M167.656 59.066c.311.05.411-.115.3-.494-.49-.032-.59.133-.3.494M150.673 19.36c.343.157.212.479.206.75.177-.191.534-.543.388-.818-.224-.426-.809-.03-.594.068M138.988 14.007l-.157-.306c-.213.17-.542.623-.203.843a3.26 3.26 0 0 0 .36-.537M143.104 17.008c.427.334.222-.693.21-.777-.064.12-.426.607-.21.777M142.868 16.486l-.099-.255c-.172.16-.384.487-.099.675.079-.132.144-.271.198-.42M145.578 20.014l.105.097c.14-.284-.02-.498-.285-.506.019.159.079.295.18.409M134.141 51.962c.17-.115.323-.247.461-.394-.5-.307-.2.357-.804-.05-.13.18.083.581.343.444M155.198 79.821c.19-.292.225-.284-.035-.506-.217.362-.195.269.035.506M115.374 33.28l.31.325c.05-.142.313-.542.134-.675l-.444.35M119.063 34.35c-.166-.027-.562-.148-.653.006.242.198.789.017.653-.006M215.04 91.84c.775-.155 1.427-.784 2.06-1.256.806-.602 1.572-1.258 2.356-1.89 1.476-1.192 2.816-2.499 4.09-3.92 2.513-2.804 4.405-6.414 5.265-10.102.435-1.866.974-4.052.727-5.98-.086-.67-.217-.793-.864-.87-.291-.034-1.032-.12-1.295-.003-.682.303-1.05 1.59-1.251 2.237-.597 1.91-.948 3.888-1.488 5.813-.528 1.888-1.38 3.803-2.223 5.567-1.874 3.927-4.48 7.213-7.377 10.404m15.663-21.841c-.469 5.333-1.948 10.414-5.264 14.709-1.577 2.041-3.43 3.818-5.44 5.43-2.075 1.667-4.194 3.236-6.549 4.478-.626.331-1.253.66-1.888.976-.351.175-1.239.819-1.645.717-.324-.082-.41-.333-.46-.66-.114-.735.363-1.102.845-1.574 1.938-1.896 3.88-3.798 5.692-5.815 3.577-3.983 6.264-8.752 7.758-13.898.46-1.585.87-3.187 1.367-4.76.302-.958.731-2.665 1.737-3.142.539-.257 1.167-.007 1.734-.16.532-.145.884-.439 1.337.054.795.865.83 2.561.776 3.645M52.169 53.85l-.089.47c.018.004 1.44-2.705 1.675-3.033.799-1.109 1.838-2.032 2.84-2.958 2.123-1.962 4.607-3.546 6.687-5.543.684-.658 1.91-1.653 1.64-2.764-.27-1.104-2.54-.88-3.318-.56-1.22.5-2.21 1.548-3.119 2.461-.99.996-1.99 1.981-2.83 3.108-.905 1.216-1.765 2.532-2.32 3.943-.622 1.58-.865 3.215-1.166 4.876m.471 4.417c-.946.289.24.484-.13.984-.407.55-1.09-1.142-1.192-1.461-.602-1.887-.333-4.179-.004-6.094.166-.966.273-1.948.497-2.904.219-.932.694-1.818 1.134-2.666.88-1.696 2.045-3.276 3.368-4.66 1.326-1.387 2.804-2.776 4.555-3.63 1.446-.705 3.738-.216 4.415 1.325.692 1.575-.244 3.29-1.35 4.398-1.443 1.444-3.016 2.878-4.637 4.123-.832.64-1.53 1.414-2.34 2.082-.861.711-1.607 1.426-2.244 2.346-.616.89-1.251 1.78-1.652 2.792-.44 1.108-.42 2.193-.42 3.365M251.436 13.44c-2.407.485-4.604 1.571-4.99 4.281-.35 2.463 1.325 4.741 3.381 5.894 2.224 1.247 5.011 1.454 7.228.072 2.333-1.455 2.862-4.37 1.442-6.658-1.584-2.553-4.239-3.307-7.061-3.589m1.643-1.12c2.815.414 5.428 2.423 6.376 5.13.977 2.789.079 5.856-2.509 7.384-5.23 3.09-12.219-2.059-10.956-7.976.32-1.502 1.23-2.666 2.466-3.545 1.365-.972 3.016-.998 4.623-.992M31.36 106.927l-10.616-4.447-.436 4.458c-.039.402-.2.949-.131 1.346.073.423-.083.378.513.318.761-.078 1.526-.252 2.28-.377 1.356-.224 2.798-.288 4.125-.617.677-.169 1.326-.19 2.013-.292.755-.111 1.49-.318 2.252-.39M19.6 109.76c0-1.705.197-3.387.359-5.083.146-1.527.202-2.982.72-4.437.484.845 1.823 1.183 2.652 1.618 1.143.6 2.36 1.041 3.528 1.587 1.149.537 2.255 1.152 3.405 1.687.583.272 1.174.525 1.756.798.365.172 1.228.447 1.455.765.688.965-1.667 1.059-2.121 1.144-1.363.255-2.742.4-4.102.663-1.269.245-2.54.473-3.812.695-1.26.22-2.558.563-3.84.563M193.52 23.476c1.353-.143 2.702-.348 4.054-.484 1.281-.129 2.414-.266 3.584-.861-1.598-.49-3.2-.953-4.811-1.395-.8-.219-1.597-.45-2.4-.655-.62-.159-1.162-.25-1.401-.938-.278-.801.495-.68.976-.476.665.28 1.389.455 2.077.688 1.537.521 3.083 1 4.634 1.474.483.147 3.277.691 2.27 1.637-.431.406-1.392.628-1.92.919-.675.373-1.41.522-2.162.67-1.567.31-3.192.428-4.778.697l-2.43.411c-.474.08-.657.072-.78-.465-.09-.39.027-.78.113-1.159.22-.96.464-1.916.706-2.87.092-.365.255-1.966.575-2.141.726-.398.166 1.82.112 2.09-.204 1.025-.446 2.042-.555 3.08a65.123 65.123 0 0 0 2.135-.222M44.609 51.451c-.09-2.03.165-4.066.013-6.091-2.614 2.468-1.326 6.282.178 8.96l-.191-2.869zm1.433-.377c.018 1 .074 2.001-.023 2.997-.101 1.045.386 1.584 1.021 2.354-.54.55-1.777-.734-2.118-1.112-.704-.78-1.227-1.816-1.693-2.752-.992-1.994-1.676-4.13-.882-6.32.295-.81.655-1.914 1.434-2.386.856-.52 1.51.212 1.866.965.867 1.836.206 4.283.395 6.254zM73.928 88.48c.808.737.42 1.498.155 2.419-.159.553-1.032 2.368-.791 2.885.278.598 1.587.745 2.147.934.975.328 1.955.659 2.877 1.122.41.206 1.887.68 2.163 1.063.159.22.217.393.097.677-.209.498-.508.234-1.018.127-2.332-.488-4.644-1.113-6.806-2.144-.603 1.42-1.114 2.87-1.624 4.326-.149.427-.292 1.397-.86 1.466-.692.084-.701-.857-.655-1.365.067-.74.445-1.53.674-2.232.188-.58.85-1.785.768-2.382-.055-.41-.302-.382-.742-.544-.416-.152-.832-.304-1.247-.458a30.614 30.614 0 0 1-1.977-.788c-.356-.16-1.1-.349-1.357-.682-.15-.194-.316-.892-.128-1.085.441-.452 3.373.765 3.976.931.4.11.802.195 1.19.34.147.055.321.278.48.286.675.035.728-.491.937-1.056.486-1.311 1.014-2.649 1.741-3.84"/>
        </g>
    </g>
</svg>
